<!DOCTYPE svg PUBLIC "-//W3C//DTD SVG 20010904//EN" "http://www.w3.org/TR/2001/REC-SVG-20010904/DTD/svg10.dtd">
<svg version="1.0" xmlns="http://www.w3.org/2000/svg" width="100px" height="100px" viewBox="0 0 1000 1000" preserveAspectRatio="xMidYMid meet">
<g id="layer101" fill="#030304" stroke="none">
<path d="M417 923 c-4 -3 -7 -20 -7 -36 0 -20 6 -30 20 -34 30 -8 24 -25 -7 -21 -24 3 -28 8 -31 41 -3 34 -6 37 -33 37 -17 0 -44 -7 -60 -16 -25 -13 -30 -20 -27 -47 2 -27 8 -33 31 -35 33 -4 34 -15 5 -34 -28 -18 -48 -13 -48 12 0 24 -25 43 -48 36 -33 -11 -62 -46 -62 -75 0 -31 16 -43 48 -34 27 7 36 -13 22 -48 -15 -35 -47 -39 -52 -6 -2 15 -11 23 -30 25 -32 4 -56 -27 -65 -82 -5 -31 -2 -37 21 -48 20 -8 32 -9 44 -2 28 18 39 6 33 -33 -7 -42 -30 -56 -38 -24 -4 18 -12 21 -37 19 -31 -3 -31 -3 -31 -63 0 -56 2 -61 29 -74 27 -13 31 -12 48 9 10 13 20 21 21 19 1 -2 7 -18 14 -36 8 -25 8 -33 -2 -37 -7 -2 -17 0 -23 6 -16 16 -42 1 -42 -24 0 -13 11 -41 23 -63 18 -33 28 -40 52 -40 26 0 30 3 30 29 0 38 16 42 45 11 19 -20 21 -27 10 -40 -7 -8 -21 -15 -31 -15 -29 0 -23 -37 11 -71 26 -26 36 -30 77 -27 41 3 48 6 51 26 2 13 -3 25 -12 28 -22 9 -20 34 3 34 40 0 81 -13 81 -26 0 -8 -9 -14 -19 -14 -25 0 -36 -30 -17 -48 24 -24 106 -35 133 -17 26 18 30 47 8 65 -22 19 -18 47 8 53 12 2 29 7 38 11 18 8 45 -39 29 -49 -18 -11 -11 -63 9 -70 21 -6 107 40 124 66 16 26 1 49 -32 49 -48 0 -51 34 -8 77 30 31 37 33 55 22 11 -7 18 -19 15 -26 -8 -19 16 -43 43 -43 17 0 30 12 50 45 27 46 27 75 -1 75 -9 0 -31 7 -50 15 l-35 14 17 36 c20 42 35 44 52 9 23 -51 71 -7 71 67 0 46 -23 68 -51 51 -28 -18 -46 -15 -53 11 -12 45 -9 49 34 42 50 -8 59 8 38 73 -17 57 -51 71 -68 28 -11 -29 -31 -34 -50 -11 -18 21 -5 43 27 47 22 2 29 9 31 29 4 34 -60 91 -98 87 -21 -3 -25 -8 -25 -35 0 -42 -8 -47 -44 -28 -38 19 -39 37 -6 59 35 23 31 44 -10 62 -72 30 -125 9 -97 -37 18 -28 15 -52 -4 -45 -9 3 -20 6 -25 6 -6 0 -7 15 -3 36 5 26 3 39 -7 45 -16 10 -103 12 -112 2z"/>
</g>
<g id="layer102" fill="#4d2647" stroke="none">
<path d="M435 900 c-8 -14 3 -30 21 -30 8 0 14 -9 14 -20 0 -33 26 -23 37 14 6 19 8 37 5 40 -9 10 -71 6 -77 -4z"/>
<path d="M590 901 c0 -6 5 -13 11 -16 6 -4 7 -19 4 -36 -5 -22 -3 -29 9 -29 10 0 16 9 16 21 0 12 8 23 20 26 29 8 25 19 -11 32 -39 13 -49 14 -49 2z"/>
<path d="M317 874 c-33 -18 -31 -37 4 -42 13 -2 28 -10 32 -18 14 -24 23 -7 19 35 -4 45 -12 48 -55 25z"/>
<path d="M755 811 c3 -11 -1 -26 -11 -36 -25 -24 -2 -45 24 -22 10 9 29 17 42 17 l24 0 -29 30 c-33 34 -60 40 -50 11z"/>
<path d="M546 731 c-11 -18 6 -42 28 -39 29 4 29 42 -1 46 -11 2 -24 -1 -27 -7z"/>
<path d="M404 705 c-4 -9 -2 -21 4 -27 16 -16 47 -5 47 17 0 26 -42 34 -51 10z"/>
<path d="M695 640 c-9 -14 13 -50 30 -50 8 0 15 9 15 20 0 22 -35 46 -45 30z"/>
<path d="M300 609 c-10 -17 -9 -24 4 -37 15 -15 17 -15 33 1 13 13 15 21 7 34 -16 26 -31 26 -44 2z"/>
<path d="M584 569 c-3 -6 -2 -15 4 -21 13 -13 32 -2 32 18 0 16 -26 19 -36 3z"/>
<path d="M442 548 c-30 -30 0 -78 37 -58 24 12 26 23 11 51 -12 22 -30 25 -48 7z"/>
<path d="M697 463 c-8 -8 -9 -43 -1 -43 16 0 44 23 44 35 0 15 -31 21 -43 8z"/>
<path d="M532 388 c-26 -26 1 -65 38 -53 16 5 20 14 18 33 -3 30 -35 41 -56 20z"/>
<path d="M362 328 c3 -25 34 -36 51 -19 14 14 -9 41 -35 41 -14 0 -19 -6 -16 -22z"/>
<path d="M190 780 c-28 -28 -26 -44 6 -36 18 5 32 2 45 -10 27 -25 36 -8 11 19 -12 13 -22 29 -22 35 0 18 -18 14 -40 -8z"/>
<path d="M860 685 c0 -9 -11 -20 -25 -25 -38 -14 -30 -28 15 -27 41 2 44 6 34 45 -7 25 -24 30 -24 7z"/>
<path d="M111 639 c-12 -19 -21 -38 -21 -42 0 -13 31 -20 42 -9 7 7 19 7 33 2 17 -6 25 -5 28 5 7 17 -1 25 -25 25 -10 0 -19 5 -19 10 -1 6 -2 14 -3 19 -3 24 -17 20 -35 -10z"/>
<path d="M896 522 c-5 -9 -20 -12 -37 -10 -36 6 -40 -19 -4 -28 13 -3 27 -15 31 -26 10 -32 26 -5 22 38 -2 27 -6 35 -12 26z"/>
<path d="M88 495 c-2 -3 -2 -24 1 -47 6 -43 31 -66 31 -29 0 16 6 21 25 21 14 0 25 5 25 10 0 6 -12 10 -26 10 -17 0 -28 6 -31 20 -5 19 -15 25 -25 15z"/>
<path d="M775 359 c-7 -10 21 -38 38 -39 4 0 7 -11 7 -24 0 -39 18 -40 40 -4 25 41 25 48 0 48 -12 0 -34 7 -50 15 -20 10 -31 12 -35 4z"/>
<path d="M151 279 c24 -49 44 -62 37 -25 -4 20 0 31 16 41 11 8 18 15 16 16 -3 1 -24 2 -47 3 l-41 2 19 -37z"/>
<path d="M646 241 c-4 -5 -1 -21 5 -35 9 -19 9 -32 1 -51 -16 -36 1 -40 48 -10 39 25 56 53 24 41 -19 -7 -54 19 -54 40 0 17 -17 27 -24 15z"/>
<path d="M290 200 c-6 -11 -17 -20 -25 -20 -8 0 -15 -4 -15 -9 0 -17 52 -51 76 -51 27 0 32 15 9 24 -17 6 -20 42 -5 51 6 4 8 11 5 16 -10 16 -34 10 -45 -11z"/>
<path d="M478 163 c-2 -20 -9 -29 -25 -31 -38 -6 -26 -20 23 -28 51 -7 83 9 52 27 -10 6 -18 21 -18 34 0 35 -28 32 -32 -2z"/>
</g>
<g id="layer103" fill="#83417b" stroke="none">
<path d="M436 891 c-3 -5 4 -11 15 -14 11 -3 23 -15 26 -26 3 -12 9 -21 13 -21 8 0 20 34 20 58 0 14 -66 17 -74 3z"/>
<path d="M600 885 c7 -8 10 -26 8 -40 -4 -17 -1 -25 8 -25 8 0 14 9 14 20 0 10 10 24 21 31 17 9 19 13 8 20 -8 5 -27 9 -43 9 -24 0 -27 -2 -16 -15z"/>
<path d="M335 880 c-12 -4 -27 -15 -34 -24 -12 -14 -10 -16 12 -16 13 0 30 -7 37 -15 18 -21 33 -19 21 3 -6 10 -7 28 -4 40 6 23 0 26 -32 12z"/>
<path d="M755 811 c3 -11 -1 -26 -11 -36 -25 -24 -2 -45 24 -22 10 9 26 17 35 17 23 0 21 13 -6 38 -29 27 -51 29 -42 3z"/>
<path d="M550 715 c0 -22 4 -26 23 -23 14 2 22 10 22 23 0 13 -8 21 -22 23 -19 3 -23 -1 -23 -23z"/>
<path d="M407 713 c-24 -23 12 -55 38 -33 12 10 13 16 4 26 -12 15 -31 18 -42 7z"/>
<path d="M697 643 c-8 -14 12 -53 28 -53 20 0 19 24 -1 44 -17 18 -21 19 -27 9z"/>
<path d="M307 614 c-4 -4 -7 -16 -7 -26 0 -14 6 -19 23 -16 14 2 22 10 22 23 0 20 -25 32 -38 19z"/>
<path d="M587 574 c-9 -10 2 -24 19 -24 8 0 14 7 14 15 0 15 -21 21 -33 9z"/>
<path d="M445 546 c-24 -17 -15 -50 14 -54 30 -5 45 10 37 36 -9 26 -30 34 -51 18z"/>
<path d="M697 463 c-10 -10 -8 -43 2 -43 12 0 41 29 41 41 0 10 -33 12 -43 2z"/>
<path d="M282 444 c1 -9 9 -19 16 -22 9 -3 13 2 10 14 -1 9 -9 19 -16 22 -9 3 -13 -2 -10 -14z"/>
<path d="M537 393 c-4 -3 -7 -17 -7 -30 0 -18 6 -23 24 -23 30 0 40 13 31 40 -6 19 -35 27 -48 13z"/>
<path d="M364 336 c-8 -21 3 -36 27 -36 15 0 20 6 17 22 -4 27 -35 37 -44 14z"/>
<path d="M190 780 c-24 -24 -19 -40 10 -33 12 3 29 -2 39 -11 11 -10 22 -13 25 -8 3 5 -3 17 -14 27 -11 10 -20 24 -20 32 0 19 -17 16 -40 -7z"/>
<path d="M860 680 c0 -6 -11 -15 -25 -20 -37 -14 -30 -26 15 -25 22 0 40 2 40 5 -1 32 -30 71 -30 40z"/>
<path d="M110 634 c-6 -14 -10 -32 -10 -40 0 -15 25 -19 34 -5 3 4 17 6 31 3 30 -5 35 17 5 25 -10 3 -22 14 -25 24 -9 27 -24 24 -35 -7z"/>
<path d="M902 521 c-1 -9 -13 -12 -37 -9 -41 5 -50 -18 -10 -28 13 -3 27 -15 31 -26 10 -33 26 -5 21 38 -2 22 -4 33 -5 25z"/>
<path d="M92 448 c3 -42 28 -68 28 -29 0 16 6 21 26 21 14 0 23 4 19 10 -3 6 -15 10 -26 10 -11 0 -22 7 -25 15 -12 30 -25 14 -22 -27z"/>
<path d="M776 363 c-11 -11 -6 -18 24 -37 22 -13 29 -23 25 -36 -11 -34 13 -30 34 6 26 43 26 44 1 44 -12 0 -34 7 -49 15 -16 8 -31 11 -35 8z"/>
<path d="M168 313 c-33 -5 -33 -6 -11 -44 21 -36 32 -37 25 -3 -3 20 0 26 17 31 18 5 21 25 3 22 -4 -1 -19 -4 -34 -6z"/>
<path d="M640 235 c0 -4 7 -20 16 -36 14 -28 14 -32 -1 -49 -28 -31 1 -33 46 -3 l42 27 -30 8 c-17 5 -34 18 -41 33 -10 22 -32 35 -32 20z"/>
<path d="M290 201 c-6 -12 -17 -21 -25 -21 -39 0 4 -44 53 -55 33 -7 46 8 16 19 -10 4 -14 16 -12 37 4 38 -16 49 -32 20z"/>
<path d="M480 166 c0 -14 -9 -31 -20 -39 -21 -14 -21 -14 2 -21 54 -14 102 5 64 26 -9 5 -16 20 -16 33 0 16 -6 25 -15 25 -9 0 -15 -9 -15 -24z"/>
</g>
<g id="layer104" fill="#38b47b" stroke="none">
<path d="M394 794 c-142 -51 -246 -283 -189 -422 24 -57 101 -129 158 -148 101 -34 247 2 336 82 134 121 148 298 31 415 -81 81 -225 112 -336 73z m211 -50 c19 -20 16 -53 -6 -67 -22 -14 -67 -1 -74 23 -15 48 43 80 80 44z m-141 -20 c30 -29 10 -74 -32 -74 -33 0 -52 16 -52 45 0 43 53 61 84 29z m276 -74 c24 -24 26 -63 5 -80 -12 -10 -20 -9 -40 4 -34 22 -44 65 -20 83 25 17 31 17 55 -7z m-392 -16 c26 -18 28 -50 5 -76 -21 -23 -45 -23 -67 1 -19 21 -15 50 10 76 19 19 24 19 52 -1z m290 -65 c6 -49 -58 -65 -73 -18 -9 27 13 51 44 47 20 -2 27 -9 29 -29z m-138 -9 c32 -32 25 -66 -18 -89 -52 -27 -96 46 -55 91 21 24 48 23 73 -2z m250 -85 c28 -33 -31 -93 -65 -65 -18 15 -20 51 -3 68 16 16 53 15 68 -3z m-432 -7 c17 -17 15 -58 -4 -65 -36 -13 -68 33 -44 62 15 18 32 19 48 3z m283 -72 c16 -35 4 -73 -26 -80 -53 -13 -90 35 -61 79 23 34 72 35 87 1z m-176 -50 c13 -19 14 -29 5 -45 -19 -37 -90 -20 -90 22 0 50 58 65 85 23z"/>
</g>


</svg>