<svg width="12" height="23" viewBox="0 0 12 23" fill="none" xmlns="http://www.w3.org/2000/svg">
<path d="M9.23068 4.5H11.5383C11.7931 4.5 11.9999 4.276 11.9999 4V0.6315C11.9999 0.3695 11.8139 0.1515 11.573 0.133C10.8387 0.0765 9.40421 0 8.37268 0C5.53841 0 3.69227 1.84 3.69227 5.184V8.5H0.461534C0.206767 8.5 0 8.724 0 9V12.5C0 12.776 0.206767 13 0.461534 13H3.69227V22.5C3.69227 22.776 3.89904 23 4.1538 23H7.38454C7.63931 23 7.84607 22.776 7.84607 22.5V13H11.1793C11.4147 13 11.6122 12.8085 11.638 12.555L11.9971 9.055C12.0276 8.759 11.8134 8.5 11.5383 8.5H7.84607V6C7.84607 5.1715 8.46591 4.5 9.23068 4.5Z" fill="white"/>
</svg>
