<svg width="465" height="270" viewBox="0 0 465 270" fill="none" xmlns="http://www.w3.org/2000/svg">
<path fill-rule="evenodd" clip-rule="evenodd" d="M239.064 0.78618C287.085 -6.03969 331.161 32.8617 359.974 67.8862C384.661 97.8949 365.716 140.922 382.423 175.049C402.378 215.811 466.844 237.872 464.96 282.337C463.092 326.42 414.924 358.188 373.639 382.337C333.808 405.635 286.085 421.057 239.064 414.47C195.166 408.321 165.501 374.578 131.992 348.486C101.847 325.014 73.8198 301.534 54.0986 270.444C29.7325 232.032 -15.4661 188.848 5.31541 148.786C26.7133 107.537 101.689 124.977 143.189 98.7007C183.775 73.0033 189.951 7.76727 239.064 0.78618Z" fill="#0660AF"/>
</svg>
