<svg width="496" height="537" viewBox="0 0 496 537" fill="none" xmlns="http://www.w3.org/2000/svg">
<path fill-rule="evenodd" clip-rule="evenodd" d="M241.533 0.434753C281.594 5.10349 304.685 48.8938 336.989 73.2554C363.299 93.0964 390.587 109.934 415.452 131.591C442.754 155.371 479.554 173.32 491.362 207.711C503.153 242.054 488.339 279.838 478.337 314.755C469.253 346.471 449.03 372.602 435.519 402.669C420.689 435.673 420.593 477.158 394.282 501.819C368.011 526.442 329.053 532.123 293.395 535.881C259.265 539.477 224.871 534.192 192.364 523.097C161.531 512.573 138.118 488.672 109.46 473.099C76.7679 455.335 30.9903 455.504 10.4835 424.265C-9.74965 393.444 5.54839 351.649 5.46217 314.677C5.38274 280.614 1.08928 246.565 9.99252 213.708C19.0756 180.188 36.4725 149.925 57.5516 122.447C79.4764 93.8658 105.799 69.6494 135.73 49.8001C168.56 28.0281 202.509 -4.11321 241.533 0.434753Z" fill="#0660AF"/>
</svg>
