<svg width="579" height="585" viewBox="0 0 579 585" fill="none" xmlns="http://www.w3.org/2000/svg">
<path fill-rule="evenodd" clip-rule="evenodd" d="M272.785 36.3882C317.543 20.7479 373.448 -18.4432 410.964 10.1868C452.938 42.2188 413.838 116.095 438.103 162.55C456.033 196.878 505.829 203.117 528.275 234.778C554.822 272.222 583.012 315.201 578.527 360.619C574.068 405.77 536.678 441.032 504.678 473.736C474.226 504.856 436.704 526.963 397.22 545.906C357.593 564.917 316.883 584.695 272.785 584.989C228.593 585.284 177.168 579.778 147.532 547.573C116.117 513.435 130.124 458.7 116.151 414.775C107.229 386.726 95.6394 360.344 80.0054 335.29C56.7653 298.047 8.73897 274.393 1.64197 231.268C-5.25851 189.338 9.77255 139.097 43.3052 112.285C78.1846 84.3953 132.4 106.731 175.022 92.6342C211.267 80.6466 236.752 48.9794 272.785 36.3882Z" fill="#FFE39C"/>
</svg>
