<svg width="641" height="628" viewBox="0 0 641 628" fill="none" xmlns="http://www.w3.org/2000/svg">
<path fill-rule="evenodd" clip-rule="evenodd" d="M352.107 1.34939C415.29 -8.64433 472.84 38.8179 523.784 79.4868C573.84 119.446 622.363 166.561 639.032 230.401C655.341 292.86 640.933 360.642 612.14 417.867C586.321 469.181 533.059 492.658 489.317 527.955C444.094 564.447 408.878 623.096 352.107 627.696C294.332 632.379 249.004 581.8 198.675 551.508C140.575 516.539 68.1681 498.864 35.6271 437.214C0.582238 370.82 -16.2809 280.213 21.2327 215.337C58.5582 150.787 153.054 167.981 214.161 128.461C267.518 93.953 290.213 11.1394 352.107 1.34939Z" fill="#FFE39C"/>
</svg>
