<svg width="28" height="20" viewBox="0 0 28 20" fill="none" xmlns="http://www.w3.org/2000/svg">
<path d="M27.4231 3.11057C27.1004 1.89424 26.1547 0.935425 24.9553 0.607905C22.7642 0 13.9997 0 13.9997 0C13.9997 0 5.23548 0 3.04439 0.584857C1.86809 0.912031 0.899269 1.89442 0.576612 3.11057C0 5.33216 0 9.93945 0 9.93945C0 9.93945 0 14.57 0.576612 16.7683C0.899611 17.9845 1.84502 18.9433 3.04456 19.2708C5.25855 19.8789 14 19.8789 14 19.8789C14 19.8789 22.7642 19.8789 24.9553 19.294C26.1549 18.9667 27.1004 18.0079 27.4234 16.7917C27.9999 14.57 27.9999 9.96285 27.9999 9.96285C27.9999 9.96285 28.023 5.33216 27.4231 3.11057ZM11.2093 14.1958V5.68308L18.4974 9.93945L11.2093 14.1958Z" fill="white"/>
</svg>
