<svg width="25" height="24" viewBox="0 0 25 24" fill="none" xmlns="http://www.w3.org/2000/svg">
<g clip-path="url(#clip0)">
<path d="M17.751 10.501C17.337 10.501 17.001 10.165 17.001 9.75098C17.001 9.33698 17.337 9.00098 17.751 9.00098H18.282C18.524 9.00098 18.74 8.85498 18.83 8.62998C18.889 8.48398 18.887 8.32298 18.825 8.17698C18.763 8.03098 18.648 7.91798 18.502 7.85998L16.439 7.03498C15.642 6.71398 15.127 5.95298 15.127 5.09498C15.127 4.53598 15.344 4.01098 15.739 3.61598C16.083 3.27198 16.525 3.06198 17.001 3.01298V3.00098C17.001 2.58698 17.337 2.25098 17.751 2.25098C18.165 2.25098 18.501 2.58698 18.501 3.00098H19.251C19.665 3.00098 20.001 3.33698 20.001 3.75098C20.001 4.16498 19.665 4.50098 19.251 4.50098H17.218C17.06 4.50098 16.912 4.56298 16.8 4.67498C16.688 4.78698 16.627 4.93498 16.627 5.09298C16.627 5.33598 16.773 5.55098 16.998 5.64198L19.061 6.46698C20.132 6.89798 20.653 8.11898 20.222 9.18898C19.902 9.98498 19.14 10.5 18.283 10.5H17.751V10.501Z" fill="#959CA5"/>
<path d="M18.5305 13.451C18.1555 13.451 17.8365 13.171 17.7875 12.799C17.7615 12.6 17.8145 12.403 17.9365 12.244C18.0585 12.085 18.2355 11.983 18.4335 11.957C19.8235 11.774 21.0595 11.061 21.9135 9.94798C22.7675 8.83598 23.1365 7.45698 22.9535 6.06698C22.7705 4.67698 22.0575 3.44098 20.9445 2.58698C20.0185 1.87598 18.9175 1.50098 17.7605 1.50098C17.5295 1.50098 17.2945 1.51598 17.0635 1.54698C14.7165 1.85598 12.8575 3.71098 12.5445 6.05798C12.4955 6.42898 12.1755 6.70898 11.8015 6.70898C11.7695 6.70898 11.7365 6.70698 11.7035 6.70298C11.2925 6.64798 11.0035 6.26998 11.0585 5.85998C11.4605 2.84198 13.8505 0.456977 16.8685 0.0599766C17.1645 0.0209766 17.4655 0.000976562 17.7625 0.000976562C19.2515 0.000976562 20.6685 0.483976 21.8585 1.39698C23.2885 2.49498 24.2055 4.08398 24.4415 5.87098C24.6765 7.65798 24.2015 9.43098 23.1045 10.861C22.0065 12.291 20.4175 13.208 18.6295 13.444C18.5965 13.449 18.5635 13.451 18.5305 13.451Z" fill="#959CA5"/>
<path d="M16.2512 16.501C15.8372 16.501 15.5012 16.165 15.5012 15.751C15.5012 12.029 12.4732 9.00098 8.75122 9.00098C8.33722 9.00098 8.00122 8.66498 8.00122 8.25098C8.00122 7.83698 8.33722 7.50098 8.75122 7.50098C13.3002 7.50098 17.0012 11.202 17.0012 15.751C17.0012 16.165 16.6652 16.501 16.2512 16.501ZM8.75622 23.974C6.98422 23.974 5.28922 23.411 3.85522 22.346C2.08822 21.034 0.938221 19.11 0.615221 16.928C0.292221 14.746 0.837222 12.571 2.14922 10.804C2.29022 10.614 2.51522 10.501 2.75122 10.501C2.91322 10.501 3.06822 10.552 3.19822 10.649C3.35922 10.768 3.46322 10.943 3.49322 11.141C3.52222 11.339 3.47322 11.537 3.35322 11.698C1.13422 14.686 1.76022 18.923 4.74922 21.141C5.92322 22.012 7.30922 22.473 8.75922 22.473C9.09122 22.473 9.42822 22.448 9.76022 22.399C11.5432 22.135 13.1182 21.193 14.1932 19.745C14.3412 19.546 14.4792 19.337 14.6042 19.123C14.7382 18.893 14.9872 18.75 15.2522 18.75C15.3842 18.75 15.5152 18.785 15.6292 18.852C15.9862 19.06 16.1072 19.52 15.8992 19.878C15.7452 20.142 15.5762 20.398 15.3962 20.64C14.0822 22.409 12.1582 23.561 9.97822 23.883C9.57422 23.943 9.16222 23.974 8.75622 23.974Z" fill="#959CA5"/>
<path d="M8.75095 21.0009C8.33695 21.0009 8.00095 20.6649 8.00095 20.2509V19.5009H7.25095C6.83695 19.5009 6.50095 19.1649 6.50095 18.7509V12.7509C6.50095 12.3369 6.83695 12.0009 7.25095 12.0009H8.00095V11.2509C8.00095 10.8369 8.33695 10.5009 8.75095 10.5009C9.16494 10.5009 9.50095 10.8369 9.50095 11.2509V12.0009C10.7419 12.0009 11.7509 13.0099 11.7509 14.2509C11.7509 14.8059 11.5409 15.3419 11.1759 15.7509C11.5409 16.1599 11.7509 16.6959 11.7509 17.2509C11.7509 18.4919 10.7419 19.5009 9.50095 19.5009V20.2509C9.50095 20.6649 9.16494 21.0009 8.75095 21.0009ZM9.50095 18.0009C9.91494 18.0009 10.2509 17.6649 10.2509 17.2509C10.2509 16.8369 9.91494 16.5009 9.50095 16.5009H8.00095V18.0009H9.50095ZM9.50095 15.0009C9.91494 15.0009 10.2509 14.6649 10.2509 14.2509C10.2509 13.8369 9.91494 13.5009 9.50095 13.5009H8.00095V15.0009H9.50095ZM3.50094 9.00086C3.23894 9.00086 2.99195 8.86086 2.85794 8.63686L0.607945 4.88686C0.394945 4.53286 0.509945 4.07086 0.864945 3.85786C0.981945 3.78786 1.11494 3.75086 1.25094 3.75086C1.51294 3.75086 1.75994 3.89086 1.89394 4.11486L3.51994 6.82486C3.69295 3.87786 5.62895 1.21886 8.43295 0.196855C8.51595 0.166855 8.60194 0.151855 8.68894 0.151855C9.00294 0.151855 9.28694 0.349855 9.39394 0.644855C9.53494 1.03286 9.33494 1.46486 8.94594 1.60586C6.85394 2.36886 5.35794 4.26086 5.05895 6.44186L6.86494 5.35886C6.98195 5.28886 7.11494 5.25186 7.25095 5.25186C7.51295 5.25186 7.75894 5.39086 7.89395 5.61586C8.10695 5.96986 7.99095 6.43086 7.63695 6.64386L3.88695 8.89386C3.76994 8.96385 3.63694 9.00086 3.50094 9.00086ZM16.3119 23.8509C15.9979 23.8509 15.7149 23.6529 15.6069 23.3579C15.5379 23.1699 15.5469 22.9659 15.6319 22.7849C15.7169 22.6039 15.8669 22.4659 16.0549 22.3969C18.1479 21.6339 19.6429 19.7409 19.9429 17.5609L18.1369 18.6439C18.0209 18.7139 17.8869 18.7509 17.7519 18.7509C17.4899 18.7509 17.2429 18.6119 17.1079 18.3869C17.0049 18.2149 16.9749 18.0139 17.0229 17.8189C17.0719 17.6239 17.1929 17.4609 17.3649 17.3579L21.1149 15.1079C21.2309 15.0379 21.3639 15.0009 21.4999 15.0009C21.7619 15.0009 22.0089 15.1409 22.1439 15.3659L24.3939 19.1159C24.4969 19.2869 24.5269 19.4889 24.4789 19.6839C24.4299 19.8789 24.3089 20.0419 24.1369 20.1449C24.0219 20.2149 23.8879 20.2519 23.7519 20.2519C23.4899 20.2519 23.2429 20.1119 23.1089 19.8879L21.4829 17.1779C21.3109 20.1249 19.3749 22.7839 16.5699 23.8069C16.4859 23.8359 16.3999 23.8509 16.3119 23.8509Z" fill="#959CA5"/>
</g>
<defs>
<clipPath id="clip0">
<rect width="24" height="24" fill="white" transform="translate(0.5)"/>
</clipPath>
</defs>
</svg>
