<svg width="20" height="20" viewBox="0 0 20 20" fill="none" xmlns="http://www.w3.org/2000/svg">
<g clip-path="url(#clip0)">
<path d="M18 13.8377C17.9218 13.7596 17.8159 13.7157 17.7054 13.7157C17.5949 13.7157 17.4889 13.7596 17.4108 13.8377L15.75 15.5111C15.6918 15.5694 15.6523 15.6436 15.6363 15.7244C15.6203 15.8052 15.6286 15.8889 15.6602 15.9649C15.6918 16.041 15.7452 16.106 15.8136 16.1517C15.8821 16.1975 15.9626 16.2219 16.045 16.2219H16.5116C16.546 16.2219 16.5799 16.2303 16.6102 16.2464C16.6406 16.2626 16.6666 16.2859 16.6858 16.3144C16.705 16.343 16.7168 16.3761 16.72 16.4104C16.7232 16.4448 16.7177 16.4794 16.7041 16.5111C16.406 17.082 15.9504 17.5554 15.3914 17.8752C14.8323 18.195 14.1932 18.3477 13.55 18.3152C13.3289 18.3152 13.117 18.403 12.9607 18.5593C12.8044 18.7156 12.7166 18.9276 12.7166 19.1486C12.7166 19.3696 12.8044 19.5815 12.9607 19.7378C13.117 19.8941 13.3289 19.9819 13.55 19.9819C16.025 19.9736 18.0775 18.4136 18.4666 16.3844C18.4762 16.3373 18.5018 16.2951 18.539 16.2647C18.5762 16.2343 18.6228 16.2177 18.6708 16.2177H19.3741C19.4577 16.2186 19.5395 16.1943 19.6091 16.1481C19.6786 16.1018 19.7327 16.0357 19.7642 15.9584C19.7957 15.881 19.8033 15.796 19.7859 15.7143C19.7685 15.6326 19.7269 15.558 19.6666 15.5002L18 13.8377ZM1.58746 6.1319C1.66555 6.20979 1.77134 6.25354 1.88163 6.25357C1.93655 6.25377 1.99095 6.24296 2.04162 6.22178C2.09229 6.20059 2.1382 6.16947 2.17663 6.13023L3.8383 4.46357C3.8973 4.40538 3.93761 4.33093 3.95408 4.24972C3.97055 4.16851 3.96244 4.08423 3.93077 4.00766C3.8991 3.93109 3.84532 3.86569 3.7763 3.81984C3.70728 3.77398 3.62616 3.74975 3.5433 3.75023H3.07663C3.04214 3.75031 3.00818 3.74182 2.97778 3.72553C2.94738 3.70924 2.9215 3.68566 2.90246 3.6569C2.88324 3.62841 2.87148 3.59555 2.86828 3.56133C2.86507 3.52711 2.87052 3.49263 2.88413 3.46107C3.18211 2.8904 3.63746 2.41714 4.1962 2.09737C4.75495 1.77761 5.39366 1.62474 6.03663 1.6569C6.25764 1.6569 6.46961 1.5691 6.62589 1.41282C6.78217 1.25654 6.86996 1.04458 6.86996 0.823568C6.86996 0.602554 6.78217 0.390592 6.62589 0.234312C6.46961 0.0780317 6.25764 -0.00976562 6.03663 -0.00976562C3.56163 -0.00143229 1.50996 1.5569 1.11996 3.58773C1.11053 3.63472 1.08513 3.677 1.04806 3.70738C1.011 3.73776 0.964556 3.75438 0.91663 3.7544H0.212463C0.128832 3.75305 0.046729 3.7769 -0.0231626 3.82285C-0.0930542 3.8688 -0.147499 3.93472 -0.179414 4.01203C-0.211329 4.08934 -0.219236 4.17447 -0.202106 4.25634C-0.184977 4.33821 -0.143604 4.41303 -0.08337 4.47107L1.58746 6.1319ZM8.3333 12.4902C8.33286 12.3246 8.26687 12.1659 8.14975 12.0488C8.03264 11.9317 7.87392 11.8657 7.7083 11.8652H5.62496C5.56971 11.8652 5.51672 11.8872 5.47765 11.9263C5.43858 11.9653 5.41663 12.0183 5.41663 12.0736V12.9069C5.41663 12.9622 5.43858 13.0151 5.47765 13.0542C5.51672 13.0933 5.56971 13.1152 5.62496 13.1152H7.7083C7.87392 13.1148 8.03264 13.0488 8.14975 12.9317C8.26687 12.8146 8.33286 12.6559 8.3333 12.4902ZM7.70663 14.3652H5.6233C5.56804 14.3652 5.51505 14.3872 5.47598 14.4263C5.43691 14.4653 5.41496 14.5183 5.41496 14.5736V15.4069C5.41496 15.4622 5.43691 15.5151 5.47598 15.5542C5.51505 15.5933 5.56804 15.6152 5.6233 15.6152H7.70663C7.87239 15.6152 8.03136 15.5494 8.14857 15.4322C8.26578 15.315 8.33163 15.156 8.33163 14.9902C8.33163 14.8245 8.26578 14.6655 8.14857 14.5483C8.03136 14.4311 7.87239 14.3652 7.70663 14.3652Z" fill="white"/>
<path d="M6.7041 7.50998C5.46797 7.50998 4.2596 7.87653 3.23179 8.56329C2.20398 9.25005 1.4029 10.2262 0.929857 11.3682C0.45681 12.5102 0.333039 13.7669 0.574196 14.9793C0.815354 16.1917 1.41061 17.3053 2.28469 18.1794C3.15876 19.0535 4.27241 19.6487 5.48479 19.8899C6.69717 20.131 7.95384 20.0073 9.09587 19.5342C10.2379 19.0612 11.214 18.2601 11.9008 17.2323C12.5875 16.2045 12.9541 14.9961 12.9541 13.76C12.9523 12.1029 12.2933 10.5142 11.1216 9.34251C9.94985 8.17079 8.36116 7.51174 6.7041 7.50998ZM4.99994 17.4941V17.0775C4.99994 17.0222 4.97799 16.9692 4.93892 16.9302C4.89985 16.8911 4.84686 16.8691 4.7916 16.8691C4.62584 16.8691 4.46687 16.8033 4.34966 16.6861C4.23245 16.5689 4.1666 16.4099 4.1666 16.2441V11.2441C4.1666 11.0784 4.23245 10.9194 4.34966 10.8022C4.46687 10.685 4.62584 10.6191 4.7916 10.6191C4.84686 10.6191 4.89985 10.5972 4.93892 10.5581C4.97799 10.5191 4.99994 10.4661 4.99994 10.4108V9.99414C4.99994 9.82838 5.06578 9.66941 5.18299 9.5522C5.30021 9.43499 5.45918 9.36914 5.62494 9.36914C5.7907 9.36914 5.94967 9.43499 6.06688 9.5522C6.18409 9.66941 6.24994 9.82838 6.24994 9.99414V10.4108C6.24994 10.4661 6.27189 10.5191 6.31096 10.5581C6.35003 10.5972 6.40302 10.6191 6.45827 10.6191H6.87494C6.93019 10.6191 6.98318 10.5972 7.02225 10.5581C7.06132 10.5191 7.08327 10.4661 7.08327 10.4108V9.99414C7.08327 9.82838 7.14912 9.66941 7.26633 9.5522C7.38354 9.43499 7.54251 9.36914 7.70827 9.36914C7.87403 9.36914 8.033 9.43499 8.15021 9.5522C8.26742 9.66941 8.33327 9.82838 8.33327 9.99414V10.5933C8.3334 10.6338 8.34527 10.6734 8.36746 10.7073C8.38965 10.7411 8.4212 10.7678 8.45827 10.7841C8.79171 10.929 9.0757 11.1679 9.27551 11.4716C9.47531 11.7753 9.58226 12.1306 9.58327 12.4941C9.58259 12.9008 9.44785 13.2959 9.19994 13.6183C9.17302 13.6544 9.15848 13.6983 9.15848 13.7433C9.15848 13.7884 9.17302 13.8322 9.19994 13.8683C9.44768 14.1905 9.5824 14.5852 9.58327 14.9916C9.58226 15.3552 9.47531 15.7105 9.27551 16.0142C9.0757 16.3179 8.79171 16.5568 8.45827 16.7016C8.4212 16.7179 8.38965 16.7446 8.36746 16.7785C8.34527 16.8124 8.3334 16.852 8.33327 16.8925V17.4916C8.33327 17.6574 8.26742 17.8164 8.15021 17.9336C8.033 18.0508 7.87403 18.1166 7.70827 18.1166C7.54251 18.1166 7.38354 18.0508 7.26633 17.9336C7.14912 17.8164 7.08327 17.6574 7.08327 17.4916V17.075C7.08327 17.0197 7.06132 16.9667 7.02225 16.9277C6.98318 16.8886 6.93019 16.8666 6.87494 16.8666H6.45827C6.40302 16.8666 6.35003 16.8886 6.31096 16.9277C6.27189 16.9667 6.24994 17.0197 6.24994 17.075V17.4916C6.24994 17.6574 6.18409 17.8164 6.06688 17.9336C5.94967 18.0508 5.7907 18.1166 5.62494 18.1166C5.45918 18.1166 5.30021 18.0508 5.18299 17.9336C5.06578 17.8164 4.99994 17.6574 4.99994 17.4916V17.4941ZM15.6233 9.16081C16.5298 9.16081 17.4159 8.892 18.1696 8.38838C18.9234 7.88476 19.5108 7.16894 19.8577 6.33144C20.2046 5.49395 20.2954 4.57239 20.1185 3.68331C19.9417 2.79423 19.5052 1.97756 18.8642 1.33657C18.2232 0.695579 17.4065 0.259059 16.5174 0.0822102C15.6284 -0.0946388 14.7068 -0.00387347 13.8693 0.343028C13.0318 0.68993 12.316 1.27739 11.8124 2.03111C11.3087 2.78484 11.0399 3.67098 11.0399 4.57748C11.0415 5.79258 11.5249 6.95747 12.3841 7.81668C13.2433 8.67589 14.4082 9.15927 15.6233 9.16081ZM16.6666 1.86914C16.8324 1.86914 16.9913 1.93499 17.1085 2.0522C17.2258 2.16941 17.2916 2.32838 17.2916 2.49414C17.2916 2.6599 17.2258 2.81887 17.1085 2.93608C16.9913 3.05329 16.8324 3.11914 16.6666 3.11914H15.2499C15.1785 3.11892 15.1093 3.14363 15.0541 3.18901C14.999 3.23439 14.9614 3.29759 14.9479 3.36771C14.9343 3.43783 14.9457 3.51047 14.98 3.57311C15.0143 3.63574 15.0694 3.68444 15.1358 3.71081L16.5683 4.28414C16.8717 4.40417 17.1295 4.61673 17.3052 4.89164C17.4809 5.16654 17.5656 5.48982 17.5471 5.81556C17.5287 6.1413 17.4081 6.45295 17.2024 6.70625C16.9968 6.95956 16.7166 7.14164 16.4016 7.22664C16.3576 7.2387 16.3187 7.26488 16.291 7.30116C16.2633 7.33745 16.2483 7.38183 16.2483 7.42748V7.52914C16.2483 7.6949 16.1824 7.85388 16.0652 7.97109C15.948 8.0883 15.789 8.15414 15.6233 8.15414C15.4575 8.15414 15.2985 8.0883 15.1813 7.97109C15.0641 7.85388 14.9983 7.6949 14.9983 7.52914V7.49414C14.9983 7.43889 14.9763 7.3859 14.9372 7.34683C14.8982 7.30776 14.8452 7.28581 14.7899 7.28581H14.5833C14.4175 7.28581 14.2585 7.21996 14.1413 7.10275C14.0241 6.98554 13.9583 6.82657 13.9583 6.66081C13.9583 6.49505 14.0241 6.33608 14.1413 6.21887C14.2585 6.10166 14.4175 6.03581 14.5833 6.03581H15.9949C16.0663 6.03603 16.1356 6.01132 16.1907 5.96594C16.2459 5.92057 16.2835 5.85737 16.297 5.78725C16.3105 5.71713 16.2992 5.64448 16.2649 5.58185C16.2306 5.51921 16.1755 5.47051 16.1091 5.44414L14.6749 4.87164C14.3721 4.751 14.1149 4.53819 13.9396 4.26332C13.7644 3.98844 13.68 3.66542 13.6984 3.33996C13.7169 3.0145 13.8372 2.70307 14.0423 2.44974C14.2475 2.19641 14.5271 2.01399 14.8416 1.92831C14.8866 1.91733 14.9267 1.89158 14.9554 1.85518C14.9841 1.81879 14.9998 1.77383 14.9999 1.72748V1.62581C14.9999 1.46005 15.0658 1.30108 15.183 1.18387C15.3002 1.06666 15.4592 1.00081 15.6249 1.00081C15.7907 1.00081 15.9497 1.06666 16.0669 1.18387C16.1841 1.30108 16.2499 1.46005 16.2499 1.62581V1.66081C16.2499 1.68817 16.2553 1.71526 16.2658 1.74054C16.2763 1.76581 16.2916 1.78878 16.311 1.80812C16.3303 1.82747 16.3533 1.84281 16.3785 1.85328C16.4038 1.86375 16.4309 1.86914 16.4583 1.86914H16.6666Z" fill="white"/>
</g>
<defs>
<clipPath id="clip0">
<rect width="20" height="20" fill="white"/>
</clipPath>
</defs>
</svg>
