<svg width="20" height="20" viewBox="0 0 20 20" fill="none" xmlns="http://www.w3.org/2000/svg">
<path d="M17.3849 13.4679C17.3146 13.3976 17.2193 13.3581 17.1199 13.3581C17.0205 13.3581 16.9251 13.3976 16.8548 13.4679L15.3605 14.9746C15.3082 15.0271 15.2726 15.0939 15.2583 15.1667C15.2439 15.2394 15.2514 15.3148 15.2798 15.3832C15.3082 15.4517 15.3562 15.5102 15.4178 15.5514C15.4794 15.5926 15.5519 15.6146 15.6259 15.6146H16.0458C16.0768 15.6146 16.1072 15.6222 16.1345 15.6367C16.1619 15.6512 16.1852 15.6722 16.2025 15.6979C16.2198 15.7237 16.2304 15.7534 16.2333 15.7843C16.2362 15.8152 16.2313 15.8464 16.219 15.8749C15.9508 16.389 15.5409 16.8153 15.0379 17.1032C14.5349 17.3911 13.9599 17.5286 13.3811 17.4994C13.1823 17.4994 12.9916 17.5784 12.8509 17.7191C12.7103 17.8598 12.6313 18.0507 12.6313 18.2497C12.6313 18.4487 12.7103 18.6395 12.8509 18.7802C12.9916 18.9209 13.1823 19 13.3811 19C15.608 18.9925 17.4547 17.5879 17.8048 15.7609C17.8134 15.7185 17.8364 15.6805 17.8699 15.6531C17.9034 15.6258 17.9453 15.6108 17.9885 15.6108H18.6213C18.6965 15.6116 18.7701 15.5897 18.8327 15.5481C18.8953 15.5065 18.9439 15.447 18.9723 15.3773C19.0006 15.3077 19.0074 15.2311 18.9918 15.1576C18.9761 15.084 18.9387 15.0168 18.8845 14.9648L17.3849 13.4679ZM2.61808 6.5298C2.68834 6.59994 2.78351 6.63933 2.88275 6.63935C2.93216 6.63953 2.98111 6.6298 3.0267 6.61073C3.07229 6.59165 3.11359 6.56363 3.14817 6.5283L4.64322 5.02768C4.69631 4.97529 4.73258 4.90825 4.7474 4.83514C4.76222 4.76202 4.75492 4.68614 4.72642 4.61719C4.69793 4.54825 4.64954 4.48937 4.58745 4.44808C4.52535 4.40679 4.45236 4.38498 4.3778 4.38541H3.95793C3.9269 4.38548 3.89634 4.37783 3.86899 4.36317C3.84164 4.3485 3.81835 4.32727 3.80122 4.30138C3.78393 4.27573 3.77335 4.24613 3.77047 4.21532C3.76758 4.18451 3.77249 4.15347 3.78473 4.12505C4.05283 3.61124 4.46252 3.18513 4.96524 2.89722C5.46796 2.6093 6.04263 2.47167 6.62113 2.50063C6.81999 2.50063 7.01069 2.42157 7.15131 2.28086C7.29192 2.14015 7.37091 1.94931 7.37091 1.75031C7.37091 1.55132 7.29192 1.36047 7.15131 1.21976C7.01069 1.07905 6.81999 1 6.62113 1C4.3943 1.0075 2.54835 2.41059 2.19745 4.2391C2.18897 4.28141 2.16611 4.31947 2.13276 4.34683C2.09941 4.37418 2.05763 4.38914 2.01451 4.38916H1.38095C1.3057 4.38795 1.23183 4.40942 1.16895 4.45079C1.10606 4.49216 1.05708 4.55151 1.02836 4.62112C0.999648 4.69074 0.992534 4.76739 1.00795 4.8411C1.02336 4.91481 1.06058 4.98218 1.11478 5.03443L2.61808 6.5298Z" fill="#623EF8"/>
<path d="M14.5268 9.33149C15.2701 9.33149 15.9966 9.11384 16.6146 8.70606C17.2326 8.29828 17.7143 7.71868 17.9987 7.04056C18.2831 6.36245 18.3575 5.61627 18.2125 4.89638C18.0675 4.1765 17.7096 3.51524 17.1841 2.99623C16.6585 2.47723 15.9889 2.12378 15.26 1.98058C14.531 1.83739 13.7754 1.91088 13.0888 2.19177C12.4021 2.47265 11.8152 2.94831 11.4023 3.5586C10.9893 4.16889 10.7689 4.8864 10.7689 5.62038C10.7702 6.60425 11.1665 7.54746 11.871 8.24315C12.5755 8.93885 13.5306 9.33024 14.5268 9.33149ZM15.3823 3.42746C15.5182 3.42746 15.6485 3.48077 15.7446 3.57568C15.8407 3.67058 15.8947 3.7993 15.8947 3.93352C15.8947 4.06773 15.8407 4.19645 15.7446 4.29136C15.6485 4.38626 15.5182 4.43958 15.3823 4.43958H14.2207C14.1622 4.4394 14.1054 4.45941 14.0602 4.49615C14.015 4.53289 13.9842 4.58406 13.9731 4.64084C13.962 4.69761 13.9713 4.75643 13.9994 4.80715C14.0276 4.85787 14.0727 4.8973 14.1271 4.91865L15.3017 5.38287C15.5504 5.48006 15.7618 5.65217 15.9059 5.87476C16.05 6.09735 16.1193 6.3591 16.1042 6.62285C16.0891 6.88661 15.9902 7.13895 15.8216 7.34405C15.653 7.54915 15.4233 7.69658 15.165 7.76541C15.1289 7.77516 15.097 7.79636 15.0743 7.82574C15.0516 7.85512 15.0393 7.89106 15.0393 7.92802V8.01034C15.0393 8.14455 14.9853 8.27327 14.8892 8.36818C14.7931 8.46308 14.6627 8.5164 14.5268 8.5164C14.3909 8.5164 14.2606 8.46308 14.1645 8.36818C14.0684 8.27327 14.0144 8.14455 14.0144 8.01034V7.982C14.0144 7.93726 13.9964 7.89435 13.9644 7.86272C13.9323 7.83108 13.8889 7.81331 13.8436 7.81331H13.6741C13.5382 7.81331 13.4079 7.76 13.3118 7.66509C13.2157 7.57019 13.1617 7.44147 13.1617 7.30725C13.1617 7.17304 13.2157 7.04432 13.3118 6.94941C13.4079 6.85451 13.5382 6.80119 13.6741 6.80119H14.8316C14.8901 6.80137 14.9469 6.78136 14.9921 6.74462C15.0373 6.70788 15.0681 6.65671 15.0792 6.59993C15.0903 6.54315 15.081 6.48434 15.0529 6.43362C15.0248 6.3829 14.9796 6.34347 14.9252 6.32212L13.7493 5.85857C13.501 5.76089 13.2901 5.58857 13.1464 5.36601C13.0027 5.14345 12.9335 4.8819 12.9487 4.61837C12.9638 4.35485 13.0624 4.10269 13.2306 3.89756C13.3988 3.69244 13.6281 3.54474 13.886 3.47536C13.9229 3.46647 13.9557 3.44563 13.9792 3.41616C14.0028 3.38668 14.0156 3.35028 14.0158 3.31275V3.23043C14.0158 3.09622 14.0698 2.9675 14.1659 2.87259C14.262 2.77769 14.3923 2.72437 14.5282 2.72437C14.6641 2.72437 14.7945 2.77769 14.8906 2.87259C14.9867 2.9675 15.0406 3.09622 15.0406 3.23043V3.25877C15.0406 3.28092 15.0451 3.30286 15.0537 3.32332C15.0622 3.34379 15.0748 3.36239 15.0907 3.37805C15.1065 3.39371 15.1254 3.40614 15.1461 3.41462C15.1668 3.42309 15.189 3.42746 15.2115 3.42746H15.3823Z" fill="#623EF8"/>
<path fill-rule="evenodd" clip-rule="evenodd" d="M7.21401 7.99463C6.20049 7.99463 5.20974 8.29143 4.36704 8.84749C3.52434 9.40356 2.86753 10.1939 2.47967 11.1186C2.09182 12.0433 1.99034 13.0608 2.18807 14.0425C2.38579 15.0242 2.87384 15.9259 3.5905 16.6336C4.30717 17.3414 5.22025 17.8233 6.21428 18.0186C7.20832 18.2139 8.23867 18.1136 9.17503 17.7306C10.1114 17.3476 10.9117 16.699 11.4748 15.8668C12.0379 15.0345 12.3384 14.0561 12.3384 13.0552C12.337 11.7135 11.7966 10.4272 10.8359 9.47842C9.87521 8.52969 8.57264 7.99606 7.21401 7.99463ZM5.81675 15.7414V16.0767C5.81675 16.211 5.87074 16.3397 5.96684 16.4346C6.06294 16.5295 6.19328 16.5828 6.32919 16.5828C6.4651 16.5828 6.59544 16.5295 6.69154 16.4346C6.78764 16.3397 6.84163 16.211 6.84163 16.0767V15.7394C6.84163 15.6946 6.85963 15.6517 6.89166 15.6201C6.9237 15.5885 6.96714 15.5707 7.01245 15.5707H7.35407C7.39937 15.5707 7.44282 15.5885 7.47486 15.6201C7.50689 15.6517 7.52489 15.6946 7.52489 15.7394V16.0767C7.52489 16.211 7.57888 16.3397 7.67498 16.4346C7.77108 16.5295 7.90142 16.5828 8.03733 16.5828C8.17323 16.5828 8.30357 16.5295 8.39968 16.4346C8.49578 16.3397 8.54977 16.211 8.54977 16.0767V15.5916C8.54987 15.5588 8.55961 15.5268 8.5778 15.4993C8.59599 15.4719 8.62186 15.4503 8.65225 15.4371C8.92564 15.3198 9.15849 15.1264 9.32231 14.8805C9.48613 14.6346 9.57382 14.3469 9.57465 14.0525C9.57394 13.7235 9.46348 13.4038 9.26035 13.1429C9.23828 13.1137 9.22636 13.0782 9.22636 13.0417C9.22636 13.0053 9.23828 12.9698 9.26035 12.9405C9.46362 12.6795 9.57409 12.3596 9.57465 12.0303C9.57382 11.7359 9.48613 11.4482 9.32231 11.2023C9.15849 10.9564 8.92564 10.763 8.65225 10.6457C8.62186 10.6325 8.59599 10.6109 8.5778 10.5835C8.55961 10.556 8.54987 10.524 8.54977 10.4912V10.0061C8.54977 9.87183 8.49578 9.74312 8.39968 9.64821C8.30357 9.55331 8.17323 9.49999 8.03733 9.49999C7.90142 9.49999 7.77108 9.55331 7.67498 9.64821C7.57888 9.74312 7.52489 9.87183 7.52489 10.0061V10.3434C7.52489 10.3882 7.50689 10.4311 7.47486 10.4627C7.44282 10.4943 7.39937 10.5121 7.35407 10.5121H7.01245C6.96714 10.5121 6.9237 10.4943 6.89166 10.4627C6.85963 10.4311 6.84163 10.3882 6.84163 10.3434V10.0061C6.84163 9.87183 6.78764 9.74312 6.69154 9.64821C6.59544 9.55331 6.4651 9.49999 6.32919 9.49999C6.19328 9.49999 6.06294 9.55331 5.96684 9.64821C5.87074 9.74312 5.81675 9.87183 5.81675 10.0061V10.3434C5.81675 10.3882 5.79875 10.4311 5.76672 10.4627C5.73469 10.4943 5.69124 10.5121 5.64594 10.5121C5.51003 10.5121 5.37969 10.5654 5.28359 10.6603C5.18749 10.7552 5.1335 10.884 5.1335 11.0182V15.0667C5.1335 15.2009 5.18749 15.3296 5.28359 15.4245C5.37969 15.5194 5.51003 15.5727 5.64594 15.5727C5.69124 15.5727 5.73469 15.5905 5.76672 15.6221C5.79875 15.6538 5.81675 15.6967 5.81675 15.7414ZM8.68755 12.2545C8.68715 12.1054 8.62778 11.9625 8.52241 11.857C8.41703 11.7516 8.27423 11.6922 8.12521 11.6918H6.25077C6.20106 11.6918 6.15338 11.7115 6.11823 11.7467C6.08308 11.7819 6.06333 11.8296 6.06333 11.8793V12.6297C6.06333 12.6794 6.08308 12.7271 6.11823 12.7623C6.15338 12.7975 6.20106 12.8172 6.25077 12.8172H8.12521C8.27423 12.8168 8.41703 12.7574 8.52241 12.652C8.62778 12.5465 8.68715 12.4036 8.68755 12.2545ZM8.12371 13.9427H6.24927C6.19956 13.9427 6.15188 13.9625 6.11673 13.9976C6.08158 14.0328 6.06183 14.0805 6.06183 14.1303V14.8806C6.06183 14.9303 6.08158 14.9781 6.11673 15.0132C6.15188 15.0484 6.19956 15.0682 6.24927 15.0682H8.12371C8.27285 15.0682 8.41588 15.0089 8.52134 14.9033C8.6268 14.7978 8.68605 14.6547 8.68605 14.5054C8.68605 14.3562 8.6268 14.2131 8.52134 14.1075C8.41588 14.002 8.27285 13.9427 8.12371 13.9427Z" fill="#F2994A"/>
</svg>
