<svg width="24" height="24" viewBox="0 0 24 24" fill="none" xmlns="http://www.w3.org/2000/svg">
<path d="M2.25 20.625C1.009 20.625 0 19.616 0 18.375V2.625C0 1.384 1.009 0.375 2.25 0.375H20.25C21.491 0.375 22.5 1.384 22.5 2.625V10.875C22.5 11.289 22.164 11.625 21.75 11.625C21.336 11.625 21 11.289 21 10.875V6.375H1.5V18.375C1.5 18.789 1.836 19.125 2.25 19.125H8.25C8.664 19.125 9 19.461 9 19.875C9 20.289 8.664 20.625 8.25 20.625H2.25ZM21 4.875V2.625C21 2.211 20.664 1.875 20.25 1.875H2.25C1.836 1.875 1.5 2.211 1.5 2.625V4.875H21Z" fill="white"/>
<path d="M6.188 17.625C5.774 17.625 5.438 17.289 5.438 16.875V16.521C4.764 16.367 4.155 15.978 3.732 15.423C3.482 15.094 3.545 14.622 3.874 14.372C4.006 14.272 4.163 14.218 4.328 14.218C4.564 14.218 4.782 14.326 4.925 14.514C5.202 14.878 5.64 15.096 6.096 15.096C6.116 15.096 6.137 15.096 6.157 15.095C6.932 15.095 7.5 14.674 7.5 14.298C7.5 13.922 6.939 13.502 6.188 13.502C4.637 13.502 3.375 12.47 3.375 11.201C3.375 10.149 4.225 9.258 5.438 8.988V8.625C5.438 8.211 5.774 7.875 6.188 7.875C6.602 7.875 6.938 8.211 6.938 8.625V8.978C7.612 9.132 8.221 9.52 8.643 10.074C8.893 10.403 8.83 10.875 8.501 11.125C8.369 11.225 8.212 11.278 8.047 11.278C7.811 11.278 7.593 11.17 7.45 10.982C7.173 10.619 6.736 10.402 6.279 10.402H6.245C6.226 10.404 6.208 10.406 6.189 10.406C6.179 10.406 6.166 10.405 6.154 10.404C5.459 10.421 4.876 10.782 4.876 11.2C4.876 11.578 5.438 12.001 6.189 12.001C7.74 12.001 9.001 13.031 9.001 14.297C9.001 15.349 8.152 16.24 6.939 16.509V16.874C6.938 17.289 6.602 17.625 6.188 17.625ZM12.75 23.625C11.509 23.625 10.5 22.616 10.5 21.375V15.375C10.5 14.134 11.509 13.125 12.75 13.125H21.75C22.991 13.125 24 14.134 24 15.375V21.375C24 22.616 22.991 23.625 21.75 23.625H12.75ZM12 21.375C12 21.789 12.336 22.125 12.75 22.125H21.75C22.164 22.125 22.5 21.789 22.5 21.375V17.625H12V21.375ZM22.5 16.125V15.375C22.5 14.961 22.164 14.625 21.75 14.625H12.75C12.336 14.625 12 14.961 12 15.375V16.125H22.5Z" fill="white"/>
<path d="M18.75 20.625C18.336 20.625 18 20.289 18 19.875C18 19.461 18.336 19.125 18.75 19.125H20.25C20.664 19.125 21 19.461 21 19.875C21 20.289 20.664 20.625 20.25 20.625H18.75Z" fill="white"/>
</svg>
