<svg width="24" height="24" viewBox="0 0 24 24" fill="none" xmlns="http://www.w3.org/2000/svg">
<path d="M5.25 7.5C3.182 7.5 1.5 5.818 1.5 3.75C1.5 1.682 3.182 0 5.25 0C7.318 0 9 1.682 9 3.75C9 5.818 7.318 7.5 5.25 7.5ZM5.25 1.5C4.009 1.5 3 2.509 3 3.75C3 4.991 4.009 6 5.25 6C6.491 6 7.5 4.991 7.5 3.75C7.5 2.509 6.491 1.5 5.25 1.5ZM3 24C2.613 24 2.292 23.71 2.254 23.325L1.571 16.5H0.75C0.336 16.5 0 16.164 0 15.75V12.75C0 9.855 2.355 7.5 5.25 7.5C8.145 7.5 10.5 9.855 10.5 12.75V15.75C10.5 16.164 10.164 16.5 9.75 16.5H8.929L8.247 23.325C8.208 23.71 7.887 24 7.5 24H3ZM6.821 22.5L7.503 15.675C7.542 15.29 7.863 15 8.25 15H9V12.75C9 10.682 7.318 9 5.25 9C3.182 9 1.5 10.682 1.5 12.75V15H2.25C2.637 15 2.958 15.29 2.996 15.675L3.679 22.5H6.821ZM17.25 11.25C16.836 11.25 16.5 10.914 16.5 10.5H15.75C15.336 10.5 15 10.164 15 9.75C15 9.336 15.336 9 15.75 9H17.781C18.026 9 18.242 8.854 18.332 8.628C18.391 8.481 18.389 8.32 18.326 8.175C18.264 8.029 18.149 7.917 18.002 7.858L15.938 7.033C15.14 6.712 14.626 5.95 14.625 5.093C14.625 4.534 14.842 4.009 15.237 3.614C15.581 3.27 16.023 3.06 16.5 3.011V3C16.5 2.586 16.836 2.25 17.25 2.25C17.664 2.25 18 2.586 18 3H18.75C19.164 3 19.5 3.336 19.5 3.75C19.5 4.164 19.164 4.5 18.75 4.5H17.313C17.291 4.503 17.271 4.504 17.25 4.504C17.228 4.504 17.207 4.502 17.187 4.5H16.718C16.56 4.5 16.412 4.562 16.3 4.674C16.188 4.786 16.127 4.934 16.127 5.092C16.127 5.335 16.273 5.55 16.498 5.641L18.56 6.465C19.079 6.673 19.486 7.07 19.706 7.584C19.926 8.098 19.933 8.666 19.725 9.185C19.432 9.916 18.77 10.41 18 10.489V10.5C18 10.914 17.664 11.25 17.25 11.25Z" fill="white"/>
<path d="M17.25 13.5C13.528 13.5 10.5 10.472 10.5 6.75C10.5 3.028 13.528 0 17.25 0C20.972 0 24 3.028 24 6.75C24 10.472 20.972 13.5 17.25 13.5ZM17.25 1.5C14.355 1.5 12 3.855 12 6.75C12 9.645 14.355 12 17.25 12C20.145 12 22.5 9.645 22.5 6.75C22.5 3.855 20.145 1.5 17.25 1.5Z" fill="white"/>
</svg>
