<svg width="16" height="17" viewBox="0 0 16 17" fill="none" xmlns="http://www.w3.org/2000/svg">
<g clip-path="url(#clip0)">
<path d="M4.50324 12.4992C4.36991 12.4992 4.24391 12.4472 4.14991 12.3525C3.95524 12.1579 3.95524 11.8405 4.14991 11.6452L11.1499 4.6452C11.2446 4.55054 11.3699 4.49854 11.5032 4.49854C11.6366 4.49854 11.7626 4.55054 11.8566 4.6452C11.9512 4.7392 12.0032 4.8652 12.0032 4.99854C12.0032 5.13187 11.9512 5.25787 11.8566 5.35187L4.85657 12.3519C4.76191 12.4472 4.63657 12.4992 4.50324 12.4992Z" fill="white"/>
<path d="M3.50207 16.502C2.56741 16.502 1.68807 16.138 1.02741 15.4766C-0.33726 14.112 -0.33726 11.892 1.02741 10.5266L2.52741 9.02663C3.17541 8.3793 4.07207 8.00863 4.98807 8.00863C5.05474 8.00863 5.12141 8.01063 5.18807 8.01463C5.46341 8.03063 5.67407 8.2673 5.65874 8.54263C5.64341 8.80663 5.42474 9.01396 5.16074 9.01396C5.15607 9.01396 5.13541 9.0133 5.13074 9.0133C5.08207 9.01063 5.03341 9.0093 4.98541 9.0093C4.33541 9.0093 3.69741 9.27396 3.23541 9.73463L1.73541 11.2346C0.76074 12.2093 0.76074 13.7953 1.73541 14.77C2.20741 15.242 2.83541 15.502 3.50341 15.502C4.17141 15.502 4.79874 15.242 5.27141 14.77L6.77141 13.27C7.27007 12.7706 7.53274 12.0793 7.49274 11.374C7.48541 11.2406 7.53007 11.112 7.61874 11.0126C7.70741 10.9126 7.83007 10.854 7.96341 10.846C7.97207 10.8453 7.98341 10.8453 7.99474 10.8453C8.25807 10.8453 8.47607 11.0526 8.49141 11.3166C8.54874 12.306 8.17941 13.2753 7.47941 13.9766L5.97941 15.4766C5.31607 16.138 4.43674 16.502 3.50207 16.502ZM11.0161 8.9893C10.9494 8.9893 10.8834 8.9873 10.8167 8.9833C10.5414 8.9673 10.3307 8.73063 10.3467 8.4553C10.3614 8.1913 10.5814 7.98396 10.8474 7.98396C10.8514 7.98396 10.8681 7.98463 10.8727 7.98463C10.9221 7.9873 10.9694 7.98863 11.0167 7.98863C11.6701 7.98863 12.3094 7.72396 12.7714 7.2633L14.2714 5.7633C14.7434 5.2913 15.0034 4.6633 15.0034 3.9953C15.0034 3.3273 14.7434 2.69996 14.2714 2.2273C13.8001 1.75596 13.1721 1.49663 12.5034 1.49663C11.8347 1.49663 11.2067 1.75596 10.7354 2.2273L9.23541 3.7273C8.73807 4.2273 8.47674 4.91796 8.51741 5.62263C8.52541 5.75596 8.48074 5.88396 8.39207 5.98396C8.30341 6.08396 8.18074 6.1433 8.04741 6.15063C8.04274 6.15063 8.02274 6.1513 8.01807 6.1513C7.75407 6.1513 7.53474 5.94463 7.51941 5.68063C7.46141 4.69196 7.82941 3.72263 8.52741 3.02063L10.0281 1.51996C10.6887 0.858629 11.5681 0.494629 12.5027 0.494629C13.4374 0.494629 14.3167 0.858629 14.9774 1.51996C15.6387 2.18063 16.0027 3.05996 16.0027 3.99463C16.0027 4.9293 15.6387 5.80863 14.9774 6.4693L13.4774 7.9693C12.8287 8.61796 11.9321 8.9893 11.0161 8.9893Z" fill="white"/>
</g>
<defs>
<clipPath id="clip0">
<rect width="16" height="16" fill="white" transform="translate(0 0.5)"/>
</clipPath>
</defs>
</svg>
