<svg width="12" height="12" viewBox="0 0 12 12" fill="none" xmlns="http://www.w3.org/2000/svg">
<path d="M11.1562 11.5C11.0646 11.5 10.978 11.4643 10.9133 11.3992L6 6.4865L1.08667 11.3992C1.02158 11.4643 0.935417 11.5 0.84375 11.5C0.752083 11.5 0.665458 11.4643 0.600833 11.3992C0.467 11.2653 0.467 11.0472 0.600833 10.9129L5.51417 5.99977L0.600833 1.0871C0.53575 1.02248 0.5 0.935857 0.5 0.844194C0.5 0.752531 0.53575 0.66591 0.600833 0.601287C0.665458 0.536207 0.752083 0.500458 0.84375 0.500458C0.935417 0.500458 1.02204 0.536207 1.08667 0.601287L6 5.51396L10.9133 0.600829C10.9784 0.535749 11.0646 0.5 11.1562 0.5C11.2479 0.5 11.3345 0.535749 11.3992 0.600829C11.4643 0.66591 11.5 0.752531 11.5 0.844194C11.5 0.935857 11.4643 1.02248 11.3992 1.0871L6.48583 6.00023L11.3992 10.9134C11.533 11.0472 11.533 11.2653 11.3992 11.3996C11.3345 11.4643 11.2479 11.5 11.1562 11.5Z" fill="#FF5151"/>
</svg>
