<svg width="20" height="20" viewBox="0 0 20 20" fill="none" xmlns="http://www.w3.org/2000/svg">
<path d="M0.661159 0.654811C0.504868 0.811055 0.417039 1.02298 0.416992 1.24398V10.4231C0.416992 10.6442 0.50479 10.8561 0.66107 11.0124C0.81735 11.1687 1.02931 11.2565 1.25033 11.2565H7.91699C8.13801 11.2565 8.34997 11.1687 8.50625 11.0124C8.66253 10.8561 8.75033 10.6442 8.75033 10.4231V1.25648C8.75033 1.03546 8.66253 0.823503 8.50625 0.667222C8.34997 0.510942 8.13801 0.423145 7.91699 0.423145L1.25033 0.410645C1.02933 0.410692 0.817403 0.49852 0.661159 0.654811ZM18.7503 0.410645L12.0837 0.422311C11.8626 0.422311 11.6507 0.510109 11.4944 0.666389C11.3381 0.822669 11.2503 1.03463 11.2503 1.25564V5.42231C11.2503 5.64332 11.3381 5.85529 11.4944 6.01157C11.6507 6.16785 11.8626 6.25564 12.0837 6.25564H18.7503C18.9713 6.25564 19.1833 6.16785 19.3396 6.01157C19.4959 5.85529 19.5837 5.64332 19.5837 5.42231V1.24398C19.5837 1.02296 19.4959 0.811002 19.3396 0.654722C19.1833 0.498442 18.9713 0.410645 18.7503 0.410645ZM8.50616 19.3448C8.66245 19.1886 8.75028 18.9766 8.75033 18.7556V14.589C8.75033 14.368 8.66253 14.156 8.50625 13.9997C8.34997 13.8434 8.13801 13.7556 7.91699 13.7556H1.25033C1.02931 13.7556 0.81735 13.8434 0.66107 13.9997C0.50479 14.156 0.416992 14.368 0.416992 14.589V18.7431C0.416992 18.9642 0.50479 19.1761 0.66107 19.3324C0.81735 19.4887 1.02931 19.5765 1.25033 19.5765L7.91699 19.5881C8.13787 19.5883 8.34978 19.5008 8.50616 19.3448ZM18.7503 8.75648H12.0837C11.8626 8.75648 11.6507 8.84427 11.4944 9.00055C11.3381 9.15683 11.2503 9.3688 11.2503 9.58981V18.7565C11.2503 18.9775 11.3381 19.1895 11.4944 19.3457C11.6507 19.502 11.8626 19.5898 12.0837 19.5898L18.7503 19.5781C18.9713 19.5781 19.1833 19.4903 19.3396 19.3341C19.4959 19.1778 19.5837 18.9658 19.5837 18.7448V9.58981C19.5837 9.3688 19.4959 9.15683 19.3396 9.00055C19.1833 8.84427 18.9713 8.75648 18.7503 8.75648Z" fill="#406CFF"/>
</svg>
