<svg width="40" height="40" viewBox="0 0 40 40" fill="none" xmlns="http://www.w3.org/2000/svg">
<path d="M13.75 23.75C10.6483 23.75 8.125 21.2267 8.125 18.125C8.125 15.0233 10.6483 12.5 13.75 12.5C16.8517 12.5 19.375 15.0233 19.375 18.125C19.375 21.2267 16.8517 23.75 13.75 23.75ZM13.75 15C12.0267 15 10.625 16.4017 10.625 18.125C10.625 19.8483 12.0267 21.25 13.75 21.25C15.4733 21.25 16.875 19.8483 16.875 18.125C16.875 16.4017 15.4733 15 13.75 15Z" fill="#959CA5"/>
<path d="M6.25 32.5C5.56 32.5 5 31.94 5 31.25C5 26.425 8.925 22.5 13.75 22.5C18.575 22.5 22.5 26.425 22.5 31.25C22.5 31.94 21.94 32.5 21.25 32.5H6.25ZM19.8733 30C19.2867 27.1467 16.72 25 13.75 25C10.78 25 8.21333 27.1467 7.62667 30H19.8733ZM23.75 20C23.06 20 22.5 19.44 22.5 18.75C22.5 18.06 23.06 17.5 23.75 17.5H31.25C31.94 17.5 32.5 18.06 32.5 18.75C32.5 19.44 31.94 20 31.25 20H23.75ZM23.75 25C23.06 25 22.5 24.44 22.5 23.75C22.5 23.06 23.06 22.5 23.75 22.5H33.75C34.44 22.5 35 23.06 35 23.75C35 24.44 34.44 25 33.75 25H23.75Z" fill="#959CA5"/>
<path d="M31.25 40C30.56 40 30 39.44 30 38.75C30 38.06 29.44 37.5 28.75 37.5C28.06 37.5 27.5 38.06 27.5 38.75C27.5 39.44 26.94 40 26.25 40H13.75C13.06 40 12.5 39.44 12.5 38.75C12.5 38.06 11.94 37.5 11.25 37.5C10.56 37.5 10 38.06 10 38.75C10 39.44 9.44 40 8.75 40H3.75C1.68167 40 0 38.3183 0 36.25V11.25C0 9.18167 1.68167 7.5 3.75 7.5H36.25C38.3183 7.5 40 9.18167 40 11.25V36.25C40 38.3183 38.3183 40 36.25 40H31.25ZM36.25 37.5C36.94 37.5 37.5 36.94 37.5 36.25V11.25C37.5 10.56 36.94 10 36.25 10H3.75C3.06 10 2.5 10.56 2.5 11.25V36.25C2.5 36.94 3.06 37.5 3.75 37.5H7.715C8.23667 36.025 9.65 35 11.25 35C12.85 35 14.2633 36.025 14.785 37.5H25.2133C25.7367 36.025 27.15 35 28.75 35C30.35 35 31.7633 36.025 32.2867 37.5H36.25ZM38.75 5C38.06 5 37.5 4.44 37.5 3.75C37.5 3.06 36.94 2.5 36.25 2.5H3.75C3.06 2.5 2.5 3.06 2.5 3.75C2.5 4.44 1.94 5 1.25 5C0.56 5 0 4.44 0 3.75C0 1.68167 1.68167 0 3.75 0H36.25C38.3183 0 40 1.68167 40 3.75C40 4.44 39.44 5 38.75 5Z" fill="#959CA5"/>
</svg>
