<svg width="45" height="45" viewBox="0 0 45 45" fill="none" xmlns="http://www.w3.org/2000/svg">
<path fill-rule="evenodd" clip-rule="evenodd" d="M22.25 2.5C11.3424 2.5 2.5 11.3424 2.5 22.25C2.5 33.1576 11.3424 42 22.25 42C33.1576 42 42 33.1576 42 22.25C42 11.3424 33.1576 2.5 22.25 2.5ZM0 22.25C0 9.96166 9.96166 0 22.25 0C34.5383 0 44.5 9.96166 44.5 22.25C44.5 34.5383 34.5383 44.5 22.25 44.5C9.96166 44.5 0 34.5383 0 22.25Z" fill="#51D375"/>
<path d="M23.5 9.125C23.5 8.43464 22.9404 7.875 22.25 7.875C21.5596 7.875 21 8.43464 21 9.125V10.5H20.3836C19.0029 10.501 17.6656 10.9823 16.601 11.8615C15.5364 12.7407 14.8108 13.9629 14.5488 15.3185C14.2868 16.6741 14.5047 18.0786 15.165 19.2912C15.8253 20.5038 16.887 21.4488 18.1679 21.9641L18.1705 21.9652L25.3946 24.8527C26.1385 25.1504 26.7555 25.698 27.1395 26.4013C27.5235 27.1047 27.6504 27.92 27.4984 28.7069C27.3463 29.4937 26.9249 30.2031 26.3065 30.7128C25.6881 31.2226 24.9114 31.5009 24.11 31.5H17C16.3096 31.5 15.75 32.0596 15.75 32.75C15.75 33.4404 16.3096 34 17 34H21V35.375C21 36.0654 21.5596 36.625 22.25 36.625C22.9404 36.625 23.5 36.0654 23.5 35.375V34H24.107C25.4897 34.0016 26.8297 33.5214 27.8967 32.6419C28.9636 31.7624 29.6907 30.5387 29.953 29.1811C30.2153 27.8235 29.9963 26.417 29.3338 25.2034C28.6712 23.9898 27.6062 23.0448 26.3224 22.5313L19.1011 19.6448L19.0999 19.6444C18.358 19.3455 17.7431 18.798 17.3606 18.0956C16.9778 17.3927 16.8515 16.5786 17.0034 15.7929C17.1553 15.0071 17.5758 14.2987 18.1929 13.7891C18.8099 13.2796 19.5851 13.0006 20.3854 13H22.0623C22.1235 13.0092 22.1862 13.014 22.25 13.014C22.3138 13.014 22.3765 13.0092 22.4377 13H27.5C28.1904 13 28.75 12.4404 28.75 11.75C28.75 11.0596 28.1904 10.5 27.5 10.5H23.5V9.125Z" fill="#51D375"/>
</svg>
