<svg width="16" height="16" viewBox="0 0 16 16" fill="none" xmlns="http://www.w3.org/2000/svg">
<g clip-path="url(#clip0)">
<path d="M0.498054 16C0.366054 16 0.237387 15.9467 0.144054 15.8533C0.0200539 15.7293 -0.0299461 15.546 0.0133872 15.376L1.19339 10.7727C1.19739 10.758 1.20739 10.7307 1.21339 10.7167C1.21405 10.714 1.21805 10.7033 1.22339 10.692C1.25072 10.632 1.28339 10.5833 1.32405 10.5433L11.0081 0.859333C11.5581 0.306667 12.2914 0.002 13.0734 0C13.8587 0 14.5914 0.302667 15.1441 0.852667L15.1634 0.872C15.7107 1.43267 16.0061 2.17067 15.9974 2.95267C15.9881 3.73467 15.6761 4.46533 15.1174 5.01067L5.45472 14.6733C5.41339 14.7147 5.36339 14.7487 5.30072 14.776C5.26872 14.79 5.24872 14.798 5.22672 14.804L0.621387 15.9853C0.58072 15.9953 0.539387 16 0.498054 16ZM1.19205 14.806L4.13205 14.052L1.94472 11.8687L1.19205 14.806ZM5.10405 13.6093L13.7841 4.92933L11.0681 2.21333L2.38605 10.896L5.10405 13.6093ZM14.4901 4.22133C15.1774 3.47133 15.1667 2.30667 14.4507 1.57333L14.4374 1.56C14.0747 1.19933 13.5921 1 13.0794 1V0.75L13.0787 1C12.5894 1.00133 12.1314 1.18067 11.7761 1.508L14.4901 4.22133Z" fill="#FF5151"/>
</g>
<defs>
<clipPath id="clip0">
<rect width="16" height="16" fill="white"/>
</clipPath>
</defs>
</svg>
