<svg width="24" height="24" viewBox="0 0 24 24" fill="none" xmlns="http://www.w3.org/2000/svg">
<path d="M17.25 24C13.528 24 10.5 20.972 10.5 17.25C10.5 13.528 13.528 10.5 17.25 10.5C20.972 10.5 24 13.528 24 17.25C24 20.972 20.972 24 17.25 24ZM17.25 12C14.355 12 12 14.355 12 17.25C12 20.145 14.355 22.5 17.25 22.5C20.145 22.5 22.5 20.145 22.5 17.25C22.5 14.355 20.145 12 17.25 12Z" fill="white"/>
<path d="M16.417 20.428C16.089 20.428 15.777 20.324 15.515 20.126C15.458 20.083 15.406 20.038 15.357 19.989L13.858 18.49C13.566 18.198 13.566 17.722 13.858 17.429C14 17.287 14.188 17.209 14.388 17.209C14.588 17.209 14.777 17.287 14.918 17.429L16.418 18.929L19.324 15.055C19.465 14.867 19.689 14.755 19.924 14.755C20.087 14.755 20.242 14.807 20.373 14.904C20.705 15.153 20.772 15.624 20.524 15.955L17.619 19.828C17.336 20.204 16.887 20.428 16.417 20.428ZM2.25 16.5C1.009 16.5 0 15.491 0 14.25V2.25C0 1.746 0.164 1.269 0.476 0.87C0.483 0.859 0.491 0.848 0.498 0.839C0.504 0.831 0.513 0.821 0.521 0.812C0.954 0.294 1.582 0 2.25 0H20.25C20.921 0 21.551 0.296 21.981 0.814C21.991 0.824 22 0.836 22.007 0.845C22.013 0.852 22.019 0.862 22.025 0.871C22.336 1.27 22.5 1.746 22.5 2.25V9C22.5 9.414 22.164 9.75 21.75 9.75C21.336 9.75 21 9.414 21 9V2.562L13.724 8.158C13.02 8.7 12.141 8.999 11.25 8.999C10.359 8.999 9.48 8.7 8.776 8.158L1.5 2.562V14.25C1.5 14.664 1.836 15 2.25 15H8.25C8.664 15 9 15.336 9 15.75C9 16.164 8.664 16.5 8.25 16.5H2.25ZM9.69 6.969C10.134 7.311 10.688 7.499 11.25 7.499C11.812 7.499 12.366 7.311 12.809 6.969L19.921 1.5H2.579L9.69 6.969Z" fill="white"/>
</svg>
