<svg width="24" height="24" viewBox="0 0 24 24" fill="none" xmlns="http://www.w3.org/2000/svg">
<path d="M17.25 24C13.528 24 10.5 20.972 10.5 17.25C10.5 13.528 13.528 10.5 17.25 10.5C20.972 10.5 24 13.528 24 17.25C24 20.972 20.972 24 17.25 24ZM17.25 12C14.355 12 12 14.355 12 17.25C12 20.145 14.355 22.5 17.25 22.5C20.145 22.5 22.5 20.145 22.5 17.25C22.5 14.355 20.145 12 17.25 12Z" fill="white"/>
<path d="M19.5 20.25C19.3 20.25 19.111 20.172 18.97 20.03L17.25 18.31L15.53 20.03C15.388 20.172 15.2 20.25 15 20.25C14.8 20.25 14.611 20.172 14.47 20.03C14.178 19.738 14.178 19.262 14.47 18.969L16.19 17.249L14.47 15.529C14.178 15.237 14.178 14.761 14.47 14.468C14.612 14.326 14.8 14.248 15 14.248C15.2 14.248 15.389 14.326 15.53 14.468L17.25 16.188L18.97 14.468C19.112 14.326 19.3 14.248 19.5 14.248C19.7 14.248 19.889 14.326 20.03 14.468C20.322 14.76 20.322 15.236 20.03 15.529L18.31 17.249L20.03 18.969C20.322 19.261 20.322 19.737 20.03 20.03C19.889 20.172 19.7 20.25 19.5 20.25ZM2.25 16.5C1.009 16.5 0 15.491 0 14.25V2.25C0 1.746 0.164 1.269 0.476 0.87C0.483 0.859 0.491 0.848 0.498 0.839C0.504 0.831 0.513 0.821 0.521 0.812C0.954 0.294 1.582 0 2.25 0H20.25C20.921 0 21.551 0.296 21.981 0.814C21.991 0.824 22 0.836 22.007 0.845C22.013 0.852 22.019 0.862 22.025 0.871C22.336 1.27 22.5 1.746 22.5 2.25V9C22.5 9.414 22.164 9.75 21.75 9.75C21.336 9.75 21 9.414 21 9V2.562L13.724 8.158C13.02 8.7 12.141 8.999 11.25 8.999C10.359 8.999 9.48 8.7 8.776 8.158L1.5 2.562V14.25C1.5 14.664 1.836 15 2.25 15H8.25C8.664 15 9 15.336 9 15.75C9 16.164 8.664 16.5 8.25 16.5H2.25ZM9.69 6.969C10.134 7.311 10.688 7.499 11.25 7.499C11.812 7.499 12.366 7.311 12.809 6.969L19.921 1.5H2.579L9.69 6.969Z" fill="white"/>
</svg>
