<svg width="24" height="24" viewBox="0 0 24 24" fill="none" xmlns="http://www.w3.org/2000/svg">
<path d="M2.25 24C1.009 24 0 22.991 0 21.75V2.25C0 1.009 1.009 0 2.25 0H21.75C22.991 0 24 1.009 24 2.25V21.75C24 22.991 22.991 24 21.75 24H2.25ZM2.25 1.5C1.836 1.5 1.5 1.836 1.5 2.25V21.75C1.5 22.164 1.836 22.5 2.25 22.5H21.75C22.164 22.5 22.5 22.164 22.5 21.75V2.25C22.5 1.836 22.164 1.5 21.75 1.5H2.25Z" fill="#959CA5"/>
<path d="M12 20.25C7.451 20.25 3.75 16.549 3.75 12C3.75 7.451 7.451 3.75 12 3.75C16.549 3.75 20.25 7.451 20.25 12C20.25 16.549 16.549 20.25 12 20.25ZM12 5.25C8.278 5.25 5.25 8.278 5.25 12C5.25 15.722 8.278 18.75 12 18.75C15.722 18.75 18.75 15.722 18.75 12C18.75 8.278 15.722 5.25 12 5.25Z" fill="#959CA5"/>
<path d="M12 12.75C11.586 12.75 11.25 12.414 11.25 12V7.5C11.25 7.086 11.586 6.75 12 6.75C12.414 6.75 12.75 7.086 12.75 7.5V11.25H16.5C16.914 11.25 17.25 11.586 17.25 12C17.25 12.414 16.914 12.75 16.5 12.75H12Z" fill="#959CA5"/>
</svg>
