<svg width="24" height="24" viewBox="0 0 24 24" fill="none" xmlns="http://www.w3.org/2000/svg">
<path d="M4.917 19.4989H0.75C0.336 19.4989 0 19.1629 0 18.7489C0 18.3349 0.336 17.9989 0.75 17.9989H3.387C2.125 16.1859 1.463 14.0049 1.512 11.7789C1.573 8.97388 2.723 6.35988 4.749 4.42088C6.713 2.54088 9.293 1.50488 12.014 1.50488C13.402 1.50488 14.757 1.77588 16.041 2.30888C16.226 2.38588 16.37 2.52988 16.447 2.71488C16.523 2.89988 16.523 3.10388 16.446 3.28888C16.329 3.56988 16.057 3.75088 15.753 3.75088C15.654 3.75088 15.557 3.73188 15.465 3.69288C14.365 3.23588 13.204 3.00388 12.014 3.00388C9.682 3.00388 7.47 3.89188 5.786 5.50388C4.049 7.16688 3.063 9.40688 3.011 11.8109C2.971 13.6549 3.494 15.4509 4.5 16.9689V14.2479C4.5 13.8339 4.836 13.4979 5.25 13.4979C5.664 13.4979 6 13.8349 6 14.2489V18.7489C6 19.1629 5.664 19.4989 5.25 19.4989H5.012C4.996 19.5009 4.981 19.5019 4.967 19.5019C4.955 19.5019 4.934 19.4999 4.917 19.4989ZM11.995 22.5009C10.603 22.5009 9.245 22.2289 7.957 21.6929C7.772 21.6159 7.628 21.4719 7.552 21.2859C7.476 21.1009 7.476 20.8969 7.553 20.7119C7.67 20.4309 7.942 20.2499 8.246 20.2499C8.345 20.2499 8.441 20.2689 8.533 20.3069C9.638 20.7669 10.802 21.0009 11.995 21.0009C14.331 21.0009 16.545 20.1099 18.229 18.4929C19.964 16.8279 20.947 14.5869 20.996 12.1829C21.034 10.3379 20.508 8.54288 19.499 7.02488V9.74888C19.499 10.1629 19.163 10.4989 18.749 10.4989C18.335 10.4989 18 10.1619 18 9.74888V5.24888C18 4.83488 18.336 4.49888 18.75 4.49888H23.25C23.664 4.49888 24 4.83488 24 5.24888C24 5.66288 23.664 5.99888 23.25 5.99888H20.615C21.878 7.80988 22.542 9.98888 22.497 12.2139C22.439 15.0179 21.293 17.6329 19.269 19.5759C17.303 21.4619 14.72 22.5009 11.995 22.5009Z" fill="#959CA5"/>
</svg>
