<svg width="17" height="16" viewBox="0 0 17 16" fill="none" xmlns="http://www.w3.org/2000/svg">
<g clip-path="url(#clip0)">
<path d="M13.5 11.3315C13.3667 11.3315 13.2407 11.2795 13.1467 11.1849C13.0527 11.0902 13 10.9649 13 10.8315C13 10.6982 13.052 10.5722 13.1467 10.4782L14.7933 8.83154H1C0.724 8.83154 0.5 8.60754 0.5 8.33154C0.5 8.05554 0.724 7.83154 1 7.83154H14.7927L13.146 6.18488C13.0513 6.09088 12.9993 5.96488 12.9993 5.83154C12.9993 5.69821 13.0513 5.57221 13.146 5.47821C13.2407 5.38421 13.366 5.33154 13.4993 5.33154C13.6327 5.33154 13.7587 5.38354 13.8527 5.47821L16.3527 7.97821C16.3993 8.02488 16.436 8.07954 16.4613 8.14154C16.4633 8.14688 16.466 8.15288 16.468 8.15888C16.4887 8.21288 16.4993 8.27221 16.4993 8.33221C16.4993 8.39021 16.4887 8.44821 16.468 8.50421C16.4667 8.50821 16.4653 8.51154 16.464 8.51488C16.436 8.58421 16.3993 8.63888 16.3527 8.68554L13.8527 11.1855C13.7593 11.2795 13.6333 11.3315 13.5 11.3315Z" fill="black"/>
</g>
<defs>
<clipPath id="clip0">
<rect width="16" height="16" fill="white" transform="translate(0.5)"/>
</clipPath>
</defs>
</svg>
