<svg width="20" height="20" viewBox="0 0 20 20" fill="none" xmlns="http://www.w3.org/2000/svg">
<g clip-path="url(#clip0)">
<path d="M18 13.8377C17.9218 13.7596 17.8159 13.7157 17.7054 13.7157C17.5949 13.7157 17.4889 13.7596 17.4108 13.8377L15.75 15.5111C15.6918 15.5694 15.6523 15.6436 15.6363 15.7244C15.6203 15.8052 15.6286 15.8889 15.6602 15.9649C15.6918 16.041 15.7452 16.106 15.8136 16.1517C15.8821 16.1975 15.9626 16.2219 16.045 16.2219H16.5116C16.546 16.2219 16.5799 16.2303 16.6102 16.2464C16.6406 16.2626 16.6666 16.2859 16.6858 16.3144C16.705 16.343 16.7168 16.3761 16.72 16.4104C16.7232 16.4448 16.7177 16.4794 16.7041 16.5111C16.406 17.082 15.9504 17.5554 15.3914 17.8752C14.8323 18.195 14.1932 18.3477 13.55 18.3152C13.3289 18.3152 13.117 18.403 12.9607 18.5593C12.8044 18.7156 12.7166 18.9276 12.7166 19.1486C12.7166 19.3696 12.8044 19.5815 12.9607 19.7378C13.117 19.8941 13.3289 19.9819 13.55 19.9819C16.025 19.9736 18.0775 18.4136 18.4666 16.3844C18.4762 16.3373 18.5018 16.295 18.539 16.2647C18.5762 16.2343 18.6228 16.2177 18.6708 16.2177H19.3741C19.4577 16.2186 19.5395 16.1943 19.6091 16.1481C19.6786 16.1018 19.7327 16.0357 19.7642 15.9584C19.7957 15.881 19.8033 15.796 19.7859 15.7143C19.7685 15.6326 19.7269 15.558 19.6666 15.5002L18 13.8377ZM1.58746 6.1319C1.66555 6.20979 1.77134 6.25354 1.88163 6.25357C1.93655 6.25377 1.99095 6.24296 2.04162 6.22178C2.09229 6.20059 2.1382 6.16947 2.17663 6.13023L3.8383 4.46357C3.8973 4.40538 3.93761 4.33093 3.95408 4.24972C3.97055 4.16851 3.96244 4.08423 3.93077 4.00766C3.8991 3.93109 3.84532 3.86569 3.7763 3.81984C3.70728 3.77398 3.62616 3.74975 3.5433 3.75023H3.07663C3.04214 3.75031 3.00818 3.74182 2.97778 3.72553C2.94738 3.70924 2.9215 3.68566 2.90246 3.6569C2.88324 3.62841 2.87148 3.59555 2.86828 3.56133C2.86507 3.52711 2.87052 3.49263 2.88413 3.46107C3.18211 2.8904 3.63746 2.41714 4.1962 2.09737C4.75495 1.77761 5.39366 1.62474 6.03663 1.6569C6.25764 1.6569 6.4696 1.5691 6.62589 1.41282C6.78217 1.25654 6.86996 1.04458 6.86996 0.823568C6.86996 0.602554 6.78217 0.390592 6.62589 0.234312C6.4696 0.0780317 6.25764 -0.00976562 6.03663 -0.00976562C3.56163 -0.00143229 1.50996 1.5569 1.11996 3.58773C1.11053 3.63472 1.08513 3.677 1.04806 3.70738C1.011 3.73776 0.964556 3.75438 0.91663 3.7544H0.212463C0.128832 3.75305 0.046729 3.7769 -0.0231626 3.82285C-0.0930543 3.8688 -0.147499 3.93472 -0.179414 4.01203C-0.211329 4.08934 -0.219236 4.17447 -0.202106 4.25634C-0.184977 4.33821 -0.143604 4.41303 -0.08337 4.47107L1.58746 6.1319Z" fill="#959CA5"/>
<path d="M8.1498 12.0487C8.26691 12.1658 8.3329 12.3245 8.33334 12.4901C8.3329 12.6558 8.26691 12.8145 8.1498 12.9316C8.03268 13.0487 7.87397 13.1147 7.70834 13.1151H5.62501C5.56975 13.1151 5.51676 13.0932 5.47769 13.0541C5.43862 13.0151 5.41668 12.9621 5.41668 12.9068V12.0735C5.41668 12.0182 5.43862 11.9652 5.47769 11.9262C5.51676 11.8871 5.56975 11.8651 5.62501 11.8651H7.70834C7.87397 11.8656 8.03268 11.9316 8.1498 12.0487Z" fill="#F2994A"/>
<path d="M5.62334 14.3651H7.70668C7.87244 14.3651 8.03141 14.431 8.14862 14.5482C8.26583 14.6654 8.33168 14.8244 8.33168 14.9901C8.33168 15.1559 8.26583 15.3149 8.14862 15.4321C8.03141 15.5493 7.87244 15.6151 7.70668 15.6151H5.62334C5.56809 15.6151 5.5151 15.5932 5.47603 15.5541C5.43696 15.5151 5.41501 15.4621 5.41501 15.4068V14.5735C5.41501 14.5182 5.43696 14.4652 5.47603 14.4262C5.5151 14.3871 5.56809 14.3651 5.62334 14.3651Z" fill="#F2994A"/>
<path d="M6.7041 7.50977C5.46797 7.50977 4.2596 7.87632 3.23179 8.56308C2.20398 9.24984 1.4029 10.226 0.929857 11.368C0.45681 12.51 0.333039 13.7667 0.574196 14.9791C0.815354 16.1915 1.41061 17.3051 2.28469 18.1792C3.15876 19.0533 4.27241 19.6485 5.48479 19.8897C6.69717 20.1308 7.95384 20.0071 9.09587 19.534C10.2379 19.061 11.214 18.2599 11.9008 17.2321C12.5875 16.2043 12.9541 14.9959 12.9541 13.7598C12.9523 12.1027 12.2933 10.514 11.1216 9.3423C9.94985 8.17058 8.36116 7.51153 6.7041 7.50977ZM4.99994 17.4939V17.0773C4.99994 17.022 4.97799 16.969 4.93892 16.93C4.89985 16.8909 4.84686 16.8689 4.7916 16.8689C4.62584 16.8689 4.46687 16.8031 4.34966 16.6859C4.23245 16.5687 4.1666 16.4097 4.1666 16.2439V11.2439C4.1666 11.0782 4.23245 10.9192 4.34966 10.802C4.46687 10.6848 4.62584 10.6189 4.7916 10.6189C4.84686 10.6189 4.89985 10.597 4.93892 10.5579C4.97799 10.5188 4.99994 10.4659 4.99994 10.4106V9.99393C4.99994 9.82817 5.06578 9.6692 5.18299 9.55199C5.30021 9.43478 5.45918 9.36893 5.62494 9.36893C5.7907 9.36893 5.94967 9.43478 6.06688 9.55199C6.18409 9.6692 6.24994 9.82817 6.24994 9.99393V10.4106C6.24994 10.4659 6.27189 10.5188 6.31096 10.5579C6.35003 10.597 6.40302 10.6189 6.45827 10.6189H6.87494C6.93019 10.6189 6.98318 10.597 7.02225 10.5579C7.06132 10.5188 7.08327 10.4659 7.08327 10.4106V9.99393C7.08327 9.82817 7.14912 9.6692 7.26633 9.55199C7.38354 9.43478 7.54251 9.36893 7.70827 9.36893C7.87403 9.36893 8.033 9.43478 8.15021 9.55199C8.26742 9.6692 8.33327 9.82817 8.33327 9.99393V10.5931C8.3334 10.6336 8.34527 10.6732 8.36746 10.7071C8.38965 10.7409 8.4212 10.7676 8.45827 10.7839C8.79171 10.9288 9.0757 11.1676 9.27551 11.4713C9.47531 11.775 9.58226 12.1304 9.58327 12.4939C9.58259 12.9006 9.44785 13.2957 9.19994 13.6181C9.17302 13.6542 9.15848 13.6981 9.15848 13.7431C9.15848 13.7881 9.17302 13.832 9.19994 13.8681C9.44768 14.1902 9.5824 14.585 9.58327 14.9914C9.58226 15.355 9.47531 15.7103 9.27551 16.014C9.0757 16.3177 8.79171 16.5566 8.45827 16.7014C8.4212 16.7177 8.38965 16.7444 8.36746 16.7783C8.34527 16.8122 8.3334 16.8518 8.33327 16.8923V17.4914C8.33327 17.6572 8.26742 17.8162 8.15021 17.9334C8.033 18.0506 7.87403 18.1164 7.70827 18.1164C7.54251 18.1164 7.38354 18.0506 7.26633 17.9334C7.14912 17.8162 7.08327 17.6572 7.08327 17.4914V17.0748C7.08327 17.0195 7.06132 16.9665 7.02225 16.9275C6.98318 16.8884 6.93019 16.8664 6.87494 16.8664H6.45827C6.40302 16.8664 6.35003 16.8884 6.31096 16.9275C6.27189 16.9665 6.24994 17.0195 6.24994 17.0748V17.4914C6.24994 17.6572 6.18409 17.8162 6.06688 17.9334C5.94967 18.0506 5.7907 18.1164 5.62494 18.1164C5.45918 18.1164 5.30021 18.0506 5.18299 17.9334C5.06578 17.8162 4.99994 17.6572 4.99994 17.4914V17.4939Z" fill="#F2994A"/>
<path fill-rule="evenodd" clip-rule="evenodd" d="M14.6234 9.16081C15.5299 9.16081 16.416 8.892 17.1697 8.38838C17.9235 7.88476 18.5109 7.16894 18.8578 6.33144C19.2047 5.49395 19.2955 4.57239 19.1186 3.68331C18.9418 2.79423 18.5053 1.97756 17.8643 1.33657C17.2233 0.695579 16.4066 0.259059 15.5175 0.0822101C14.6285 -0.0946388 13.7069 -0.00387347 12.8694 0.343028C12.0319 0.68993 11.3161 1.27739 10.8125 2.03111C10.3088 2.78484 10.04 3.67098 10.04 4.57748C10.0416 5.79258 10.525 6.95747 11.3842 7.81668C12.2434 8.67589 13.4083 9.15927 14.6234 9.16081ZM16.1086 2.0522C15.9914 1.93499 15.8325 1.86914 15.6667 1.86914H15.4584C15.431 1.86914 15.4039 1.86375 15.3786 1.85328C15.3534 1.84281 15.3304 1.82747 15.3111 1.80812C15.2917 1.78878 15.2764 1.76581 15.2659 1.74054C15.2554 1.71526 15.25 1.68817 15.25 1.66081V1.62581C15.25 1.46005 15.1842 1.30108 15.067 1.18387C14.9498 1.06666 14.7908 1.00081 14.625 1.00081C14.4593 1.00081 14.3003 1.06666 14.1831 1.18387C14.0659 1.30108 14 1.46005 14 1.62581V1.72748C13.9999 1.77383 13.9842 1.81879 13.9555 1.85518C13.9268 1.89158 13.8867 1.91733 13.8417 1.92831C13.5272 2.01399 13.2476 2.19641 13.0424 2.44974C12.8373 2.70307 12.717 3.0145 12.6985 3.33996C12.6801 3.66542 12.7645 3.98844 12.9397 4.26332C13.115 4.53819 13.3722 4.751 13.675 4.87164L15.1092 5.44414C15.1756 5.47051 15.2307 5.51921 15.265 5.58185C15.2993 5.64448 15.3106 5.71713 15.2971 5.78725C15.2836 5.85737 15.246 5.92057 15.1908 5.96594C15.1357 6.01132 15.0665 6.03603 14.995 6.03581H13.5834C13.4176 6.03581 13.2586 6.10166 13.1414 6.21887C13.0242 6.33608 12.9584 6.49505 12.9584 6.66081C12.9584 6.82657 13.0242 6.98554 13.1414 7.10275C13.2586 7.21996 13.4176 7.28581 13.5834 7.28581H13.79C13.8453 7.28581 13.8983 7.30776 13.9374 7.34683C13.9764 7.3859 13.9984 7.43889 13.9984 7.49414V7.52914C13.9984 7.6949 14.0642 7.85388 14.1814 7.97109C14.2986 8.0883 14.4576 8.15414 14.6234 8.15414C14.7891 8.15414 14.9481 8.0883 15.0653 7.97109C15.1825 7.85388 15.2484 7.6949 15.2484 7.52914V7.42748C15.2484 7.38183 15.2634 7.33745 15.2911 7.30116C15.3188 7.26488 15.3577 7.2387 15.4017 7.22664C15.7167 7.14164 15.9969 6.95956 16.2025 6.70625C16.4082 6.45295 16.5288 6.1413 16.5472 5.81556C16.5657 5.48982 16.481 5.16654 16.3053 4.89164C16.1296 4.61673 15.8718 4.40417 15.5684 4.28414L14.1359 3.71081C14.0695 3.68444 14.0144 3.63574 13.9801 3.57311C13.9458 3.51047 13.9344 3.43783 13.948 3.36771C13.9615 3.29759 13.9991 3.23439 14.0542 3.18901C14.1094 3.14363 14.1786 3.11892 14.25 3.11914H15.6667C15.8325 3.11914 15.9914 3.05329 16.1086 2.93608C16.2259 2.81887 16.2917 2.6599 16.2917 2.49414C16.2917 2.32838 16.2259 2.16941 16.1086 2.0522Z" fill="#51D375"/>
</g>
<defs>
<clipPath id="clip0">
<rect width="20" height="20" fill="white"/>
</clipPath>
</defs>
</svg>
