<svg width="48" height="48" viewBox="0 0 48 48" fill="none" xmlns="http://www.w3.org/2000/svg">
<g clip-path="url(#clip0)">
<path d="M22.334 32.2179C21.682 32.2179 21.062 32.0099 20.538 31.6159C20.426 31.5319 20.32 31.4399 20.222 31.3419L15.44 26.562C15.156 26.28 15 25.902 15 25.502C15 25.102 15.156 24.724 15.438 24.442C15.722 24.158 16.098 24.002 16.498 24.002C16.898 24.002 17.276 24.158 17.558 24.442L22.336 29.218L30.298 18.602C30.58 18.226 31.03 18.002 31.498 18.002C31.824 18.002 32.134 18.106 32.396 18.3C33.06 18.798 33.194 19.74 32.698 20.402L24.736 31.018C24.254 31.658 23.552 32.074 22.76 32.188C22.618 32.208 22.476 32.2179 22.334 32.2179Z" fill="#51D375"/>
<path d="M23.9923 48.0019C22.9023 48.0019 21.8743 47.6399 21.0203 46.9519C20.7523 46.7359 20.5063 46.4899 20.2903 46.2219L17.2683 42.4619C16.9323 42.0439 16.4303 41.8039 15.8943 41.8039C15.8303 41.8039 15.7663 41.8079 15.7023 41.8139L10.9043 42.3359C10.7263 42.3559 10.5463 42.3659 10.3683 42.3659C9.28629 42.3659 8.26429 42.0059 7.41229 41.3279C6.41829 40.5359 5.79429 39.4039 5.65229 38.1419C5.61229 37.7879 5.61229 37.4299 5.65229 37.0779L6.17429 32.2839C6.23829 31.6839 5.99629 31.0999 5.52629 30.7219L1.76629 27.6999C0.776291 26.9039 0.154291 25.7699 0.0162907 24.5079C-0.121709 23.2459 0.240291 22.0039 1.03629 21.0119C1.25229 20.7439 1.49829 20.4979 1.76629 20.2819L5.52629 17.2579C5.99829 16.8779 6.24029 16.2959 6.17429 15.6959L5.65229 10.8959C5.51029 9.63591 5.87029 8.39591 6.66429 7.40191C7.45829 6.40791 8.59029 5.78391 9.85229 5.64191C10.0263 5.62191 10.2043 5.61191 10.3803 5.61191C10.5563 5.61191 10.7343 5.62191 10.9103 5.64191L15.7043 6.16391C15.7663 6.16991 15.8303 6.17391 15.8943 6.17391C16.4303 6.17391 16.9303 5.93391 17.2663 5.51591L20.2903 1.77591C21.1963 0.649906 22.5503 0.00390625 24.0003 0.00390625C25.0803 0.00390625 26.1383 0.375906 26.9803 1.05391C27.2483 1.26991 27.4903 1.51391 27.7063 1.77991L30.7303 5.54191C31.0663 5.96191 31.5643 6.20191 32.0963 6.20191C32.1603 6.20191 32.2263 6.19791 32.2903 6.19191L37.0923 5.66991C37.2683 5.64991 37.4463 5.63991 37.6203 5.63991C38.7083 5.63991 39.7323 5.99991 40.5863 6.68391C41.5783 7.47791 42.2023 8.61191 42.3443 9.87591C42.3823 10.2259 42.3823 10.5799 42.3443 10.9299L41.8243 15.7239C41.7603 16.3239 42.0023 16.9059 42.4723 17.2839L46.2343 20.3099C47.2263 21.1059 47.8463 22.2419 47.9843 23.5059C48.1223 24.7699 47.7583 26.0119 46.9603 27.0019C46.7483 27.2679 46.5043 27.5119 46.2363 27.7279L42.4563 30.7419C41.9883 31.1179 41.7483 31.6999 41.8123 32.3019L42.3343 37.1019C42.4743 38.3599 42.1163 39.6019 41.3223 40.5959C40.5283 41.5899 39.3963 42.2139 38.1343 42.3559C37.9583 42.3759 37.7823 42.3859 37.6043 42.3859C37.4283 42.3859 37.2523 42.3759 37.0783 42.3579L32.2803 41.8359C32.2123 41.8279 32.1463 41.8239 32.0803 41.8239C31.5503 41.8239 31.0543 42.0639 30.7203 42.4819L27.7063 46.2319C26.9103 47.2239 25.7763 47.8439 24.5143 47.9819C24.3403 47.9919 24.1663 48.0019 23.9923 48.0019ZM15.9003 38.8039C17.3483 38.8039 18.6983 39.4519 19.6063 40.5839L22.6283 44.3439C22.7083 44.4439 22.7983 44.5339 22.8983 44.6119C23.2163 44.8659 23.5943 45.0019 23.9923 45.0019C24.0583 45.0019 24.1223 44.9979 24.1883 44.9899C24.6563 44.9399 25.0763 44.7099 25.3683 44.3439L28.3823 40.5959C29.2883 39.4659 30.6363 38.8159 32.0823 38.8159C32.2563 38.8159 32.4303 38.8259 32.6063 38.8439L37.4063 39.3659C37.4743 39.3739 37.5423 39.3779 37.6103 39.3779C37.6723 39.3779 37.7343 39.3739 37.7963 39.3679C38.2663 39.3159 38.6843 39.0839 38.9783 38.7159C39.2723 38.3479 39.4043 37.8899 39.3523 37.4239L38.8303 32.6179C38.6543 30.9939 39.3103 29.4159 40.5823 28.3939L44.3603 25.3799C44.4543 25.3039 44.5443 25.2159 44.6223 25.1179C44.9183 24.7499 45.0543 24.2899 45.0023 23.8239C44.9523 23.3559 44.7223 22.9379 44.3563 22.6419L40.5943 19.6179C39.3223 18.5979 38.6663 17.0179 38.8423 15.3959L39.3643 10.5959C39.3803 10.4639 39.3803 10.3339 39.3643 10.2059C39.3123 9.73791 39.0803 9.31791 38.7143 9.02391C38.4003 8.76991 38.0203 8.63791 37.6203 8.63791C37.5543 8.63791 37.4883 8.64191 37.4223 8.64791L32.6183 9.16991C32.4443 9.18791 32.2723 9.19791 32.1003 9.19791C30.6523 9.19791 29.3023 8.54991 28.3943 7.41791L25.3723 3.65791C25.2923 3.55991 25.2023 3.46991 25.1043 3.38991C24.7903 3.13591 24.4083 3.00191 24.0043 3.00191C23.4663 3.00191 22.9663 3.24191 22.6303 3.65791L19.6063 7.39791C18.6963 8.52791 17.3483 9.17591 15.9043 9.17591C15.7323 9.17591 15.5583 9.16591 15.3823 9.14791L10.5823 8.62591C10.5143 8.61791 10.4483 8.61391 10.3823 8.61391C10.3163 8.61391 10.2503 8.61791 10.1843 8.62391C9.72029 8.67591 9.30229 8.90791 9.00829 9.27391C8.71629 9.63991 8.58229 10.0999 8.63429 10.5659L9.15629 15.3699C9.33229 16.9939 8.67629 18.5719 7.40429 19.5939L3.64629 22.6159C3.54629 22.6959 3.45629 22.7859 3.37629 22.8859C2.76829 23.6419 2.89029 24.7519 3.64629 25.3579L7.40629 28.3799C8.67829 29.4019 9.33429 30.9819 9.15829 32.6039L8.63629 37.4039C8.62029 37.5399 8.62029 37.6719 8.63629 37.8019C8.68829 38.2679 8.92029 38.6859 9.28629 38.9779C9.60029 39.2279 9.97829 39.3619 10.3763 39.3619C10.4423 39.3619 10.5103 39.3579 10.5783 39.3499L15.3823 38.8279C15.5563 38.8139 15.7303 38.8039 15.9003 38.8039Z" fill="#51D375"/>
</g>
<defs>
<clipPath id="clip0">
<rect width="48" height="48" fill="white"/>
</clipPath>
</defs>
</svg>
