<svg width="16" height="16" viewBox="0 0 16 16" fill="none" xmlns="http://www.w3.org/2000/svg">
<path d="M6.98333 15.7659C6.432 15.7659 5.98267 15.3173 5.98267 14.7659V8.57994C2.694 7.72727 0.246667 4.80527 0.00266667 1.40527C0.00133333 1.3806 0 1.3586 0 1.3366C0 1.06994 0.104 0.818604 0.292667 0.629271C0.481333 0.440604 0.732667 0.335938 1 0.335938H14.968C14.99 0.335938 15.0127 0.336604 15.0347 0.337938C15.3 0.355271 15.5433 0.475937 15.7193 0.676604C15.8953 0.877271 15.9833 1.1346 15.966 1.40194C15.966 1.40394 15.966 1.4066 15.9653 1.4086C15.7193 4.80794 13.2713 7.72927 9.98267 8.57994V13.0993C9.98333 13.3973 9.85133 13.6773 9.622 13.8679L7.62267 15.5339C7.44333 15.6833 7.21667 15.7659 6.98333 15.7659ZM1.00067 1.33594C1.232 4.45527 3.52533 7.06794 6.58267 7.6926C6.81467 7.73994 6.98267 7.94594 6.98267 8.1826V14.7659L8.98267 13.0993V8.1826C8.98267 7.94594 9.15067 7.73994 9.38267 7.6926C12.4467 7.06794 14.7433 4.45327 14.968 1.3346L1.00067 1.33594Z" fill="#959CA5"/>
</svg>
