<svg width="82" height="82" viewBox="0 0 82 82" fill="none" xmlns="http://www.w3.org/2000/svg">
<path fill-rule="evenodd" clip-rule="evenodd" d="M13.1667 1.25C13.1667 0.559644 13.7263 0 14.4167 0C20.5574 0 26.7646 2.48088 31.4412 6.46876C35.8065 10.1913 38.9253 15.3077 39.3235 21.0667H42.1765C42.5747 15.3077 45.6935 10.1913 50.0588 6.46876C54.7354 2.48088 60.9426 0 67.0833 0C67.7737 0 68.3333 0.559644 68.3333 1.25C68.3333 7.51717 65.0866 13.1081 60.4078 17.0979C58.5556 18.6774 56.4632 20.0205 54.2299 21.0667H74.9833C76.7117 21.0667 78.3692 21.7532 79.5913 22.9754C80.8134 24.1975 81.5 25.855 81.5 27.5833V35.4833C81.5 36.5133 81.0909 37.501 80.3626 38.2293C79.6343 38.9575 78.6466 39.3667 77.6167 39.3667H76.2333V74.9833C76.2333 76.7117 75.5468 78.3692 74.3246 79.5913C73.1025 80.8134 71.445 81.5 69.7167 81.5H11.7833C10.055 81.5 8.39747 80.8134 7.17535 79.5913C5.95324 78.3692 5.26667 76.7117 5.26667 74.9833V39.3667H3.88333C2.85341 39.3667 1.86567 38.9575 1.1374 38.2293C0.409136 37.501 0 36.5133 0 35.4833V27.5833C0 25.855 0.686576 24.1975 1.90869 22.9754C3.1308 21.7532 4.78834 21.0667 6.51667 21.0667H27.2701C25.0368 20.0205 22.9444 18.6774 21.0922 17.0979C16.4134 13.1081 13.1667 7.51717 13.1667 1.25ZM31.6 23.5667H6.51667C5.45138 23.5667 4.42973 23.9898 3.67645 24.7431C2.92318 25.4964 2.5 26.518 2.5 27.5833V35.4833C2.5 35.8502 2.64574 36.2021 2.90517 36.4615C3.16459 36.7209 3.51645 36.8667 3.88333 36.8667H31.6V23.5667ZM31.6 39.3667H7.76667V74.9833C7.76667 76.0486 8.18985 77.0703 8.94312 77.8235C9.69639 78.5768 10.718 79 11.7833 79H31.6V39.3667ZM34.1 79H47.4V39.3667H34.1V79ZM47.4 36.8667H34.1V23.5667H47.4V36.8667ZM49.9 39.3667V79H69.7167C70.782 79 71.8036 78.5768 72.5569 77.8235C73.3102 77.0703 73.7333 76.0486 73.7333 74.9833V39.3667H49.9ZM49.9 36.8667V23.5667H74.9833C76.0486 23.5667 77.0703 23.9898 77.8235 24.7431C78.5768 25.4964 79 26.518 79 27.5833V35.4833C79 35.8502 78.8543 36.2021 78.5948 36.4615C78.3354 36.7209 77.9835 36.8667 77.6167 36.8667H49.9ZM47.0287 20.7488C51.3033 20.0115 55.4629 18.0291 58.7857 15.1956C62.2262 12.2618 64.7044 8.47577 65.5321 4.30131L47.0287 20.7488ZM63.4379 2.8179C59.1634 3.5552 55.0038 5.53754 51.681 8.37104C48.2404 11.3049 45.7622 15.0909 44.9346 19.2654L63.4379 2.8179ZM36.5654 19.2654C35.7378 15.0909 33.2596 11.3049 29.819 8.37104C26.4962 5.53754 22.3366 3.5552 18.0621 2.8179L36.5654 19.2654ZM15.9679 4.30131C16.7956 8.47577 19.2738 12.2617 22.7143 15.1956C26.0371 18.0291 30.1967 20.0115 34.4713 20.7488L15.9679 4.30131Z" fill="#406CFF"/>
</svg>
