<svg width="126" height="81" viewBox="0 0 126 81" fill="none" xmlns="http://www.w3.org/2000/svg">
<rect x="1.125" y="1.125" width="123.75" height="78" rx="6.375" fill="white" stroke="#495055" stroke-width="2.25"/>
<rect opacity="0.4" x="7.5" y="4.5" width="111" height="71.25" rx="7.5" fill="#51D375"/>
<g clip-path="url(#clip0)">
<path fill-rule="evenodd" clip-rule="evenodd" d="M32.9403 57.6421C32.6403 57.4683 26.4603 54.6294 26.4603 54.6294C23.7003 55.4985 23.1003 61.466 22.8003 65.0002H29.4003L32.9403 57.6421Z" fill="#E7A123"/>
<path fill-rule="evenodd" clip-rule="evenodd" d="M43.8604 57.6421C44.1604 57.4683 50.3404 54.6294 50.3404 54.6294C53.1004 55.4985 53.7003 61.466 54.0003 65.0002H47.4004L43.8604 57.6421Z" fill="#E7A123"/>
<path fill-rule="evenodd" clip-rule="evenodd" d="M38.3999 48.0825H35.5199V49.8786C35.5199 50.9794 35.3399 50.7476 34.2599 51.327C34.2599 51.327 33.2399 52.1381 32.9399 52.254C34.2599 56.2517 35.1599 61.4081 37.6799 65.0582H38.3999H39.1199C41.6399 61.4661 42.5999 56.2517 43.8599 52.254C43.5599 52.1381 42.5399 51.327 42.5399 51.327C41.4599 50.7476 41.2799 50.9794 41.2799 49.8786V48.0825H38.3999Z" fill="#F5B67E"/>
<path fill-rule="evenodd" clip-rule="evenodd" d="M34.26 51.3267C32.7 52.0219 27.06 54.1656 26.46 54.687C27 55.7878 27.78 60.249 28.44 64.9999H38.4H48.42C49.08 60.1911 49.86 55.7299 50.4 54.687C49.74 54.1656 44.1 52.0219 42.6 51.3267C43.56 57.2942 33.12 56.541 34.26 51.3267Z" fill="#F3AB1C"/>
<path fill-rule="evenodd" clip-rule="evenodd" d="M46.1401 34.9304C45.7201 37.0161 47.1001 38.7543 49.2601 39.1598C51.4201 39.5074 53.4601 38.4066 53.8801 36.3209C54.3001 34.2351 52.9201 32.2073 50.7601 31.8597C48.6601 31.3962 46.5601 32.7867 46.1401 34.9304Z" fill="#F6C085"/>
<path fill-rule="evenodd" clip-rule="evenodd" d="M31.2 34.9304C31.62 37.0161 30.24 38.7543 28.08 39.1598C25.92 39.5074 23.88 38.4066 23.46 36.3209C23.04 34.2351 24.42 32.2073 26.58 31.8597C28.74 31.3962 30.78 32.7867 31.2 34.9304Z" fill="#F6C085"/>
<path fill-rule="evenodd" clip-rule="evenodd" d="M49.38 22.0105C47.28 19.2295 44.04 17.4334 40.56 17.3175C40.56 17.3175 40.5 17.3175 40.38 17.3175V17.2017C40.38 17.2017 39.54 17.2596 38.7 17.2596C37.86 17.2017 37.02 17.2017 37.02 17.2017V17.3175C36.9 17.3175 36.84 17.3175 36.84 17.3175C33.36 17.4334 30.12 19.2295 28.02 22.0105C25.92 24.7335 25.62 28.2098 25.8 31.5122C26.22 40.029 27 49.5887 38.76 49.6466C50.5201 49.7625 51.18 39.9711 51.6 31.5122C51.78 28.2098 51.48 24.7335 49.38 22.0105Z" fill="#F8C997"/>
<path fill-rule="evenodd" clip-rule="evenodd" d="M41.1 41.0723C41.16 41.2461 41.16 41.4199 41.16 41.6516C41.16 43.0421 40.02 44.2009 38.58 44.2009C37.14 44.2009 36 43.0421 36 41.6516C36 41.4778 36 41.2461 36.06 41.0723H41.1Z" fill="#D6825B"/>
<path fill-rule="evenodd" clip-rule="evenodd" d="M26.4 34.1193C26.58 30.9907 26.58 25.3128 29.46 25.3128C29.52 25.3128 38.1 21.8945 48 21.8945C50.28 21.8945 50.82 28.1518 50.88 32.2074C50.88 33.0765 50.94 33.8876 51 34.7566C51 35.2781 51.06 35.7416 51.12 36.263C51.12 36.4368 51.18 37.0162 51.48 36.9583C51.78 36.9003 51.84 35.7995 51.84 35.5678C52.08 33.9455 52.14 32.2653 52.14 30.5852C52.14 28.3256 52.08 24.8493 50.04 21.5469C49.32 20.3882 48.84 18.9977 47.4 18.0127C43.8 15.7532 36.84 16.7381 32.82 18.0127C30.06 18.8818 27.18 19.9826 26.22 22.7057C25.14 25.6605 25.14 27.978 25.5 33.8296C25.56 34.467 25.62 35.1043 25.68 35.7416C25.74 36.1471 25.8 36.6106 25.92 37.0162C26.16 37.8853 26.46 37.248 26.46 36.7265C26.46 35.7995 26.34 34.9305 26.4 34.1193Z" fill="#A74125"/>
<path fill-rule="evenodd" clip-rule="evenodd" d="M48.7801 19.1137C48.4201 10.7128 31.5601 17.7232 29.4001 18.1288C24.0601 19.0558 21.8401 15.7533 21.8401 15.7533C18.4201 25.2551 25.4401 33.1346 40.9801 23.2273C43.8601 21.4312 47.2201 22.59 47.2201 22.59C49.9801 26.0662 51.1801 26.6456 51.7201 31.4544C51.7201 31.4544 52.1401 28.094 52.8601 24.6178C53.6401 20.9677 51.9001 18.7082 48.7801 19.1137Z" fill="#A74125"/>
<path fill-rule="evenodd" clip-rule="evenodd" d="M25.9199 36.9583C25.9199 37.306 27.4799 44.4323 28.5599 45.7648C29.6399 47.0974 33.2399 49.1252 33.8399 49.2411C34.3199 49.3569 37.4399 49.8204 38.7599 50.0522C40.0799 49.8204 43.1999 49.3569 43.6799 49.2411C44.2799 49.1252 47.9399 46.9236 48.9599 45.7648C49.9799 44.6061 52.0799 35.9734 51.4799 36.5528C49.3199 40.7243 49.0199 46.6918 40.3799 46.6918C39.9599 46.6918 39.1199 46.0545 38.7599 45.7648C38.3999 46.0545 37.5599 46.6918 37.1399 46.6918C28.4399 46.6339 28.0799 41.0719 25.9199 36.9583Z" fill="#A74125"/>
<path fill-rule="evenodd" clip-rule="evenodd" d="M31.0801 41.8834C33.4801 43.158 38.2201 42.231 38.7001 41.304C39.1801 42.1731 43.9201 43.158 46.3201 41.8834C42.5401 41.1302 40.6201 39.508 38.7001 40.0294C36.7801 39.45 34.8601 41.1302 31.0801 41.8834Z" fill="#A74125"/>
<path fill-rule="evenodd" clip-rule="evenodd" d="M29.7002 53.1811C29.7602 53.4128 30.1802 65.0003 30.1802 65.0003H32.5802L31.6802 52.312L29.7002 53.1811Z" fill="#ED8322"/>
<path fill-rule="evenodd" clip-rule="evenodd" d="M47.1603 53.1811C47.1003 53.4128 46.6803 65.0003 46.6803 65.0003H44.2803L45.1803 52.312L47.1603 53.1811Z" fill="#ED8322"/>
<path fill-rule="evenodd" clip-rule="evenodd" d="M32.1001 36.611C32.6401 36.611 33.1201 36.1475 33.1201 35.626C33.1201 35.1046 32.6401 34.6411 32.1001 34.6411C31.5601 34.6411 31.0801 35.1046 31.0801 35.626C31.1401 36.2054 31.5601 36.611 32.1001 36.611Z" fill="#3E3B3A"/>
<path fill-rule="evenodd" clip-rule="evenodd" d="M45.2402 36.611C45.7802 36.611 46.2602 36.1475 46.2602 35.626C46.2602 35.1046 45.7802 34.6411 45.2402 34.6411C44.7002 34.6411 44.2202 35.1046 44.2202 35.626C44.2202 36.2054 44.7002 36.611 45.2402 36.611Z" fill="#3E3B3A"/>
<path fill-rule="evenodd" clip-rule="evenodd" d="M28.9202 32.6711C28.6202 32.1497 30.3602 31.86 32.1002 31.918C35.0402 31.918 36.6602 33.3085 35.2202 33.2505C34.1402 33.1926 29.0402 32.845 28.9202 32.6711Z" fill="#ED7F22"/>
<path fill-rule="evenodd" clip-rule="evenodd" d="M48.42 32.787C48.78 32.2656 47.04 31.9759 45.24 31.9759C42.3 31.9179 40.68 33.3084 42.12 33.2505C43.2 33.2505 48.36 32.9608 48.42 32.787Z" fill="#ED7F22"/>
<path fill-rule="evenodd" clip-rule="evenodd" d="M36.54 39.3919C36.54 39.334 36.54 39.276 36.6 39.2181C37.02 38.4649 37.8 36.2053 38.22 33.772C38.64 33.772 37.8 37.9435 37.44 38.9284C37.8 38.8705 38.22 38.8125 38.7 38.8125C39.9 38.8125 40.86 39.0443 40.86 39.334C40.86 39.6237 39.9 39.8554 38.7 39.8554C37.56 39.8554 36.6 39.6816 36.54 39.3919Z" fill="#E5B17D"/>
</g>
<path fill-rule="evenodd" clip-rule="evenodd" d="M68.7271 42.5112C68.7271 41.8899 69.2307 41.3862 69.8521 41.3862H107.079C107.701 41.3862 108.204 41.8899 108.204 42.5112C108.204 43.1326 107.701 43.6362 107.079 43.6362H69.8521C69.2307 43.6362 68.7271 43.1326 68.7271 42.5112Z" fill="#495055"/>
<path fill-rule="evenodd" clip-rule="evenodd" d="M68.7271 27.2386C68.7271 25.6571 70.0091 24.375 71.5907 24.375H103.091C104.672 24.375 105.954 25.6571 105.954 27.2386C105.954 28.8202 104.672 30.1023 103.091 30.1023H71.5907C70.0091 30.1023 68.7271 28.8202 68.7271 27.2386Z" fill="#495055"/>
<path fill-rule="evenodd" clip-rule="evenodd" d="M68.7271 55.0737C68.7271 54.4524 69.2307 53.9487 69.8521 53.9487H94.9771C95.5984 53.9487 96.1021 54.4524 96.1021 55.0737C96.1021 55.6951 95.5984 56.1987 94.9771 56.1987H69.8521C69.2307 56.1987 68.7271 55.6951 68.7271 55.0737Z" fill="#495055"/>
<defs>
<clipPath id="clip0">
<rect width="33" height="50" fill="white" transform="translate(21 15)"/>
</clipPath>
</defs>
</svg>
