<svg width="25" height="24" viewBox="0 0 25 24" fill="none" xmlns="http://www.w3.org/2000/svg">
<rect x="0.5" width="24" height="24" rx="12" fill="#FF5151"/>
<path fill-rule="evenodd" clip-rule="evenodd" d="M6.63518 6.13518C6.81542 5.95494 7.10765 5.95494 7.2879 6.13518L12.5 11.3473L17.7121 6.13518C17.8923 5.95494 18.1846 5.95494 18.3648 6.13518C18.5451 6.31542 18.5451 6.60765 18.3648 6.7879L13.1527 12L18.3648 17.2121C18.5451 17.3923 18.5451 17.6846 18.3648 17.8648C18.1846 18.0451 17.8923 18.0451 17.7121 17.8648L12.5 12.6527L7.2879 17.8648C7.10765 18.0451 6.81542 18.0451 6.63518 17.8648C6.45494 17.6846 6.45494 17.3923 6.63518 17.2121L11.8473 12L6.63518 6.7879C6.45494 6.60765 6.45494 6.31542 6.63518 6.13518Z" fill="white"/>
</svg>
