<svg width="17" height="16" viewBox="0 0 17 16" fill="none" xmlns="http://www.w3.org/2000/svg">
<g clip-path="url(#clip0)">
<path d="M13.499 11.0026C13.3657 11.0026 13.2397 10.9506 13.1457 10.856C12.951 10.6613 12.951 10.344 13.1457 10.1486L14.7924 8.50195H5.49902C5.22302 8.50195 4.99902 8.27795 4.99902 8.00195C4.99902 7.72595 5.22302 7.50195 5.49902 7.50195H14.7917L13.145 5.85529C13.0504 5.76129 12.9984 5.63529 12.9984 5.50195C12.9984 5.36862 13.0504 5.24262 13.145 5.14862C13.2397 5.05462 13.365 5.00195 13.4984 5.00195C13.6317 5.00195 13.7577 5.05395 13.8517 5.14862L16.3517 7.64862C16.375 7.67195 16.3957 7.69729 16.4144 7.72462C16.419 7.73129 16.4244 7.74129 16.429 7.74995C16.4404 7.76862 16.4504 7.78795 16.459 7.80795C16.4637 7.81862 16.4697 7.83795 16.473 7.84862C16.4784 7.86195 16.4844 7.88262 16.4884 7.90462C16.4944 7.93329 16.4984 7.96729 16.4984 8.00195C16.4984 8.03529 16.495 8.06862 16.4884 8.10062C16.4844 8.12062 16.4784 8.13995 16.4717 8.15929C16.469 8.16995 16.4637 8.18462 16.4577 8.19795C16.4517 8.21329 16.441 8.23329 16.429 8.25329C16.4284 8.25529 16.4224 8.26729 16.415 8.27795C16.4004 8.29929 16.387 8.31595 16.3724 8.33195C16.3717 8.33395 16.3624 8.34529 16.3517 8.35529L13.8517 10.8553C13.7577 10.9506 13.6324 11.0026 13.499 11.0026Z" fill="#959CA5"/>
<path d="M1.89559 15.5C1.09026 15.4593 0.463591 14.7767 0.500258 13.9773L0.499591 2C0.462925 1.21867 1.08359 0.540667 1.88359 0.500667L10.0903 0.5C10.9089 0.54 11.5349 1.22333 11.4989 2.02267L11.4996 5C11.4996 5.276 11.2756 5.5 10.9996 5.5C10.7236 5.5 10.4996 5.276 10.4996 5V2C10.5116 1.73133 10.3163 1.512 10.0649 1.49933L1.90826 1.5C1.68092 1.512 1.48759 1.73067 1.49892 1.97733L1.49959 14C1.48759 14.2687 1.68292 14.488 1.93359 14.5007L10.0903 14.5C10.3176 14.488 10.5116 14.2693 10.5003 14.0227L10.4996 11C10.4996 10.724 10.7236 10.5 10.9996 10.5C11.2756 10.5 11.4996 10.724 11.4996 11V14C11.5356 14.782 10.9143 15.4593 10.1149 15.4993L1.90826 15.5C1.90426 15.5 1.89959 15.5 1.89559 15.5Z" fill="#959CA5"/>
</g>
<defs>
<clipPath id="clip0">
<rect width="16" height="16" fill="white" transform="translate(0.5)"/>
</clipPath>
</defs>
</svg>
