<svg width="400" height="68" viewBox="0 0 400 68" fill="none" xmlns="http://www.w3.org/2000/svg">
<g clip-path="url(#clip0)">
<path d="M53.8666 40.2861C50.3225 36.6044 50.3225 31.0722 53.8666 27.505C57.4108 23.8232 63.1724 23.8232 66.6976 27.505C70.2418 31.0722 70.2417 36.6044 66.5649 40.2861C63.0397 43.8343 57.5434 43.8343 53.8666 40.2861Z" fill="#6D89FF"/>
<path d="M262.194 66.7522V0H272.031V66.7522H262.194Z" fill="#6D89FF"/>
<path d="M315.055 21.0315H324.891V66.7522H315.055V60.8999C312.079 65.5939 307.374 67.9409 300.938 67.9409C295.716 67.9409 291.496 66.2645 288.278 62.9116C285.06 59.5588 283.451 54.9562 283.451 49.104V21.0315H293.288V48.0981C293.288 51.5119 294.198 54.1333 296.02 55.9621C297.841 57.7909 300.331 58.7053 303.488 58.7053C306.949 58.7053 309.742 57.6385 311.867 55.5049C313.992 53.3103 315.055 49.9879 315.055 45.5378V21.0315Z" fill="#6D89FF"/>
<path d="M337.303 66.7522V0H347.14V66.7522H337.303Z" fill="#6D89FF"/>
<path d="M390.164 21.0315H400V66.7522H390.164V60.8999C387.189 65.5939 382.483 67.9409 376.047 67.9409C370.825 67.9409 366.605 66.2645 363.387 62.9116C360.169 59.5588 358.56 54.9562 358.56 49.104V21.0315H368.397V48.0981C368.397 51.5119 369.307 54.1333 371.129 55.9621C372.95 57.7909 375.44 58.7053 378.597 58.7053C382.058 58.7053 384.851 57.6385 386.976 55.5049C389.101 53.3103 390.164 49.9879 390.164 45.5378V21.0315Z" fill="#6D89FF"/>
<path d="M97.8932 67.9411C91.2143 67.9411 85.5372 65.6246 80.862 60.9915C76.1867 56.3585 73.8491 50.6587 73.8491 43.892C73.8491 37.1254 76.1867 31.4255 80.862 26.7925C85.5372 22.1595 91.2143 19.843 97.8932 19.843C104.633 19.843 110.31 22.1595 114.924 26.7925C119.6 31.4255 121.937 37.1254 121.937 43.892C121.937 50.6587 119.6 56.3585 114.924 60.9915C110.31 65.6246 104.633 67.9411 97.8932 67.9411ZM87.7837 54.2249C90.516 56.9681 93.8858 58.3397 97.8932 58.3397C101.901 58.3397 105.27 56.9681 108.003 54.2249C110.735 51.4816 112.101 48.0374 112.101 43.892C112.101 39.7467 110.735 36.3024 108.003 33.5592C105.27 30.8159 101.901 29.4443 97.8932 29.4443C93.8858 29.4443 90.516 30.8159 87.7837 33.5592C85.0515 36.3024 83.6853 39.7467 83.6853 43.892C83.6853 48.0374 85.0515 51.4816 87.7837 54.2249Z" fill="white"/>
<path d="M141.032 12.3448C139.817 13.564 138.36 14.1736 136.66 14.1736C134.96 14.1736 133.473 13.564 132.197 12.3448C130.983 11.0646 130.376 9.57104 130.376 7.86414C130.376 6.15723 130.983 4.69417 132.197 3.47496C133.412 2.19478 134.899 1.55469 136.66 1.55469C138.421 1.55469 139.909 2.19478 141.123 3.47496C142.337 4.69417 142.944 6.15723 142.944 7.86414C142.944 9.57104 142.307 11.0646 141.032 12.3448ZM131.742 66.7523V21.0317H141.578V66.7523H131.742Z" fill="white"/>
<path d="M177.863 19.843C183.084 19.843 187.304 21.5194 190.522 24.8722C193.74 28.2251 195.349 32.8276 195.349 38.6799V66.7523H185.513V39.6857C185.513 36.2719 184.602 33.6506 182.781 31.8218C180.959 29.9929 178.47 29.0785 175.313 29.0785C171.852 29.0785 169.059 30.1758 166.934 32.3704C164.809 34.504 163.746 37.7959 163.746 42.2461V66.7523H153.91V21.0317H163.746V26.8839C166.721 22.1899 171.427 19.843 177.863 19.843Z" fill="white"/>
<path d="M228.345 67.9411C221.666 67.9411 215.989 65.6246 211.314 60.9915C206.639 56.3585 204.301 50.6587 204.301 43.892C204.301 37.1254 206.639 31.4255 211.314 26.7925C215.989 22.1595 221.666 19.843 228.345 19.843C235.085 19.843 240.762 22.1595 245.376 26.7925C250.052 31.4255 252.389 37.1254 252.389 43.892C252.389 50.6587 250.052 56.3585 245.376 60.9915C240.762 65.6246 235.085 67.9411 228.345 67.9411ZM218.236 54.2249C220.968 56.9681 224.338 58.3397 228.345 58.3397C232.352 58.3397 235.722 56.9681 238.455 54.2249C241.187 51.4816 242.553 48.0374 242.553 43.892C242.553 39.7467 241.187 36.3024 238.455 33.5592C235.722 30.8159 232.352 29.4443 228.345 29.4443C224.338 29.4443 220.968 30.8159 218.236 33.5592C215.503 36.3024 214.137 39.7467 214.137 43.892C214.137 48.0374 215.503 51.4816 218.236 54.2249Z" fill="white"/>
<path d="M10.4719 58.4312C16.7865 64.7711 24.7404 67.9411 34.3338 67.9411C40.1626 67.9411 45.5058 66.5695 50.3631 63.8262C52.1955 62.7814 53.872 61.6054 55.3925 60.2983L48.3574 52.7773C47.423 53.5795 46.3915 54.3059 45.2629 54.9564C41.9841 56.7852 38.3411 57.6996 34.3338 57.6996C27.5334 57.6996 22.0082 55.5355 17.758 51.2073C13.5685 46.8791 11.4737 41.3926 11.4737 34.7479C11.4737 28.1031 13.5685 22.6167 17.758 18.2884C22.0082 13.9602 27.5334 11.7961 34.3338 11.7961C38.3411 11.7961 41.9538 12.741 45.1718 14.6308C46.3326 15.2783 47.3945 16.0098 48.3574 16.8254L55.0439 8.9162C53.5877 7.71398 51.9971 6.63176 50.2721 5.66955C45.4147 2.92631 40.1019 1.55469 34.3338 1.55469C24.7404 1.55469 16.7865 4.75513 10.4719 11.156C4.1573 17.496 1 25.3599 1 34.7479C1 44.1359 4.1573 52.0303 10.4719 58.4312Z" fill="white"/>
</g>
<defs>
<clipPath id="clip0">
<rect width="400" height="68" fill="white"/>
</clipPath>
</defs>
</svg>
