<svg width="40" height="40" viewBox="0 0 40 40" fill="none" xmlns="http://www.w3.org/2000/svg">
<g clip-path="url(#clip0)">
<path d="M25.3481 10.4106H14.6177V29.5895H25.3481V10.4106Z" fill="#F26522"/>
<path d="M15.2985 19.9998C15.2985 16.1031 17.138 12.6468 19.9654 10.4104C17.8875 8.78393 15.2645 7.80127 12.403 7.80127C5.6241 7.80127 0.139648 13.2567 0.139648 19.9998C0.139648 26.743 5.6241 32.1984 12.403 32.1984C15.2645 32.1984 17.8875 31.2158 19.9654 29.5893C17.138 27.3529 15.2985 23.8966 15.2985 19.9998Z" fill="#E52423"/>
<path d="M39.8248 19.9998C39.8248 26.743 34.3403 32.1984 27.5614 32.1984C24.7 32.1984 22.077 31.2158 19.999 29.5893C22.8605 27.3529 24.6659 23.8966 24.6659 19.9998C24.6659 16.1031 22.8264 12.6468 19.999 10.4104C22.077 8.78393 24.7 7.80127 27.5614 7.80127C34.3403 7.80127 39.8248 13.2567 39.8248 19.9998Z" fill="#F99F1C"/>
<path d="M38.6677 27.5564V27.1498H38.838V27.082H38.4292V27.1498H38.5995V27.5564H38.6677ZM39.4511 27.5564V27.082H39.3149L39.1786 27.4209L39.0424 27.082H38.9061V27.5564H39.0083V27.1837L39.1446 27.4887H39.2468L39.383 27.1837V27.5564H39.4511Z" fill="#F99F1C"/>
</g>
<defs>
<clipPath id="clip0">
<rect width="40" height="40" fill="white"/>
</clipPath>
</defs>
</svg>
