<svg width="24" height="24" viewBox="0 0 24 24" fill="none" xmlns="http://www.w3.org/2000/svg">
<path d="M2.25 18.7529C1.836 18.7529 1.5 18.4169 1.5 18.0029C1.5 17.5889 1.836 17.2529 2.25 17.2529H21.75C22.164 17.2529 22.5 17.5889 22.5 18.0029C22.5 18.4169 22.164 18.7529 21.75 18.7529H2.25ZM2.25 12.7529C1.836 12.7529 1.5 12.4169 1.5 12.0029C1.5 11.5889 1.836 11.2529 2.25 11.2529H21.75C22.164 11.2529 22.5 11.5889 22.5 12.0029C22.5 12.4169 22.164 12.7529 21.75 12.7529H2.25ZM2.25 6.75293C1.836 6.75293 1.5 6.41693 1.5 6.00293C1.5 5.58893 1.836 5.25293 2.25 5.25293H21.75C22.164 5.25293 22.5 5.58893 22.5 6.00293C22.5 6.41693 22.164 6.75293 21.75 6.75293H2.25Z" fill="#495055"/>
</svg>
