<svg width="20" height="20" viewBox="0 0 20 20" fill="none" xmlns="http://www.w3.org/2000/svg">
<path d="M0.416992 9.99984C0.416992 11.8952 0.979045 13.7481 2.03207 15.3241C3.08511 16.9 4.58182 18.1283 6.33294 18.8537C8.08407 19.579 10.011 19.7688 11.8699 19.399C13.7289 19.0293 15.4365 18.1165 16.7768 16.7763C18.117 15.436 19.0297 13.7284 19.3995 11.8695C19.7693 10.0105 19.5795 8.08358 18.8542 6.33245C18.1288 4.58133 16.9005 3.08462 15.3245 2.03159C13.7486 0.978557 11.8957 0.416504 10.0003 0.416504C7.45955 0.419371 5.02365 1.42996 3.22705 3.22656C1.43045 5.02317 0.41986 7.45906 0.416992 9.99984ZM4.58366 9.58317C4.58366 9.36216 4.67146 9.1502 4.82774 8.99391C4.98402 8.83764 5.19598 8.74984 5.41699 8.74984H8.54199C8.59725 8.74984 8.65024 8.72789 8.68931 8.68882C8.72838 8.64975 8.75033 8.59676 8.75033 8.5415V5.4165C8.75033 5.19549 8.83812 4.98353 8.9944 4.82725C9.15068 4.67097 9.36265 4.58317 9.58366 4.58317H10.417C10.638 4.58317 10.85 4.67097 11.0062 4.82725C11.1625 4.98353 11.2503 5.19549 11.2503 5.4165V8.5415C11.2503 8.59676 11.2723 8.64975 11.3113 8.68882C11.3504 8.72789 11.4034 8.74984 11.4587 8.74984H14.5837C14.8047 8.74984 15.0166 8.83764 15.1729 8.99391C15.3292 9.1502 15.417 9.36216 15.417 9.58317V10.4165C15.417 10.6375 15.3292 10.8495 15.1729 11.0058C15.0166 11.162 14.8047 11.2498 14.5837 11.2498H11.4587C11.4034 11.2498 11.3504 11.2718 11.3113 11.3109C11.2723 11.3499 11.2503 11.4029 11.2503 11.4582V14.5832C11.2503 14.8042 11.1625 15.0161 11.0062 15.1724C10.85 15.3287 10.638 15.4165 10.417 15.4165H9.58366C9.36265 15.4165 9.15068 15.3287 8.9944 15.1724C8.83812 15.0161 8.75033 14.8042 8.75033 14.5832V11.4582C8.75033 11.4029 8.72838 11.3499 8.68931 11.3109C8.65024 11.2718 8.59725 11.2498 8.54199 11.2498H5.41699C5.19598 11.2498 4.98402 11.162 4.82774 11.0058C4.67146 10.8495 4.58366 10.6375 4.58366 10.4165V9.58317Z" fill="#959CA5"/>
</svg>
