<svg width="102" height="126" viewBox="0 0 102 126" fill="none" xmlns="http://www.w3.org/2000/svg">
<path d="M7.85714 126C3.51776 126 4.19489e-08 122.482 9.36955e-08 118.143L6.69497e-07 69.8571C7.21243e-07 65.5178 3.51776 62 7.85714 62L91.1429 62C95.4822 62 99 65.5178 99 69.8571L99 118.143C99 122.482 95.4822 126 91.1429 126L7.85714 126Z" fill="white"/>
<path fill-rule="evenodd" clip-rule="evenodd" d="M2.35714 69.8571L2.35714 118.143C2.35714 121.18 4.81958 123.643 7.85714 123.643L91.1429 123.643C94.1804 123.643 96.6429 121.18 96.6429 118.143L96.6429 69.8571C96.6429 66.8196 94.1804 64.3571 91.1429 64.3571L7.85714 64.3571C4.81958 64.3571 2.35714 66.8196 2.35714 69.8571ZM9.36955e-08 118.143C4.19489e-08 122.482 3.51776 126 7.85714 126L91.1429 126C95.4822 126 101.5 122.482 101.5 118.143L99 69.8571C99 65.5178 95.4822 62 91.1429 62L7.85714 62C3.51776 62 7.21243e-07 65.5178 6.69497e-07 69.8571L9.36955e-08 118.143Z" fill="#495055"/>
<path d="M7.85714 64C3.51776 64 4.19489e-08 60.4822 9.36955e-08 56.1429L6.69497e-07 7.85714C7.21243e-07 3.51777 3.51776 4.19489e-08 7.85714 9.36955e-08L91.1429 1.08687e-06C95.4822 1.13861e-06 99 3.51777 99 7.85714L99 56.1429C99 60.4822 95.4822 64 91.1429 64L7.85714 64Z" fill="white"/>
<path fill-rule="evenodd" clip-rule="evenodd" d="M2.35714 7.85714L2.35714 56.1429C2.35714 59.1804 4.81958 61.6429 7.85714 61.6429L91.1429 61.6429C94.1804 61.6429 96.6429 59.1804 96.6429 56.1429L96.6429 7.85714C96.6429 4.81958 94.1804 2.35714 91.1429 2.35714L7.85714 2.35714C4.81958 2.35714 2.35714 4.81958 2.35714 7.85714ZM9.36955e-08 56.1429C4.19489e-08 60.4822 3.51776 64 7.85714 64L91.1429 64C95.4822 64 99 60.4822 99 56.1429L100 7.85714C100 3.51776 95.4822 1.13861e-06 91.1429 1.08687e-06L7.85714 9.36955e-08C3.51776 4.19489e-08 7.21243e-07 3.51777 6.69497e-07 7.85714L9.36955e-08 56.1429Z" fill="#495055"/>
<rect opacity="0.4" x="15" y="9" width="72" height="110" rx="7.85714" fill="#51D375"/>
<g clip-path="url(#clip0)">
<path fill-rule="evenodd" clip-rule="evenodd" d="M26.2363 103.864C26.0545 103.757 22.309 101.997 22.309 101.997C20.6363 102.535 20.2726 106.235 20.0908 108.426H24.0908L26.2363 103.864Z" fill="#E7A123"/>
<path fill-rule="evenodd" clip-rule="evenodd" d="M32.8545 103.864C33.0363 103.757 36.7818 101.997 36.7818 101.997C38.4545 102.535 38.8181 106.235 38.9999 108.426H34.9999L32.8545 103.864Z" fill="#E7A123"/>
<path fill-rule="evenodd" clip-rule="evenodd" d="M29.5454 97.9375H27.8V99.0511C27.8 99.7336 27.6909 99.5899 27.0363 99.9491C27.0363 99.9491 26.4181 100.452 26.2363 100.524C27.0363 103.002 27.5818 106.199 29.1091 108.462H29.5454H29.9818C31.5091 106.235 32.0909 103.002 32.8545 100.524C32.6727 100.452 32.0545 99.9491 32.0545 99.9491C31.4 99.5899 31.2909 99.7336 31.2909 99.0511V97.9375H29.5454Z" fill="#F5B67E"/>
<path fill-rule="evenodd" clip-rule="evenodd" d="M27.0364 99.9492C26.0909 100.38 22.6727 101.709 22.3091 102.033C22.6364 102.715 23.1091 105.481 23.5091 108.427H29.5454H35.6182C36.0182 105.445 36.4909 102.679 36.8182 102.033C36.4182 101.709 33 100.38 32.0909 99.9492C32.6727 103.649 26.3454 103.182 27.0364 99.9492Z" fill="#F3AB1C"/>
<path fill-rule="evenodd" clip-rule="evenodd" d="M34.2365 89.7833C33.982 91.0765 34.8183 92.1541 36.1274 92.4056C37.4365 92.6211 38.6729 91.9386 38.9274 90.6454C39.1819 89.3523 38.3456 88.095 37.0365 87.8795C35.7638 87.5921 34.491 88.4543 34.2365 89.7833Z" fill="#F6C085"/>
<path fill-rule="evenodd" clip-rule="evenodd" d="M25.1818 89.7833C25.4363 91.0765 24.6 92.1541 23.2909 92.4056C21.9818 92.6211 20.7454 91.9386 20.4909 90.6454C20.2363 89.3523 21.0727 88.095 22.3818 87.8795C23.6909 87.5921 24.9273 88.4543 25.1818 89.7833Z" fill="#F6C085"/>
<path fill-rule="evenodd" clip-rule="evenodd" d="M36.2 81.773C34.9273 80.0487 32.9637 78.9352 30.8546 78.8633C30.8546 78.8633 30.8182 78.8633 30.7455 78.8633V78.7915C30.7455 78.7915 30.2364 78.8274 29.7273 78.8274C29.2182 78.7915 28.7091 78.7915 28.7091 78.7915V78.8633C28.6364 78.8633 28.6 78.8633 28.6 78.8633C26.4909 78.9352 24.5273 80.0487 23.2546 81.773C21.9818 83.4613 21.8 85.6165 21.9091 87.664C22.1637 92.9445 22.6364 98.8715 29.7637 98.9074C36.8909 98.9792 37.2909 92.9085 37.5455 87.664C37.6546 85.6165 37.4727 83.4613 36.2 81.773Z" fill="#F8C997"/>
<path fill-rule="evenodd" clip-rule="evenodd" d="M31.1817 93.5913C31.2181 93.6991 31.2181 93.8068 31.2181 93.9505C31.2181 94.8126 30.5272 95.5311 29.6545 95.5311C28.7817 95.5311 28.0908 94.8126 28.0908 93.9505C28.0908 93.8428 28.0908 93.6991 28.1272 93.5913H31.1817Z" fill="#D6825B"/>
<path fill-rule="evenodd" clip-rule="evenodd" d="M22.2731 89.2807C22.3822 87.341 22.3822 83.8207 24.1277 83.8207C24.164 83.8207 29.364 81.7013 35.364 81.7013C36.7458 81.7013 37.0731 85.5808 37.1095 88.0953C37.1095 88.6341 37.1458 89.137 37.1822 89.6758C37.1822 89.9991 37.2186 90.2865 37.2549 90.6098C37.2549 90.7175 37.2913 91.0768 37.4731 91.0408C37.6549 91.0049 37.6913 90.3224 37.6913 90.1787C37.8367 89.1729 37.8731 88.1312 37.8731 87.0895C37.8731 85.6886 37.8367 83.5333 36.6004 81.4858C36.164 80.7674 35.8731 79.9053 35.0004 79.2946C32.8186 77.8937 28.6004 78.5043 26.164 79.2946C24.4913 79.8334 22.7458 80.5159 22.164 82.2042C21.5095 84.0362 21.5095 85.473 21.7277 89.1011C21.764 89.4962 21.8004 89.8914 21.8367 90.2865C21.8731 90.5379 21.9095 90.8253 21.9822 91.0768C22.1277 91.6156 22.3095 91.2204 22.3095 90.8972C22.3095 90.3224 22.2367 89.7836 22.2731 89.2807Z" fill="#A74125"/>
<path fill-rule="evenodd" clip-rule="evenodd" d="M35.8364 79.9769C35.6182 74.7683 25.4 79.1148 24.0909 79.3662C20.8546 79.941 19.5091 77.8935 19.5091 77.8935C17.4364 83.7846 21.6909 88.6698 31.1091 82.5273C32.8546 81.4138 34.8909 82.1322 34.8909 82.1322C36.5637 84.2875 37.2909 84.6467 37.6182 87.6281C37.6182 87.6281 37.8727 85.5447 38.3091 83.3894C38.7818 81.1264 37.7273 79.7255 35.8364 79.9769Z" fill="#A74125"/>
<path fill-rule="evenodd" clip-rule="evenodd" d="M21.9819 91.0407C21.9819 91.2562 22.9274 95.6745 23.5819 96.5007C24.2365 97.3269 26.4183 98.5842 26.7819 98.656C27.0728 98.7278 28.9638 99.0152 29.7638 99.1589C30.5638 99.0152 32.4547 98.7278 32.7456 98.656C33.1092 98.5842 35.3274 97.2191 35.9456 96.5007C36.5638 95.7823 37.8365 90.43 37.4728 90.7893C36.1638 93.3756 35.9819 97.0755 30.7456 97.0755C30.491 97.0755 29.9819 96.6803 29.7638 96.5007C29.5456 96.6803 29.0365 97.0755 28.7819 97.0755C23.5092 97.0395 23.291 93.5911 21.9819 91.0407Z" fill="#A74125"/>
<path fill-rule="evenodd" clip-rule="evenodd" d="M25.1089 94.094C26.5634 94.8843 29.4362 94.3095 29.7271 93.7348C30.018 94.2736 32.8907 94.8843 34.3453 94.094C32.0543 93.627 30.8907 92.6213 29.7271 92.9445C28.5634 92.5853 27.3998 93.627 25.1089 94.094Z" fill="#A74125"/>
<path fill-rule="evenodd" clip-rule="evenodd" d="M24.2729 101.099C24.3093 101.243 24.5639 108.427 24.5639 108.427H26.0184L25.4729 100.56L24.2729 101.099Z" fill="#ED8322"/>
<path fill-rule="evenodd" clip-rule="evenodd" d="M34.8543 101.099C34.818 101.243 34.5634 108.427 34.5634 108.427H33.1089L33.6543 100.56L34.8543 101.099Z" fill="#ED8322"/>
<path fill-rule="evenodd" clip-rule="evenodd" d="M25.7271 90.8253C26.0543 90.8253 26.3453 90.538 26.3453 90.2147C26.3453 89.8914 26.0543 89.604 25.7271 89.604C25.3998 89.604 25.1089 89.8914 25.1089 90.2147C25.1453 90.5739 25.3998 90.8253 25.7271 90.8253Z" fill="#3E3B3A"/>
<path fill-rule="evenodd" clip-rule="evenodd" d="M33.6909 90.8253C34.0182 90.8253 34.3091 90.538 34.3091 90.2147C34.3091 89.8914 34.0182 89.604 33.6909 89.604C33.3637 89.604 33.0728 89.8914 33.0728 90.2147C33.0728 90.5739 33.3637 90.8253 33.6909 90.8253Z" fill="#3E3B3A"/>
<path fill-rule="evenodd" clip-rule="evenodd" d="M23.7999 88.3826C23.6181 88.0594 24.6726 87.8797 25.7271 87.9157C27.509 87.9157 28.4908 88.7778 27.6181 88.7419C26.9635 88.7059 23.8726 88.4904 23.7999 88.3826Z" fill="#ED7F22"/>
<path fill-rule="evenodd" clip-rule="evenodd" d="M35.6181 88.4547C35.8363 88.1314 34.7817 87.9518 33.6908 87.9518C31.909 87.9159 30.9272 88.778 31.7999 88.742C32.4545 88.742 35.5817 88.5624 35.6181 88.4547Z" fill="#ED7F22"/>
<path fill-rule="evenodd" clip-rule="evenodd" d="M28.418 92.5493C28.418 92.5134 28.418 92.4775 28.4543 92.4415C28.7089 91.9746 29.1816 90.5736 29.4362 89.0649C29.6907 89.0649 29.1816 91.6513 28.9634 92.2619C29.1816 92.226 29.4362 92.1901 29.7271 92.1901C30.4543 92.1901 31.0362 92.3338 31.0362 92.5134C31.0362 92.693 30.4543 92.8367 29.7271 92.8367C29.0362 92.8367 28.4543 92.7289 28.418 92.5493Z" fill="#E5B17D"/>
</g>
<path fill-rule="evenodd" clip-rule="evenodd" d="M47 81C47 80.4477 47.4721 80 48.0544 80H82.9456C83.5279 80 84 80.4477 84 81C84 81.5523 83.5279 82 82.9456 82H48.0544C47.4721 82 47 81.5523 47 81Z" fill="#495055"/>
<path fill-rule="evenodd" clip-rule="evenodd" d="M47 91C47 90.4477 47.4721 90 48.0544 90H82.9456C83.5279 90 84 90.4477 84 91C84 91.5523 83.5279 92 82.9456 92H48.0544C47.4721 92 47 91.5523 47 91Z" fill="#495055"/>
<path fill-rule="evenodd" clip-rule="evenodd" d="M13 12C13 11.4477 13.4721 11 14.0544 11H83.9456C84.5279 11 85 11.4477 85 12C85 12.5523 84.5279 13 83.9456 13H14.0544C13.4721 13 13 12.5523 13 12Z" fill="#495055"/>
<path fill-rule="evenodd" clip-rule="evenodd" d="M13 20C13 19.4477 13.4721 19 14.0544 19H83.9456C84.5279 19 85 19.4477 85 20C85 20.5523 84.5279 21 83.9456 21H14.0544C13.4721 21 13 20.5523 13 20Z" fill="#495055"/>
<path fill-rule="evenodd" clip-rule="evenodd" d="M53 33C53 32.4477 53.4721 32 54.0544 32H83.9456C84.5279 32 85 32.4477 85 33C85 33.5523 84.5279 34 83.9456 34H54.0544C53.4721 34 53 33.5523 53 33Z" fill="#495055"/>
<path fill-rule="evenodd" clip-rule="evenodd" d="M53 42C53 41.4477 53.4721 41 54.0544 41H83.9456C84.5279 41 85 41.4477 85 42C85 42.5523 84.5279 43 83.9456 43H54.0544C53.4721 43 53 42.5523 53 42Z" fill="#495055"/>
<path fill-rule="evenodd" clip-rule="evenodd" d="M47 101C47 100.448 47.4721 100 48.0544 100H82.9456C83.5279 100 84 100.448 84 101C84 101.552 83.5279 102 82.9456 102H48.0544C47.4721 102 47 101.552 47 101Z" fill="#495055"/>
<path fill-rule="evenodd" clip-rule="evenodd" d="M47 110C47 109.448 47.4784 109 48.0685 109H71.9315C72.5216 109 73 109.448 73 110C73 110.552 72.5216 111 71.9315 111H48.0685C47.4784 111 47 110.552 47 110Z" fill="#495055"/>
<path d="M38.2064 49.0201C36.7603 51.2317 34.5664 52.8487 32.0259 53.5756C29.4854 54.3025 26.7682 54.0906 24.3711 52.9787C21.9741 51.8667 20.0574 49.929 18.9716 47.52C17.8858 45.111 17.7034 42.3916 18.4579 39.8592C19.2124 37.3268 20.8533 35.1506 23.0804 33.7286C25.3076 32.3066 27.9722 31.7339 30.587 32.1151C33.2018 32.4963 35.5919 33.806 37.3204 35.8048C39.0488 37.8035 40 40.3576 40 43" stroke="#495055" stroke-width="2" stroke-linecap="round"/>
<path d="M34.6405 40.9543C35.0526 42.0905 35.112 43.3248 34.8107 44.4954C34.5095 45.6659 33.8617 46.7182 32.9523 47.5144C32.0429 48.3106 30.9142 48.8135 29.7141 48.9574C28.514 49.1012 27.2984 48.8793 26.2266 48.3205C25.1547 47.7618 24.2767 46.8924 23.7073 45.8262C23.138 44.76 22.904 43.5466 23.0359 42.3451C23.1678 41.1437 23.6595 40.01 24.4467 39.0928C25.2338 38.1755 26.2796 37.5173 27.4471 37.2045" stroke="#495055" stroke-width="2" stroke-linecap="round"/>
<defs>
<clipPath id="clip0">
<rect width="20" height="31" fill="white" transform="translate(19 77.4268)"/>
</clipPath>
</defs>
</svg>
