<svg width="24" height="24" viewBox="0 0 24 24" fill="none" xmlns="http://www.w3.org/2000/svg">
<path d="M5.733 24C3.813 24 2.251 22.439 2.25 20.52V4.983C2.25 3.062 3.812 1.5 5.733 1.5H7.5C7.914 1.5 8.25 1.836 8.25 2.25C8.25 2.664 7.914 3 7.5 3H5.733C4.64 3 3.75 3.89 3.75 4.983V18H14.25V15.75C14.25 15.336 14.586 15 15 15C15.414 15 15.75 15.336 15.75 15.75V20.518C15.75 22.438 14.188 24 12.268 24H5.733ZM3.75 20.518C3.75 21.611 4.64 22.5 5.732 22.5H12.267C13.36 22.5 14.25 21.611 14.25 20.518V19.5H3.75V20.518Z" fill="#623EF8"/>
<path d="M15 13.5C11.278 13.5 8.25 10.472 8.25 6.75C8.25 3.028 11.278 0 15 0C18.722 0 21.75 3.028 21.75 6.75C21.75 10.472 18.722 13.5 15 13.5ZM15 1.5C12.105 1.5 9.75 3.855 9.75 6.75C9.75 9.645 12.105 12 15 12C17.895 12 20.25 9.645 20.25 6.75C20.25 3.855 17.895 1.5 15 1.5Z" fill="#623EF8"/>
<path d="M14.171 9.92886C13.844 9.92886 13.533 9.82486 13.27 9.62686C13.217 9.58686 13.164 9.54086 13.114 9.49186L11.613 7.98986C11.471 7.84886 11.393 7.65986 11.393 7.45986C11.393 7.25986 11.471 7.07086 11.613 6.92986C11.754 6.78786 11.943 6.70986 12.143 6.70986C12.343 6.70986 12.532 6.78786 12.673 6.92986L14.173 8.42986L17.073 4.55686C17.214 4.36886 17.439 4.25586 17.674 4.25586C17.837 4.25586 17.993 4.30786 18.123 4.40586C18.454 4.65386 18.521 5.12486 18.274 5.45486L15.374 9.32786C15.132 9.64986 14.78 9.85686 14.383 9.91386C14.312 9.92386 14.241 9.92886 14.171 9.92886Z" fill="#623EF8"/>
</svg>
