<svg width="40" height="40" viewBox="0 0 40 40" fill="none" xmlns="http://www.w3.org/2000/svg">
<path d="M3.75 35C1.68167 35 0 33.3183 0 31.25V8.75C0 6.68167 1.68167 5 3.75 5H36.25C38.3183 5 40 6.68167 40 8.75V31.25C40 33.3183 38.3183 35 36.25 35H3.75ZM2.5 31.25C2.5 31.94 3.06 32.5 3.75 32.5H36.25C36.94 32.5 37.5 31.94 37.5 31.25V15H2.5V31.25ZM37.5 12.5V8.75C37.5 8.06 36.94 7.5 36.25 7.5H3.75C3.06 7.5 2.5 8.06 2.5 8.75V12.5H37.5Z" fill="#51D375"/>
<path d="M8.75 22.5C8.06 22.5 7.5 21.94 7.5 21.25C7.5 20.56 8.06 20 8.75 20H22.5C23.19 20 23.75 20.56 23.75 21.25C23.75 21.94 23.19 22.5 22.5 22.5H8.75ZM8.75 27.5C8.06 27.5 7.5 26.94 7.5 26.25C7.5 25.56 8.06 25 8.75 25H17.5C18.19 25 18.75 25.56 18.75 26.25C18.75 26.94 18.19 27.5 17.5 27.5H8.75Z" fill="#51D375"/>
</svg>
