<svg width="40" height="40" viewBox="0 0 40 40" fill="none" xmlns="http://www.w3.org/2000/svg">
<path d="M1.25 30C0.56 30 0 29.4383 0 28.75C0.005 21.86 5.615 16.2533 12.505 16.2533C14.205 16.255 15.8517 16.5917 17.4067 17.2533C17.7133 17.3833 17.9517 17.6267 18.0767 17.9367C18.2017 18.2467 18.1983 18.5867 18.0667 18.8933C17.87 19.355 17.42 19.6533 16.9167 19.6533C16.7483 19.6533 16.5833 19.62 16.4267 19.5533C15.1817 19.0233 13.865 18.7533 12.5117 18.7533C9.835 18.7533 7.325 19.7917 5.435 21.6783C3.54333 23.5667 2.50167 26.0783 2.5 28.75C2.5 29.44 1.93833 30 1.25 30ZM12.5 16.25C8.02 16.25 4.375 12.605 4.375 8.125C4.375 3.645 8.02 0 12.5 0C16.98 0 20.625 3.645 20.625 8.125C20.625 12.605 16.98 16.25 12.5 16.25ZM12.5 2.5C9.39833 2.5 6.875 5.02333 6.875 8.125C6.875 11.2267 9.39833 13.75 12.5 13.75C15.6017 13.75 18.125 11.2267 18.125 8.125C18.125 5.02333 15.6017 2.5 12.5 2.5ZM28.75 40C22.5467 40 17.5 34.9533 17.5 28.75C17.5 22.5467 22.5467 17.5 28.75 17.5C34.9533 17.5 40 22.5467 40 28.75C40 34.9533 34.9533 40 28.75 40ZM28.75 20C23.925 20 20 23.925 20 28.75C20 33.575 23.925 37.5 28.75 37.5C33.575 37.5 37.5 33.575 37.5 28.75C37.5 23.925 33.575 20 28.75 20Z" fill="#51D375"/>
<path d="M27.3599 34.0485C26.8166 34.0485 26.2966 33.8751 25.8599 33.5451C25.7699 33.4785 25.6799 33.4001 25.5949 33.3151L23.0949 30.8151C22.8583 30.5785 22.7283 30.2651 22.7283 29.9318C22.7283 29.5985 22.8583 29.2835 23.0949 29.0485C23.3316 28.8135 23.6449 28.6818 23.9783 28.6818C24.3116 28.6818 24.6266 28.8118 24.8616 29.0485L27.3616 31.5485L32.2049 25.0918C32.4399 24.7785 32.8133 24.5918 33.2049 24.5918C33.4766 24.5918 33.7349 24.6785 33.9533 24.8401C34.5066 25.2551 34.6183 26.0401 34.2049 26.5918L29.3633 33.0485C28.9599 33.5835 28.3749 33.9301 27.7133 34.0235C27.5966 34.0401 27.4783 34.0485 27.3599 34.0485Z" fill="#51D375"/>
</svg>
