<svg width="40" height="40" viewBox="0 0 40 40" fill="none" xmlns="http://www.w3.org/2000/svg">
<path d="M8.195 32.4983H1.25C0.56 32.4983 0 31.9383 0 31.2483C0 30.5583 0.56 29.9983 1.25 29.9983H5.645C3.54167 26.9766 2.43833 23.3416 2.52 19.6316C2.62167 14.9566 4.53833 10.6 7.915 7.3683C11.1883 4.23497 15.4883 2.5083 20.0233 2.5083C22.3367 2.5083 24.595 2.95997 26.735 3.8483C27.0433 3.97663 27.2833 4.21663 27.4117 4.52497C27.5383 4.8333 27.5383 5.1733 27.41 5.48163C27.215 5.94997 26.7617 6.25163 26.255 6.25163C26.09 6.25163 25.9283 6.21997 25.775 6.15497C23.9417 5.3933 22.0067 5.00663 20.0233 5.00663C16.1367 5.00663 12.45 6.48663 9.64333 9.1733C6.74833 11.945 5.105 15.6783 5.01833 19.685C4.95167 22.7583 5.82333 25.7516 7.5 28.2816V23.7466C7.5 23.0566 8.06 22.4966 8.75 22.4966C9.44 22.4966 10 23.0583 10 23.7483V31.2483C10 31.9383 9.44 32.4983 8.75 32.4983H8.35333C8.32667 32.5016 8.30167 32.5033 8.27833 32.5033C8.25833 32.5033 8.22333 32.5 8.195 32.4983ZM19.9917 37.5016C17.6717 37.5016 15.4083 37.0483 13.2617 36.155C12.9533 36.0266 12.7133 35.7866 12.5867 35.4766C12.46 35.1683 12.46 34.8283 12.5883 34.52C12.7833 34.0516 13.2367 33.75 13.7433 33.75C13.9083 33.75 14.0683 33.7816 14.2217 33.845C16.0633 34.6116 18.0033 35.0016 19.9917 35.0016C23.885 35.0016 27.575 33.5166 30.3817 30.8216C33.2733 28.0466 34.9117 24.3116 34.9933 20.305C35.0567 17.23 34.18 14.2383 32.4983 11.7083V16.2483C32.4983 16.9383 31.9383 17.4983 31.2483 17.4983C30.5583 17.4983 30 16.9366 30 16.2483V8.7483C30 8.0583 30.56 7.4983 31.25 7.4983H38.75C39.44 7.4983 40 8.0583 40 8.7483C40 9.4383 39.44 9.9983 38.75 9.9983H34.3583C36.4633 13.0166 37.57 16.6483 37.495 20.3566C37.3983 25.03 35.4883 29.3883 32.115 32.6266C28.8383 35.77 24.5333 37.5016 19.9917 37.5016Z" fill="#51D375"/>
</svg>
