<svg width="40" height="40" viewBox="0 0 40 40" fill="none" xmlns="http://www.w3.org/2000/svg">
<path d="M22.5 28.75C20.4317 28.75 18.75 27.0683 18.75 25V18.75H17.5C16.81 18.75 16.25 18.19 16.25 17.5C16.25 16.81 16.81 16.25 17.5 16.25H18.75C20.1283 16.25 21.25 17.3717 21.25 18.75V25C21.25 25.69 21.81 26.25 22.5 26.25H23.75C24.44 26.25 25 26.81 25 27.5C25 28.19 24.44 28.75 23.75 28.75H22.5Z" fill="#51D375"/>
<path d="M19.375 13.75C20.4105 13.75 21.25 12.9105 21.25 11.875C21.25 10.8395 20.4105 10 19.375 10C18.3395 10 17.5 10.8395 17.5 11.875C17.5 12.9105 18.3395 13.75 19.375 13.75Z" fill="#51D375"/>
<path d="M20 40C8.97167 40 0 31.0283 0 20C0 8.97167 8.97167 0 20 0C31.0283 0 40 8.97167 40 20C40 31.0283 31.0283 40 20 40ZM20 2.5C10.35 2.5 2.5 10.35 2.5 20C2.5 29.65 10.35 37.5 20 37.5C29.65 37.5 37.5 29.65 37.5 20C37.5 10.35 29.65 2.5 20 2.5Z" fill="#51D375"/>
</svg>
