<svg width="40" height="40" viewBox="0 0 40 40" fill="none" xmlns="http://www.w3.org/2000/svg">
<path d="M32.5 40C23.31 40 15.4183 33.8583 13.1383 25H7.5C6.81 25 6.25 24.44 6.25 23.75C6.25 23.06 6.81 22.5 7.5 22.5H12.6583C12.5533 21.665 12.5 20.8267 12.5 20C12.5 19.1733 12.5533 18.335 12.6583 17.5H7.5C6.81 17.5 6.25 16.94 6.25 16.25C6.25 15.56 6.81 15 7.5 15H13.1383C15.4183 6.14167 23.31 0 32.5 0C33.19 0 33.75 0.56 33.75 1.25C33.75 1.94 33.19 2.5 32.5 2.5C24.7167 2.5 17.9317 7.6 15.73 15H27.5C28.19 15 28.75 15.56 28.75 16.25C28.75 16.94 28.19 17.5 27.5 17.5H15.1833C15.0617 18.3383 15 19.1783 15 20C15 20.8217 15.0617 21.6617 15.1833 22.5H22.5C23.19 22.5 23.75 23.06 23.75 23.75C23.75 24.44 23.19 25 22.5 25H15.73C17.9317 32.4 24.715 37.5 32.5 37.5C33.19 37.5 33.75 38.06 33.75 38.75C33.75 39.44 33.19 40 32.5 40Z" fill="#51D375"/>
</svg>
