<svg width="40" height="40" viewBox="0 0 40 40" fill="none" xmlns="http://www.w3.org/2000/svg">
<g clip-path="url(#clip0)">
<path d="M7.5 35C4.39833 35 1.875 32.4767 1.875 29.375C1.875 26.2733 4.39833 23.75 7.5 23.75C10.6017 23.75 13.125 26.2733 13.125 29.375C13.125 32.4767 10.6017 35 7.5 35ZM7.5 26.25C5.77667 26.25 4.375 27.6517 4.375 29.375C4.375 31.0983 5.77667 32.5 7.5 32.5C9.22333 32.5 10.625 31.0983 10.625 29.375C10.625 27.6517 9.22333 26.25 7.5 26.25Z" fill="#51D375"/>
<path d="M1.249 40C1.04567 40 0.842334 39.9483 0.660668 39.8533C0.0523344 39.53 -0.177666 38.7717 0.145668 38.1633C0.927334 36.6983 2.114 35.5117 3.57733 34.7317C4.779 34.0917 6.13067 33.7533 7.48567 33.7533C10.5773 33.7533 13.4007 35.4433 14.8523 38.1633C15.1773 38.7717 14.9457 39.53 14.3373 39.855C14.1573 39.9483 13.954 40 13.7507 40C13.2873 40 12.8657 39.7467 12.6473 39.3383C11.6323 37.4333 9.65567 36.25 7.489 36.25C6.54067 36.25 5.59567 36.4867 4.754 36.935C3.729 37.4817 2.899 38.3117 2.35233 39.3367C2.13567 39.7467 1.71233 40 1.249 40ZM38.7507 40C38.2873 40 37.864 39.7467 37.6473 39.3383C36.914 37.965 35.689 36.9567 34.199 36.5033C33.6423 36.3333 33.0673 36.2483 32.494 36.2483C31.549 36.2483 30.6023 36.4867 29.7557 36.9383C28.7307 37.485 27.9007 38.315 27.354 39.34C27.1357 39.7467 26.7123 40 26.2507 40C26.0473 40 25.844 39.9483 25.6623 39.8533C25.054 39.5283 24.824 38.77 25.1473 38.1617C25.929 36.6967 27.114 35.51 28.579 34.73C28.9357 34.5383 29.3073 34.375 29.6857 34.2383C28.0073 33.2617 26.8757 31.4433 26.8757 29.3733C26.8757 26.2717 29.399 23.7483 32.5007 23.7483C35.6023 23.7483 38.1257 26.2717 38.1257 29.3733C38.1257 31.4433 36.994 33.2617 35.3157 34.2383C37.269 34.9367 38.8707 36.3167 39.854 38.16C40.0107 38.455 40.044 38.7933 39.9473 39.1133C39.8507 39.4317 39.634 39.695 39.339 39.8517C39.159 39.9483 38.9557 40 38.7507 40ZM32.5007 26.25C30.7773 26.25 29.3757 27.6517 29.3757 29.375C29.3757 31.0983 30.7773 32.5 32.5007 32.5C34.224 32.5 35.6257 31.0983 35.6257 29.375C35.6257 27.6517 34.224 26.25 32.5007 26.25ZM20.0007 11.25C16.899 11.25 14.3757 8.72667 14.3757 5.625C14.3757 2.52333 16.899 0 20.0007 0C23.1023 0 25.6257 2.52333 25.6257 5.625C25.6257 8.72667 23.1023 11.25 20.0007 11.25ZM20.0007 2.5C18.2773 2.5 16.8757 3.90167 16.8757 5.625C16.8757 7.34833 18.2773 8.75 20.0007 8.75C21.724 8.75 23.1257 7.34833 23.1257 5.625C23.1257 3.90167 21.724 2.5 20.0007 2.5Z" fill="#51D375"/>
<path d="M25.415 15C25.0483 15 24.7016 14.84 24.4633 14.56C23.3483 13.2517 21.72 12.5 19.9933 12.5C18.6016 12.5 17.2533 12.9967 16.195 13.8967C15.9583 14.1 15.735 14.3233 15.5333 14.56C15.295 14.84 14.9483 15 14.5816 15C14.285 15 13.9966 14.8933 13.77 14.7017C13.5166 14.485 13.3616 14.1833 13.335 13.85C13.3083 13.5167 13.4133 13.1933 13.63 12.94C13.9183 12.6 14.2366 12.2833 14.575 11.995C16.0866 10.7067 18.01 9.99833 19.9866 9.99833C20.2116 9.99833 20.4383 10.0067 20.665 10.025C22.8933 10.2033 24.9183 11.2383 26.365 12.94C26.5816 13.195 26.6866 13.5167 26.66 13.85C26.6333 14.1833 26.4783 14.485 26.225 14.7017C26 14.8933 25.7116 15 25.415 15ZM19.9983 35.0017C18.1633 35.0017 16.36 34.67 14.64 34.0133C14.3283 33.895 14.0816 33.6617 13.945 33.3567C13.8083 33.0517 13.7983 32.7117 13.9183 32.4C14.1016 31.9183 14.57 31.595 15.085 31.595C15.2383 31.595 15.3883 31.6233 15.5316 31.6783C16.965 32.225 18.4683 32.5017 19.9983 32.5017C21.555 32.5017 23.0833 32.215 24.5383 31.65C24.6833 31.5933 24.835 31.565 24.99 31.565C25.5016 31.565 25.97 31.885 26.155 32.3633C26.405 33.0067 26.085 33.7317 25.4416 33.9817C23.6983 34.6583 21.865 35.0017 19.9983 35.0017ZM6.30996 22.5C5.65996 22.5 5.12496 22.0117 5.06663 21.3633C5.01996 20.855 4.99829 20.4217 4.99829 20C4.99663 15.8817 6.71996 11.9033 9.72663 9.08833C9.95996 8.87 10.2633 8.75 10.5816 8.75C10.9266 8.75 11.2583 8.895 11.4933 9.145C11.7216 9.38833 11.8416 9.70667 11.83 10.04C11.8183 10.3733 11.6783 10.6833 11.435 10.9117C8.93163 13.2567 7.49663 16.57 7.49829 20C7.49829 20.3433 7.51663 20.705 7.55663 21.1367C7.61996 21.8217 7.11329 22.4317 6.42663 22.495C6.38329 22.4983 6.34663 22.5 6.30996 22.5ZM33.6866 22.5C33.65 22.5 33.615 22.4983 33.5783 22.495C33.2433 22.465 32.9416 22.3083 32.7283 22.0517C32.5133 21.795 32.4116 21.4717 32.4416 21.1383C32.4816 20.6867 32.5 20.325 32.5 20C32.5016 16.5683 31.0666 13.2567 28.5616 10.9133C28.0583 10.4417 28.0333 9.64833 28.5033 9.14667C28.7383 8.895 29.07 8.75167 29.415 8.75167C29.7333 8.75167 30.0366 8.87167 30.2683 9.08833C33.2783 11.9033 35.0016 15.88 35 20C35 20.4033 34.9783 20.835 34.9316 21.36C34.8733 22.01 34.3383 22.5 33.6866 22.5Z" fill="#51D375"/>
</g>
<defs>
<clipPath id="clip0">
<rect width="40" height="40" fill="white"/>
</clipPath>
</defs>
</svg>
