<svg width="16" height="16" viewBox="0 0 16 16" fill="none" xmlns="http://www.w3.org/2000/svg">
<path d="M8 9.99982C7.724 9.99982 7.5 9.77582 7.5 9.49982V8.82915C7.49933 8.19449 7.90133 7.62582 8.5 7.41449C9.098 7.20315 9.5 6.63449 9.5 6.00049C9.5 5.59982 9.344 5.22315 9.06067 4.93982C8.778 4.65649 8.40133 4.50049 8 4.50049C7.59933 4.50049 7.22267 4.65649 6.93933 4.93982C6.656 5.22249 6.5 5.59915 6.5 5.99982C6.5 6.27515 6.276 6.49982 6 6.49982C5.724 6.49982 5.5 6.27515 5.5 5.99982C5.5 5.33182 5.76067 4.70449 6.23267 4.23249C6.70467 3.76049 7.33267 3.50049 8 3.50049C9.37867 3.50049 10.5 4.62249 10.5 6.00049C10.5 7.05782 9.83 8.00449 8.83333 8.35715C8.634 8.42782 8.5 8.61715 8.5 8.82849V9.49982C8.5 9.77582 8.276 9.99982 8 9.99982Z" fill="#959CA5"/>
<path d="M8 12.5C8.41421 12.5 8.75 12.1642 8.75 11.75C8.75 11.3358 8.41421 11 8 11C7.58579 11 7.25 11.3358 7.25 11.75C7.25 12.1642 7.58579 12.5 8 12.5Z" fill="#959CA5"/>
<path d="M8 16C3.58867 16 0 12.4113 0 8C0 3.58867 3.58867 0 8 0C12.4113 0 16 3.58867 16 8C16 12.4113 12.4113 16 8 16ZM8 1C4.14 1 1 4.14 1 8C1 11.86 4.14 15 8 15C11.86 15 15 11.86 15 8C15 4.14 11.86 1 8 1Z" fill="#959CA5"/>
</svg>
