<svg width="20" height="20" viewBox="0 0 20 20" fill="none" xmlns="http://www.w3.org/2000/svg">
<g clip-path="url(#clip0)">
<path d="M10.833 10.0002C10.833 10.1107 10.8769 10.2167 10.955 10.2948C11.0332 10.3729 11.1392 10.4168 11.2497 10.4168H18.333C18.7196 10.4162 19.0901 10.2623 19.3635 9.98896C19.6368 9.71562 19.7907 9.34507 19.7913 8.9585V7.29183C19.7909 6.90519 19.6371 6.53451 19.3637 6.26112C19.0903 5.98772 18.7196 5.83394 18.333 5.8335H11.2497C11.1392 5.8335 11.0332 5.87739 10.955 5.95554C10.8769 6.03368 10.833 6.13966 10.833 6.25016V10.0002ZM3.12467 10.4168H9.16634C9.27685 10.4168 9.38283 10.3729 9.46097 10.2948C9.53911 10.2167 9.58301 10.1107 9.58301 10.0002V6.25016C9.58301 6.13966 9.53911 6.03368 9.46097 5.95554C9.38283 5.87739 9.27685 5.8335 9.16634 5.8335H1.66634C1.2797 5.83394 0.909026 5.98772 0.635631 6.26112C0.362236 6.53451 0.208449 6.90519 0.208008 7.29183V8.9585C0.208669 9.34507 0.362526 9.71562 0.635874 9.98896C0.909221 10.2623 1.27977 10.4162 1.66634 10.4168H3.12467ZM9.58301 12.0835C9.58301 11.973 9.53911 11.867 9.46097 11.7889C9.38283 11.7107 9.27685 11.6668 9.16634 11.6668H2.29134C2.18083 11.6668 2.07485 11.7107 1.99671 11.7889C1.91857 11.867 1.87467 11.973 1.87467 12.0835V18.5418C1.87534 18.9284 2.02919 19.299 2.30254 19.5723C2.57589 19.8456 2.94644 19.9995 3.33301 20.0002H9.16634C9.27685 20.0002 9.38283 19.9563 9.46097 19.8781C9.53911 19.8 9.58301 19.694 9.58301 19.5835V12.0835ZM11.2497 11.6668C11.1392 11.6668 11.0332 11.7107 10.955 11.7889C10.8769 11.867 10.833 11.973 10.833 12.0835V19.5835C10.833 19.694 10.8769 19.8 10.955 19.8781C11.0332 19.9563 11.1392 20.0002 11.2497 20.0002H16.6663C17.0529 19.9995 17.4235 19.8456 17.6968 19.5723C17.9702 19.299 18.124 18.9284 18.1247 18.5418V12.0835C18.1247 11.973 18.0808 11.867 18.0026 11.7889C17.9245 11.7107 17.8185 11.6668 17.708 11.6668H11.2497Z" fill="#959CA5"/>
<path d="M10.8691 5.58925C10.9704 5.69022 11.096 5.76342 11.2338 5.8018C11.3715 5.84019 11.5169 5.84247 11.6558 5.80842C12.6416 5.56759 15.0141 4.93009 15.7391 4.20509C16.2011 3.7424 16.4604 3.11511 16.46 2.46124C16.4595 1.80736 16.1993 1.18045 15.7366 0.718422C15.2739 0.256392 14.6466 -0.00290961 13.9928 -0.00244077C13.3389 -0.00197193 12.712 0.258229 12.2499 0.720922C11.6191 1.35176 11.0174 3.28509 10.6466 4.80426C10.6165 4.94331 10.621 5.08765 10.6598 5.22455C10.6986 5.36144 10.7705 5.48669 10.8691 5.58925ZM13.4308 1.89926C13.5041 1.82223 13.5922 1.76066 13.6897 1.71817C13.7872 1.67567 13.8922 1.65311 13.9986 1.65181C14.1049 1.65052 14.2105 1.67051 14.309 1.71061C14.4075 1.75072 14.497 1.81013 14.5722 1.88534C14.6474 1.96055 14.7068 2.05005 14.7469 2.14856C14.787 2.24708 14.807 2.35262 14.8057 2.45898C14.8044 2.56534 14.7819 2.67036 14.7394 2.76787C14.6969 2.86538 14.6353 2.9534 14.5583 3.02676C13.9626 3.3719 13.3221 3.63325 12.6549 3.80342C12.8241 3.13583 13.0852 2.49498 13.4308 1.89926ZM9.76745 4.80092C9.39745 3.28676 8.79578 1.35259 8.16662 0.720922C7.70459 0.25845 7.07776 -0.00153896 6.42404 -0.00185152C5.77032 -0.00216408 5.14325 0.257226 4.68078 0.719255C4.21831 1.18128 3.95832 1.80811 3.95801 2.46183C3.9577 3.11555 4.21709 3.74262 4.67911 4.20509C5.40245 4.93009 7.77495 5.56759 8.76245 5.80842C8.90136 5.84247 9.04669 5.84019 9.18447 5.8018C9.32224 5.76342 9.44782 5.69022 9.54911 5.58925C9.64753 5.48594 9.71895 5.35995 9.75703 5.22244C9.79512 5.08493 9.7987 4.94015 9.76745 4.80092ZM5.85828 3.02676C5.78425 2.95278 5.72551 2.86494 5.68542 2.76826C5.64534 2.67159 5.62468 2.56796 5.62465 2.4633C5.62461 2.35864 5.64518 2.255 5.6852 2.15829C5.72521 2.06158 5.78389 1.9737 5.85786 1.89967C5.93184 1.82564 6.01968 1.7669 6.11636 1.72681C6.21303 1.68673 6.31666 1.66608 6.42132 1.66604C6.63269 1.66596 6.83543 1.74985 6.98495 1.89926C7.33088 2.4948 7.59201 3.1357 7.76078 3.80342C7.09363 3.63413 6.45331 3.37273 5.85828 3.02676Z" fill="#959CA5"/>
</g>
<defs>
<clipPath id="clip0">
<rect width="20" height="20" fill="white"/>
</clipPath>
</defs>
</svg>
