<svg width="16" height="16" viewBox="0 0 16 16" fill="none" xmlns="http://www.w3.org/2000/svg">
<g clip-path="url(#clip0)">
<path d="M15.4962 15.9967C15.3629 15.9967 15.2368 15.9447 15.1428 15.85L10.7995 11.506C10.2922 11.94 9.72085 12.294 9.09752 12.5587C8.27818 12.9067 7.41752 13.0833 6.53952 13.0833C5.70152 13.0833 4.87818 12.9227 4.09085 12.6047C2.47018 11.9507 1.20152 10.7053 0.518183 9.09667C-0.16515 7.48868 -0.181816 5.71001 0.472183 4.09001C1.12618 2.47001 2.37152 1.20068 3.97952 0.517342C4.79885 0.168676 5.65885 -0.00732422 6.53752 -0.00732422C7.37552 -0.00732422 8.19885 0.154009 8.98618 0.471342C10.6068 1.12534 11.8755 2.37068 12.5589 3.97934C13.2422 5.58801 13.2589 7.36601 12.6048 8.98601C12.3369 9.65001 11.9675 10.2587 11.5055 10.798L15.8502 15.1433C16.0448 15.338 16.0448 15.6553 15.8502 15.8507C15.7555 15.9447 15.6295 15.9967 15.4962 15.9967ZM6.53752 0.992676C5.79418 0.992676 5.06485 1.14201 4.37085 1.43734C3.00818 2.01668 1.95285 3.09134 1.39885 4.46401C0.84485 5.83668 0.85885 7.34268 1.43752 8.70534C2.01685 10.068 3.09152 11.1233 4.46418 11.6773C5.13152 11.9467 5.82952 12.0827 6.53885 12.0827C7.28218 12.0827 8.01152 11.9333 8.70552 11.638C9.35485 11.362 9.93685 10.9727 10.4348 10.4807C10.4415 10.4713 10.4488 10.4633 10.4562 10.456C10.4668 10.4453 10.4768 10.4367 10.4862 10.43C10.9948 9.91601 11.3988 9.30134 11.6769 8.61134C12.2309 7.23868 12.2169 5.73268 11.6375 4.37001C11.0589 3.00734 9.98352 1.95201 8.61085 1.39801C7.94485 1.12934 7.24685 0.992676 6.53752 0.992676Z" fill="#959CA5"/>
</g>
<defs>
<clipPath id="clip0">
<rect width="16" height="16" fill="white"/>
</clipPath>
</defs>
</svg>
