<svg width="16" height="16" viewBox="0 0 16 16" fill="none" xmlns="http://www.w3.org/2000/svg">
<path d="M5.43777 15.9918C4.9871 15.9918 4.55577 15.8251 4.2231 15.5224C3.82444 15.1598 3.60977 14.6424 3.63444 14.1038L3.68244 13.1678C3.7051 12.7244 3.3631 12.3451 2.91977 12.3218C2.90577 12.3211 2.89177 12.3204 2.87844 12.3204C2.86444 12.3204 2.8511 12.3204 2.8371 12.3218L1.9031 12.3691C1.87177 12.3704 1.8391 12.3718 1.8071 12.3718C1.36177 12.3718 0.933104 12.2071 0.601104 11.9078C0.243104 11.5851 0.0317702 11.1424 0.00643683 10.6604C-0.0222298 10.1158 0.19377 9.59377 0.59777 9.22778L1.29244 8.60111C1.45177 8.45711 1.54577 8.25911 1.5571 8.04378C1.56777 7.82844 1.49444 7.62178 1.35044 7.46177C1.33244 7.44177 1.3131 7.42244 1.29244 7.40378L0.59777 6.77311C0.240437 6.44911 0.0311035 6.00578 0.00777017 5.52378C-0.0162298 5.04244 0.14977 4.58044 0.47377 4.22311C0.815104 3.84644 1.30177 3.63044 1.80844 3.63044C1.83777 3.63044 1.86777 3.63111 1.8971 3.63244L2.83177 3.67977C2.84577 3.68111 2.87377 3.68111 2.87377 3.68111C3.3031 3.68111 3.65644 3.34577 3.6791 2.91844C3.68044 2.89044 3.68044 2.86177 3.6791 2.83377L3.63444 1.89644C3.58777 0.901108 4.3591 0.0537747 5.35377 0.00710807C5.38244 0.00577474 5.4111 0.00510807 5.43977 0.00510807C5.94644 0.00510807 6.43244 0.220441 6.77377 0.595775L7.4011 1.28844C7.54577 1.44911 7.7431 1.54311 7.95777 1.55444C7.97244 1.55511 7.9871 1.55577 8.00177 1.55577C8.20244 1.55577 8.38777 1.48444 8.53844 1.34911C8.5591 1.33044 8.57844 1.31111 8.59644 1.29044L9.22977 0.595775C9.55177 0.239108 9.9951 0.0291081 10.4771 0.00444141C10.5078 0.00310807 10.5378 0.00244141 10.5678 0.00244141C11.0164 0.00244141 11.4471 0.167775 11.7798 0.468441C12.1844 0.833775 12.4004 1.35577 12.3724 1.90044L12.3251 2.83377C12.3031 3.27711 12.6458 3.65577 13.0891 3.67844C13.1031 3.67911 13.1164 3.67977 13.1298 3.67977C13.1424 3.67977 13.1551 3.67977 13.1678 3.67911L14.1011 3.63177C14.1324 3.63044 14.1624 3.62977 14.1931 3.62977C14.6411 3.62977 15.0704 3.79577 15.4031 4.09777C15.7604 4.42177 15.9704 4.86578 15.9944 5.34711C16.0211 5.89044 15.8051 6.41111 15.4018 6.77577L14.7071 7.40244C14.5478 7.54644 14.4538 7.74444 14.4431 7.95977C14.4318 8.17511 14.5058 8.38177 14.6498 8.54111C14.6684 8.56178 14.6871 8.58111 14.7071 8.59844L15.4018 9.22577C15.7598 9.54911 15.9704 9.99244 15.9951 10.4744C16.0198 10.9564 15.8551 11.4191 15.5318 11.7764C15.1898 12.1544 14.7004 12.3711 14.1884 12.3711C14.1598 12.3711 14.1304 12.3704 14.1011 12.3691L13.1664 12.3218C13.1518 12.3211 13.1371 12.3204 13.1224 12.3204C12.9211 12.3204 12.7358 12.3924 12.5851 12.5278C12.4251 12.6718 12.3311 12.8691 12.3204 13.0844C12.3191 13.1118 12.3191 13.1398 12.3204 13.1678L12.3678 14.1011C12.3891 14.5844 12.2218 15.0464 11.8958 15.4031C11.5698 15.7598 11.1251 15.9678 10.6438 15.9891C10.6151 15.9904 10.5851 15.9911 10.5551 15.9911C10.0551 15.9911 9.57244 15.7771 9.2311 15.4044L8.60177 14.7084C8.4491 14.5398 8.2311 14.4431 8.00244 14.4431C7.80244 14.4431 7.6111 14.5164 7.4631 14.6504C7.4431 14.6684 7.4231 14.6878 7.4051 14.7084L6.77444 15.4031C6.4331 15.7771 5.94577 15.9918 5.43777 15.9918ZM2.87844 11.3211C2.9091 11.3211 2.93977 11.3218 2.97044 11.3238C3.9651 11.3751 4.73244 12.2258 4.6811 13.2198L4.6331 14.1531C4.62244 14.3911 4.71777 14.6218 4.89577 14.7838C5.04644 14.9211 5.23377 14.9931 5.4371 14.9931C5.45044 14.9931 5.4631 14.9931 5.47644 14.9924C5.6911 14.9824 5.88977 14.8891 6.03444 14.7298L6.66377 14.0364C6.70377 13.9918 6.7471 13.9484 6.79244 13.9071C7.1251 13.6071 7.55444 13.4418 8.00244 13.4418C8.5131 13.4418 9.00177 13.6584 9.34377 14.0364L9.9711 14.7304C10.1218 14.8951 10.3391 14.9898 10.5684 14.9898L10.6011 14.9891C11.0438 14.9691 11.3891 14.5918 11.3691 14.1478L11.3218 13.2178C11.3184 13.1564 11.3184 13.0944 11.3218 13.0324C11.3464 12.5511 11.5571 12.1078 11.9151 11.7851C12.2478 11.4851 12.6758 11.3198 13.1211 11.3198C13.1531 11.3198 13.1851 11.3204 13.2178 11.3224L14.1504 11.3698C14.1664 11.3704 14.1818 11.3711 14.1964 11.3711C14.4204 11.3711 14.6364 11.2744 14.7891 11.1051C14.9338 10.9451 15.0071 10.7384 14.9964 10.5238C14.9858 10.3084 14.8918 10.1111 14.7318 9.96644L14.0371 9.33978C13.9918 9.29911 13.9484 9.25577 13.9071 9.20977C13.2398 8.47111 13.2978 7.32644 14.0371 6.65844L14.7318 6.03178C14.9118 5.86911 15.0078 5.63711 14.9958 5.39444C14.9851 5.17911 14.8918 4.98111 14.7318 4.83644C14.5831 4.70177 14.3918 4.62777 14.1924 4.62777C14.1784 4.62777 14.1651 4.62844 14.1511 4.62911L13.2184 4.67644C13.1891 4.67777 13.1591 4.67844 13.1298 4.67844C13.0991 4.67844 13.0684 4.67777 13.0384 4.67577C12.0444 4.62577 11.2764 3.77644 11.3264 2.78244L11.3738 1.84844C11.3864 1.60511 11.2898 1.37244 11.1091 1.20977C10.9584 1.07311 10.7738 1.00177 10.5744 1.00177C10.5598 1.00177 10.5444 1.00244 10.5291 1.00311C10.3131 1.01377 10.1151 1.10777 9.9711 1.26777L9.3391 1.96111C9.29977 2.00511 9.2551 2.04977 9.20844 2.09177C8.87644 2.39111 8.4471 2.55577 7.9991 2.55577C7.96844 2.55577 7.93777 2.55511 7.9071 2.55377C7.4251 2.52844 6.98244 2.31777 6.65977 1.95977L6.03377 1.26777C5.88177 1.10111 5.66444 1.00511 5.43777 1.00511C5.4251 1.00511 5.41244 1.00511 5.39977 1.00577C4.95644 1.02644 4.61244 1.40511 4.6331 1.84911L4.67777 2.78244C4.6811 2.84311 4.6811 2.90711 4.67777 2.97111C4.6271 3.92977 3.8351 4.68111 2.87444 4.68111C2.8431 4.68111 2.81177 4.68044 2.78044 4.67844L1.84777 4.63177C1.83577 4.63111 1.82244 4.63044 1.80977 4.63044C1.58377 4.63044 1.36644 4.72711 1.21444 4.89444C1.06977 5.05377 0.99577 5.25978 1.00644 5.47444C1.0171 5.68911 1.11044 5.88711 1.26977 6.03178L1.96377 6.66178C2.00844 6.70244 2.05177 6.74511 2.09244 6.79111C2.75977 7.53044 2.70177 8.67511 1.96244 9.34244L1.26844 9.96911C1.08844 10.1318 0.992437 10.3651 1.0051 10.6078C1.01644 10.8224 1.11044 11.0204 1.27044 11.1644C1.41844 11.2978 1.60977 11.3711 1.80844 11.3711C1.82244 11.3711 1.8371 11.3711 1.8511 11.3698L2.7851 11.3224C2.81644 11.3218 2.8471 11.3211 2.87844 11.3211Z" fill="#959CA5"/>
<path d="M8 11.5C6.07 11.5 4.5 9.93 4.5 8C4.5 6.07 6.07 4.5 8 4.5C9.93 4.5 11.5 6.07 11.5 8C11.5 9.93 9.93 11.5 8 11.5ZM8 5.5C6.62133 5.5 5.5 6.62133 5.5 8C5.5 9.37867 6.62133 10.5 8 10.5C9.37867 10.5 10.5 9.37867 10.5 8C10.5 6.62133 9.37867 5.5 8 5.5Z" fill="#959CA5"/>
</svg>
