<svg width="16" height="16" viewBox="0 0 16 16" fill="none" xmlns="http://www.w3.org/2000/svg">
<path fill-rule="evenodd" clip-rule="evenodd" d="M1.23524 7.99984C1.31282 8.13709 1.42693 8.33054 1.57635 8.56191C1.88759 9.04383 2.34875 9.68513 2.94818 10.3245C4.15617 11.6131 5.8665 12.8332 8.00008 12.8332C10.1337 12.8332 11.844 11.6131 13.052 10.3245C13.6514 9.68513 14.1126 9.04383 14.4238 8.56191C14.5732 8.33055 14.6873 8.13709 14.7649 7.99983C14.6873 7.86258 14.5732 7.66913 14.4238 7.43777C14.1126 6.95585 13.6514 6.31454 13.052 5.67514C11.844 4.38662 10.1337 3.1665 8.00008 3.1665C5.8665 3.1665 4.15617 4.38662 2.94818 5.67514C2.34875 6.31454 1.88759 6.95585 1.57635 7.43777C1.42693 7.66913 1.31282 7.86258 1.23524 7.99984ZM15.3334 7.99984C15.7806 7.77623 15.7805 7.77606 15.7804 7.77586L15.7802 7.77537L15.7795 7.77403L15.7774 7.76989L15.7703 7.75592C15.7642 7.74413 15.7555 7.7274 15.7443 7.70608C15.7217 7.66345 15.6887 7.60239 15.6455 7.52554C15.5591 7.37191 15.4315 7.15476 15.2639 6.89524C14.9293 6.37716 14.4321 5.68513 13.7815 4.9912C12.4895 3.61306 10.5332 2.1665 8.00008 2.1665C5.46699 2.1665 3.51065 3.61306 2.21865 4.9912C1.56808 5.68513 1.07091 6.37716 0.736312 6.89524C0.568704 7.15476 0.441076 7.37191 0.354658 7.52554C0.31143 7.60239 0.278458 7.66345 0.255897 7.70608C0.244614 7.7274 0.235931 7.74413 0.229865 7.75592L0.222731 7.76989L0.22064 7.77403L0.219964 7.77537L0.219718 7.77586C0.219621 7.77606 0.219534 7.77623 0.666748 7.99984L0.219534 7.77623C0.149153 7.91699 0.149153 8.08268 0.219534 8.22344L0.666748 7.99984C0.219534 8.22344 0.219621 8.22362 0.219718 8.22381L0.219964 8.2243L0.22064 8.22564L0.222731 8.22978L0.229865 8.24375C0.235931 8.25555 0.244614 8.27227 0.255897 8.29359C0.278458 8.33623 0.31143 8.39728 0.354658 8.47413C0.441076 8.62777 0.568704 8.84491 0.736312 9.10443C1.07091 9.62251 1.56808 10.3145 2.21865 11.0085C3.51065 12.3866 5.46699 13.8332 8.00008 13.8332C10.5332 13.8332 12.4895 12.3866 13.7815 11.0085C14.4321 10.3145 14.9293 9.62251 15.2639 9.10443C15.4315 8.84491 15.5591 8.62777 15.6455 8.47413C15.6887 8.39728 15.7217 8.33623 15.7443 8.29359C15.7555 8.27227 15.7642 8.25555 15.7703 8.24375L15.7774 8.22978L15.7795 8.22564L15.7802 8.2243L15.7804 8.22381C15.7805 8.22362 15.7806 8.22344 15.3334 7.99984ZM15.3334 7.99984L15.7806 8.22344C15.851 8.08268 15.851 7.91699 15.7806 7.77623L15.3334 7.99984Z" fill="#959CA5"/>
<path fill-rule="evenodd" clip-rule="evenodd" d="M8 6.5C7.17157 6.5 6.5 7.17157 6.5 8C6.5 8.82843 7.17157 9.5 8 9.5C8.82843 9.5 9.5 8.82843 9.5 8C9.5 7.17157 8.82843 6.5 8 6.5ZM5.5 8C5.5 6.61929 6.61929 5.5 8 5.5C9.38071 5.5 10.5 6.61929 10.5 8C10.5 9.38071 9.38071 10.5 8 10.5C6.61929 10.5 5.5 9.38071 5.5 8Z" fill="#959CA5"/>
</svg>
