<svg width="16" height="16" viewBox="0 0 16 16" fill="none" xmlns="http://www.w3.org/2000/svg">
<g clip-path="url(#clip0)">
<path d="M1.50195 16C0.67462 16 0.00195312 15.3273 0.00195312 14.5V3.5C0.00195313 2.67267 0.67462 2 1.50195 2H4.00195V0.5C4.00195 0.224 4.22595 0 4.50195 0C4.77795 0 5.00195 0.224 5.00195 0.5V2H11.002V0.5C11.002 0.224 11.226 0 11.502 0C11.778 0 12.002 0.224 12.002 0.5V2H14.502C15.3293 2 16.002 2.67267 16.002 3.5V14.5C16.002 15.3273 15.3293 16 14.502 16H1.50195ZM1.00195 14.5C1.00195 14.776 1.22595 15 1.50195 15H14.502C14.778 15 15.002 14.776 15.002 14.5V7H1.00195V14.5ZM15.002 6V3.5C15.002 3.224 14.778 3 14.502 3H12.002V4C12.002 4.276 11.778 4.5 11.502 4.5C11.226 4.5 11.002 4.276 11.002 4V3H5.00195V4C5.00195 4.276 4.77795 4.5 4.50195 4.5C4.22595 4.5 4.00195 4.276 4.00195 4V3H1.50195C1.22595 3 1.00195 3.224 1.00195 3.5V6H15.002Z" fill="#959CA5"/>
</g>
<defs>
<clipPath id="clip0">
<rect width="16" height="16" fill="white"/>
</clipPath>
</defs>
</svg>
