<svg width="24" height="24" viewBox="0 0 24 24" fill="none" xmlns="http://www.w3.org/2000/svg">
<g clip-path="url(#clip0)">
<path d="M10.6039 20.855C10.1159 20.855 9.65089 20.699 9.25789 20.405C9.17289 20.342 9.09189 20.271 9.01589 20.196L6.03889 17.219C5.89689 17.077 5.81889 16.889 5.81889 16.689C5.81889 16.489 5.89689 16.3 6.03889 16.159C6.18089 16.017 6.36889 15.939 6.56889 15.939C6.76889 15.939 6.95789 16.017 7.09889 16.159L10.0759 19.136C10.1009 19.161 10.1279 19.184 10.1559 19.206C10.2869 19.304 10.4419 19.356 10.6029 19.356C10.6389 19.356 10.6759 19.354 10.7119 19.348C10.9109 19.319 11.0869 19.216 11.2069 19.056L22.6499 3.79805C22.7909 3.61005 23.0159 3.49805 23.2509 3.49805C23.4139 3.49805 23.5689 3.55005 23.6999 3.64705C24.0319 3.89605 24.0989 4.36705 23.8509 4.69705L12.4079 19.954C12.0479 20.435 11.5219 20.746 10.9259 20.831C10.8199 20.847 10.7109 20.855 10.6039 20.855ZM4.92689 20.96C4.33489 20.96 3.77589 20.732 3.35389 20.319L0.359893 17.33C0.217893 17.189 0.139893 17 0.139893 16.8C0.139893 16.6 0.217893 16.411 0.358893 16.269C0.499893 16.127 0.687893 16.049 0.888893 16.049C1.08889 16.049 1.27689 16.127 1.41889 16.268L4.39589 19.24C4.53889 19.38 4.72989 19.458 4.92989 19.458C5.13289 19.458 5.32189 19.378 5.46289 19.234C5.60589 19.089 5.79589 19.009 5.99989 19.009C6.19689 19.009 6.38289 19.085 6.52389 19.223C6.66689 19.363 6.74789 19.551 6.74989 19.751C6.75189 19.951 6.67589 20.14 6.53589 20.284C6.10989 20.72 5.53789 20.96 4.92689 20.96Z" fill="white"/>
<path d="M9.28899 15.958C9.12599 15.958 8.96999 15.906 8.83999 15.808C8.50899 15.559 8.44199 15.089 8.68999 14.758L16.83 3.904C16.971 3.716 17.196 3.604 17.431 3.604C17.594 3.604 17.749 3.656 17.88 3.754C18.211 4.003 18.278 4.474 18.03 4.804L9.88999 15.658C9.74899 15.846 9.52399 15.958 9.28899 15.958Z" fill="white"/>
</g>
<defs>
<clipPath id="clip0">
<rect width="24" height="24" fill="white"/>
</clipPath>
</defs>
</svg>
