<svg width="24" height="24" viewBox="0 0 24 24" fill="none" xmlns="http://www.w3.org/2000/svg">
<path d="M5.25 24C5.134 24 5.018 23.973 4.914 23.921C4.659 23.793 4.5 23.536 4.5 23.25V19.5H2.25C1.009 19.5 0 18.491 0 17.25V2.25C0 1.009 1.009 0 2.25 0H21.75C22.991 0 24 1.009 24 2.25V17.25C24 18.491 22.991 19.5 21.75 19.5H11.5L5.7 23.85C5.571 23.947 5.411 24 5.25 24ZM2.25 1.5C1.836 1.5 1.5 1.836 1.5 2.25V17.25C1.5 17.664 1.836 18 2.25 18H5.25C5.664 18 6 18.336 6 18.75V21.75L10.8 18.15C10.929 18.053 11.089 18 11.25 18H21.75C22.164 18 22.5 17.664 22.5 17.25V2.25C22.5 1.836 22.164 1.5 21.75 1.5H2.25Z" fill="#959CA5"/>
<path d="M7.5 10.875C8.12132 10.875 8.625 10.3713 8.625 9.75C8.625 9.12868 8.12132 8.625 7.5 8.625C6.87868 8.625 6.375 9.12868 6.375 9.75C6.375 10.3713 6.87868 10.875 7.5 10.875Z" fill="#959CA5"/>
<path d="M12 10.875C11.38 10.875 10.875 10.37 10.875 9.75C10.875 9.151 11.343 8.66 11.942 8.629C11.942 8.629 11.962 8.627 11.972 8.626C11.972 8.626 11.958 8.627 11.946 8.628C11.963 8.626 11.984 8.625 12 8.625C12.62 8.625 13.125 9.13 13.125 9.75C13.125 10.37 12.62 10.875 12 10.875ZM16.5 10.875C15.88 10.875 15.375 10.37 15.375 9.75C15.375 9.13 15.88 8.625 16.5 8.625C16.514 8.625 16.532 8.626 16.547 8.628C16.557 8.629 16.564 8.629 16.571 8.63C17.154 8.657 17.625 9.15 17.625 9.75C17.625 10.37 17.12 10.875 16.5 10.875Z" fill="#959CA5"/>
</svg>
