<svg width="24" height="24" viewBox="0 0 24 24" fill="none" xmlns="http://www.w3.org/2000/svg">
<g clip-path="url(#clip0)">
<path d="M0.75 24.0038C0.336 24.0038 0 23.6678 0 23.2538V14.2538C0 13.8398 0.336 13.5038 0.75 13.5038C1.164 13.5038 1.5 13.8398 1.5 14.2538V15.0038H6C7.8 15.0038 9.324 16.2718 9.675 18.0038H12.75C14.818 18.0038 16.5 19.6858 16.5 21.7538C16.5 22.1678 16.164 22.5038 15.75 22.5038H1.5V23.2538C1.5 23.6678 1.164 24.0038 0.75 24.0038ZM14.871 21.0038C14.558 20.1248 13.712 19.5038 12.75 19.5038H6C5.586 19.5038 5.25 19.1678 5.25 18.7538C5.25 18.3398 5.586 18.0038 6 18.0038H8.118C7.805 17.1248 6.96 16.5038 6 16.5038H1.5V21.0038H14.871ZM17.021 17.7538C16.677 17.7538 16.378 17.5208 16.294 17.1878C16.245 16.9938 16.274 16.7918 16.377 16.6198C16.48 16.4478 16.643 16.3258 16.837 16.2768C17.401 16.1338 17.95 15.9248 18.466 15.6558C22.133 13.7438 23.56 9.20484 21.649 5.53784C20.352 3.05084 17.799 1.50684 14.986 1.50684C13.791 1.50684 12.596 1.80084 11.531 2.35584C7.865 4.26784 6.437 8.80584 8.349 12.4738C8.442 12.6508 8.459 12.8548 8.399 13.0458C8.339 13.2368 8.208 13.3928 8.03 13.4858C7.923 13.5418 7.804 13.5708 7.684 13.5708C7.403 13.5708 7.148 13.4158 7.018 13.1668C4.724 8.76684 6.437 3.31984 10.837 1.02584C12.115 0.359836 13.549 0.00683594 14.984 0.00683594C18.359 0.00683594 21.423 1.86084 22.979 4.84484C24.089 6.97284 24.302 9.40984 23.58 11.7058C22.858 14.0018 21.288 15.8768 19.16 16.9868C18.54 17.3098 17.882 17.5608 17.204 17.7318C17.145 17.7458 17.083 17.7538 17.021 17.7538Z" fill="white"/>
<path d="M14.25 10.5039C13.836 10.5039 13.5 10.1679 13.5 9.75391V3.75391C13.5 3.33991 13.836 3.00391 14.25 3.00391C14.664 3.00391 15 3.33991 15 3.75391V9.00391H18C18.414 9.00391 18.75 9.33991 18.75 9.75391C18.75 10.1679 18.414 10.5039 18 10.5039H14.25Z" fill="white"/>
</g>
<defs>
<clipPath id="clip0">
<rect width="24" height="24" fill="white"/>
</clipPath>
</defs>
</svg>
