<svg width="32" height="32" viewBox="0 0 32 32" fill="none" xmlns="http://www.w3.org/2000/svg">
<path d="M4.644 32C2.084 32 0.00133333 29.9173 0 27.3587V6.644C0.00133333 4.084 2.084 2.00133 4.644 2H8C8.552 2 9 2.448 9 3C9 3.552 8.552 4 8 4H4.644C3.18667 4 2 5.18667 2 6.644V24H16V19C16 18.448 16.448 18 17 18C17.552 18 18 18.448 18 19V27.3573C18 29.9173 15.9173 32 13.3573 32H4.644ZM2 27.3573C2 28.8147 3.18667 30 4.644 30H13.3573C14.8147 30 16 28.8147 16 27.3573V26H2V27.3573Z" fill="#959CA5"/>
<path d="M21 21C20.868 21 20.7387 20.9747 20.616 20.924C20.2427 20.768 20 20.4053 20 20V16H16C13.2427 16 11 13.7573 11 11V5C11 2.24267 13.2427 0 16 0H27C29.7573 0 32 2.24267 32 5V11C32 13.7573 29.7573 16 27 16H26.4147L21.708 20.7067C21.5187 20.896 21.2667 21 21 21ZM16 2C14.3453 2 13 3.34533 13 5V11C13 12.6547 14.3453 14 16 14H21C21.552 14 22 14.448 22 15V17.5853L25.2933 14.292C25.48 14.1053 25.7373 13.9987 26 13.9987H27C28.6547 13.9987 30 12.6533 30 10.9987V4.99867C30 3.344 28.6547 1.99867 27 1.99867H16V2Z" fill="#959CA5"/>
<path d="M16.5 9.50002C15.6733 9.50002 15 8.82669 15 8.00002C15 7.19069 15.6347 6.53335 16.4453 6.50402C16.452 6.50269 16.4773 6.50269 16.5013 6.50269C16.512 6.50269 16.548 6.50402 16.5587 6.50402C17.36 6.52802 18 7.18535 18 8.00002C18 8.82669 17.3267 9.50002 16.5 9.50002ZM21.5 9.50002C20.6733 9.50002 20 8.82669 20 8.00002C20 7.19069 20.6347 6.53335 21.4453 6.50402C21.452 6.50269 21.4773 6.50269 21.5013 6.50269C21.512 6.50269 21.548 6.50402 21.5587 6.50402C22.36 6.52802 23 7.18535 23 8.00002C23 8.82669 22.3267 9.50002 21.5 9.50002Z" fill="#959CA5"/>
<path d="M26.5 9.5C27.3284 9.5 28 8.82843 28 8C28 7.17157 27.3284 6.5 26.5 6.5C25.6716 6.5 25 7.17157 25 8C25 8.82843 25.6716 9.5 26.5 9.5Z" fill="#959CA5"/>
</svg>
