<svg width="24" height="24" viewBox="0 0 24 24" fill="none" xmlns="http://www.w3.org/2000/svg">
<g clip-path="url(#clip0)">
<path d="M12 24.001C11.539 24.001 11.086 23.917 10.654 23.751L9.61304 23.351C4.76004 21.484 1.50004 16.737 1.50004 11.538V3.924C1.49504 3.048 2.00804 2.245 2.80604 1.88C5.66604 0.631 8.68604 0 11.788 0L12.007 0.001L12.193 0C15.308 0 18.333 0.631 21.182 1.875C21.991 2.245 22.506 3.05 22.5 3.929V11.538C22.5 16.737 19.24 21.484 14.387 23.351L13.346 23.751C12.914 23.917 12.461 24.001 12 24.001ZM11.8 1.5C8.89704 1.5 6.07704 2.089 3.41804 3.249C3.16504 3.365 2.99804 3.629 3.00004 3.919V11.538C3.00004 16.121 5.87404 20.306 10.151 21.951L11.192 22.351C11.452 22.451 11.723 22.502 12 22.502C12.277 22.502 12.548 22.451 12.808 22.352L13.849 21.952C18.126 20.305 21 16.121 21 11.538V3.924C21.002 3.631 20.833 3.365 20.57 3.244C17.921 2.087 15.101 1.5 12.194 1.5L12.007 1.501L11.8 1.5Z" fill="white"/>
<path d="M9.75 16.5C8.509 16.5 7.5 15.491 7.5 14.25V6.75C7.5 5.509 8.509 4.5 9.75 4.5H14.25C15.491 4.5 16.5 5.509 16.5 6.75V14.25C16.5 15.491 15.491 16.5 14.25 16.5H9.75ZM9.75 6.001C9.336 6.001 9 6.337 9 6.751V14.251C9 14.664 9.336 15 9.75 15H14.25C14.664 15 15 14.664 15 14.25V6.75C15 6.336 14.664 6 14.25 6H9.75V6.001Z" fill="white"/>
<path d="M12 13.125C11.38 13.125 10.875 12.62 10.875 12C10.875 11.38 11.38 10.875 12 10.875C12.62 10.875 13.125 11.38 13.125 12C13.125 12.621 12.62 13.125 12 13.125Z" fill="white"/>
</g>
<defs>
<clipPath id="clip0">
<rect width="24" height="24" fill="white"/>
</clipPath>
</defs>
</svg>
