<svg width="41" height="40" viewBox="0 0 41 40" fill="none" xmlns="http://www.w3.org/2000/svg">
<path d="M5.5 38.7502C3.43167 38.7502 1.75 37.0685 1.75 35.0002V27.5002C1.75 25.4319 3.43167 23.7502 5.5 23.7502H11.8867C12.3333 23.7502 12.75 23.9919 12.9717 24.3802C13.74 25.7252 14.8567 26.8435 16.2017 27.6102C17.5067 28.3552 18.9883 28.7502 20.485 28.7502C23.6 28.7502 26.49 27.0752 28.0283 24.3802C28.2517 23.9919 28.6667 23.7502 29.1133 23.7502H35.5C37.5683 23.7502 39.25 25.4319 39.25 27.5002V35.0002C39.25 37.0685 37.5683 38.7502 35.5 38.7502H5.5ZM5.5 26.2502C4.81 26.2502 4.25 26.8102 4.25 27.5002V35.0002C4.25 35.6902 4.81 36.2502 5.5 36.2502H35.5C36.19 36.2502 36.75 35.6902 36.75 35.0002V27.5002C36.75 26.8102 36.19 26.2502 35.5 26.2502H29.8117C27.7383 29.3869 24.2783 31.2485 20.4833 31.2485C18.5533 31.2485 16.645 30.7419 14.9633 29.7819C13.45 28.9185 12.1517 27.7019 11.19 26.2502H5.5ZM20.5 21.2502C19.81 21.2502 19.25 20.6902 19.25 20.0002V5.10187L15.0317 8.47687C14.8117 8.65354 14.5333 8.7502 14.25 8.7502C13.8683 8.7502 13.5117 8.57854 13.2733 8.2802C12.8433 7.74354 12.93 6.9552 13.4683 6.52354L19.7183 1.52354C19.7367 1.50854 19.7567 1.4952 19.7767 1.48187C19.865 1.41854 19.9633 1.36687 20.0667 1.32854C20.0817 1.32354 20.1167 1.31187 20.1317 1.30687C20.2533 1.26854 20.3733 1.2502 20.4933 1.24854C20.6217 1.24854 20.7417 1.26854 20.8667 1.30687C20.8817 1.31187 20.9267 1.3252 20.94 1.33187C21.0317 1.3652 21.1267 1.4152 21.2167 1.4802C21.2383 1.49354 21.2583 1.50854 21.2767 1.52354L27.5267 6.52354C28.065 6.95354 28.1517 7.74187 27.7217 8.2802C27.4883 8.5802 27.1317 8.7502 26.75 8.7502C26.4683 8.7502 26.1917 8.65354 25.97 8.47687L21.75 5.10187V20.0002C21.75 20.6902 21.19 21.2502 20.5 21.2502Z" fill="#495055"/>
</svg>
