<svg width="24" height="24" viewBox="0 0 24 24" fill="none" xmlns="http://www.w3.org/2000/svg">
<path d="M12 12C8.692 12 6 9.308 6 6C6 4.949 6.278 3.913 6.805 3.003C6.807 2.999 6.814 2.988 6.814 2.986C7.889 1.144 9.876 0 12 0C15.308 0 18 2.692 18 6C18 9.308 15.308 12 12 12ZM7.731 4.587C7.578 5.044 7.5 5.518 7.5 6C7.5 8.481 9.519 10.5 12 10.5C14.365 10.5 16.309 8.666 16.487 6.346C15.603 6.613 14.688 6.749 13.76 6.75C13.757 6.75 13.743 6.75 13.74 6.75C11.572 6.748 9.412 5.965 7.731 4.587ZM8.455 3.232C9.904 4.518 11.815 5.25 13.748 5.25C14.635 5.25 15.505 5.104 16.34 4.816C15.812 2.877 14.035 1.5 12 1.5C10.61 1.5 9.307 2.142 8.455 3.232ZM21.75 24C21.336 24 21 23.664 21 23.25C21 18.287 16.963 14.25 12 14.25C7.037 14.25 3 18.287 3 23.25C3 23.664 2.664 24 2.25 24C1.836 24 1.5 23.664 1.5 23.25C1.5 17.46 6.21 12.75 12 12.75C17.79 12.75 22.5 17.46 22.5 23.25C22.5 23.664 22.164 24 21.75 24Z" fill="#959CA5"/>
</svg>
