<svg width="40" height="40" viewBox="0 0 40 40" fill="none" xmlns="http://www.w3.org/2000/svg">
<path d="M14.6666 25.7459L16.6984 14.3174H19.873L17.9047 25.7459H14.6666Z" fill="#3C58BF"/>
<path d="M14.6666 25.7459L17.2698 14.3174H19.873L17.9047 25.7459H14.6666Z" fill="#293688"/>
<path d="M29.3965 14.4445C28.7616 14.1905 27.7457 13.9365 26.4759 13.9365C23.3013 13.9365 21.0156 15.5238 21.0156 17.8095C21.0156 19.5238 22.6029 20.4127 23.8727 20.9841C25.1426 21.5556 25.5235 21.9365 25.5235 22.4445C25.5235 23.2064 24.5076 23.5873 23.6188 23.5873C22.3489 23.5873 21.6505 23.3968 20.5711 22.9524L20.1267 22.7619L19.6823 25.3651C20.4442 25.6826 21.841 26 23.3013 26C26.6664 26 28.8886 24.4127 28.8886 22C28.8886 20.6667 28.0632 19.6508 26.1584 18.8254C25.0156 18.254 24.3172 17.9365 24.3172 17.3651C24.3172 16.8572 24.8886 16.3492 26.1584 16.3492C27.2378 16.3492 27.9997 16.5397 28.5711 16.7937L28.8886 16.9207L29.3965 14.4445Z" fill="#3C58BF"/>
<path d="M29.3965 14.4445C28.7616 14.1905 27.7457 13.9365 26.4759 13.9365C23.3013 13.9365 21.587 15.5238 21.587 17.8095C21.587 19.5238 22.6029 20.4127 23.8727 20.9841C25.1426 21.5556 25.5235 21.9365 25.5235 22.4445C25.5235 23.2064 24.5076 23.5873 23.6188 23.5873C22.3489 23.5873 21.6505 23.3968 20.5711 22.9524L20.1267 22.7619L19.6823 25.3651C20.4442 25.6826 21.841 26 23.3013 26C26.6664 26 28.8886 24.4127 28.8886 22C28.8886 20.6667 28.0632 19.6508 26.1584 18.8254C25.0156 18.254 24.3172 17.9365 24.3172 17.3651C24.3172 16.8572 24.8886 16.3492 26.1584 16.3492C27.2378 16.3492 27.9997 16.5397 28.5711 16.7937L28.8886 16.9207L29.3965 14.4445Z" fill="#293688"/>
<path d="M34.8567 14.3174C34.0948 14.3174 33.5233 14.3809 33.2059 15.1428L28.444 25.7459H31.8725L32.5075 23.8412H36.571L36.9519 25.7459H39.9995L37.3329 14.3174H34.8567ZM33.3963 21.9364C33.5868 21.365 34.6662 18.5713 34.6662 18.5713C34.6662 18.5713 34.9202 17.8729 35.1106 17.4285L35.3011 18.5079C35.3011 18.5079 35.936 21.365 36.063 21.9999H33.3963V21.9364Z" fill="#3C58BF"/>
<path d="M35.6186 14.3174C34.8567 14.3174 34.2852 14.3809 33.9678 15.1428L28.444 25.7459H31.8725L32.5075 23.8412H36.571L36.9519 25.7459H39.9995L37.3329 14.3174H35.6186ZM33.3963 21.9364C33.6503 21.3015 34.6662 18.5713 34.6662 18.5713C34.6662 18.5713 34.9202 17.8729 35.1106 17.4285L35.3011 18.5079C35.3011 18.5079 35.936 21.365 36.063 21.9999H33.3963V21.9364Z" fill="#293688"/>
<path d="M8.82563 22.3174L8.50816 20.6666C7.93674 18.7618 6.09547 16.6666 4.06372 15.6507L6.92086 25.8094H10.3494L15.4923 14.3809H12.0637L8.82563 22.3174Z" fill="#3C58BF"/>
<path d="M8.82563 22.3174L8.50816 20.6666C7.93674 18.7618 6.09547 16.6666 4.06372 15.6507L6.92086 25.8094H10.3494L15.4923 14.3809H12.6986L8.82563 22.3174Z" fill="#293688"/>
<path d="M0 14.3174L0.571429 14.4444C4.63492 15.3967 7.42857 17.8094 8.50794 20.6666L7.36508 15.2698C7.1746 14.5079 6.60318 14.3174 5.90476 14.3174H0Z" fill="#FFBC00"/>
<path d="M0 14.3174C4.06349 15.2698 7.42857 17.746 8.50794 20.6031L7.42857 16.0952C7.2381 15.3333 6.60318 14.8888 5.90476 14.8888L0 14.3174Z" fill="#F7981D"/>
<path d="M0 14.3174C4.06349 15.2698 7.42857 17.746 8.50794 20.6031L7.74603 18.1269C7.55556 17.365 7.30159 16.6031 6.4127 16.2856L0 14.3174Z" fill="#ED7C00"/>
<path d="M11.9996 21.9366L9.84087 19.7779L8.825 22.1906L8.57103 20.6033C7.9996 18.6985 6.15833 16.6033 4.12659 15.5874L6.98373 25.7461H10.4123L11.9996 21.9366Z" fill="#051244"/>
<path d="M17.9047 25.7463L15.1746 22.9526L14.6666 25.7463H17.9047Z" fill="#051244"/>
<path d="M25.2061 21.8096C25.46 22.0635 25.587 22.254 25.5235 22.508C25.5235 23.2699 24.5076 23.6508 23.6188 23.6508C22.3489 23.6508 21.6505 23.4604 20.5711 23.0159L20.1267 22.8254L19.6823 25.4286C20.4442 25.7461 21.841 26.0635 23.3013 26.0635C25.333 26.0635 26.9838 25.4921 27.9362 24.4762L25.2061 21.8096Z" fill="#051244"/>
<path d="M28.8885 25.7462H31.8727L32.5076 23.8414H36.5711L36.952 25.7462H39.9997L38.9203 21.1113L35.1108 17.4287L35.3013 18.4446C35.3013 18.4446 35.9362 21.3017 36.0632 21.9366H33.3965C33.6505 21.3017 34.6663 18.5716 34.6663 18.5716C34.6663 18.5716 34.9203 17.8732 35.1108 17.4287" fill="#051244"/>
</svg>
