<?xml version="1.0" encoding="utf-8"?>
<!-- Generator: Adobe Illustrator 24.0.2, SVG Export Plug-In . SVG Version: 6.00 Build 0)  -->
<svg version="1.1" id="Слой_1" xmlns="http://www.w3.org/2000/svg" xmlns:xlink="http://www.w3.org/1999/xlink" x="0px" y="0px"
	 viewBox="0 0 70 87.5" style="enable-background:new 0 0 70 87.5;" xml:space="preserve">
<g>
	<g>
		<path d="M62.7,68H7.3C4.4,68,2,65.6,2,62.7V7.3C2,4.4,4.4,2,7.3,2h55.3C65.6,2,68,4.4,68,7.3v55.3C68,65.6,65.6,68,62.7,68z
			 M7.3,4C5.5,4,4,5.5,4,7.3v55.3C4,64.5,5.5,66,7.3,66h55.3c1.8,0,3.3-1.5,3.3-3.3V7.3C66,5.5,64.5,4,62.7,4H7.3z"/>
	</g>
	<g>
		<g>
			<path d="M34.9,41.1c-0.3,0-0.5,0-0.8-0.1c-5.2-1.7-7.1-5.5-7.5-6.7c-4.1-3.4-3.3-7.3-2.3-9c0.3-0.5,0.9-0.6,1.4-0.3
				c0.5,0.3,0.6,0.9,0.3,1.4c-0.2,0.3-1.9,3.4,2,6.5c0.2,0.1,0.3,0.3,0.3,0.5c0.1,0.2,1.4,4.1,6.3,5.7c0.1,0,0.3,0,0.4,0
				c5-1.6,6.3-5.6,6.3-5.7c0.1-0.2,0.2-0.4,0.3-0.5c3.6-2.8,2.5-5.7,2-6.5c-0.3-0.5-0.1-1.1,0.4-1.3c0.5-0.3,1.1-0.1,1.3,0.4
				c0.4,0.8,2.3,5.1-2.4,8.9c-0.4,1.1-2.3,5-7.5,6.7C35.5,41,35.2,41.1,34.9,41.1z"/>
		</g>
		<g>
			<path d="M52.1,57.9H17.9c-0.5,0-0.9-0.4-1-0.8c-0.6-3.9,1.6-8,1.7-8.2c1.4-3.1,3.7-5.2,5.3-6.4c0.7-0.5,1.5-1,2.5-1.4
				c1.1-0.5,2.2-1.2,3.1-1.9c0.7-0.6,0.9-0.8,1-0.9c0.2-0.4,0.7-0.6,1.1-0.5c0.5,0.1,0.9,0.7,0.7,1.2c-0.1,0.4-0.4,0.7-1.6,1.7
				c-1.1,0.9-2.3,1.6-3.5,2.2c-0.9,0.4-1.6,0.8-2.2,1.2c-1.5,1.1-3.5,2.9-4.7,5.6c-0.1,0.1-1.7,3.2-1.6,6.2h32.3
				c0.1-3-1.6-6-1.6-6.1c-1.3-2.8-3.3-4.6-4.8-5.7c-0.6-0.4-1.3-0.8-2.2-1.2c-1.3-0.6-2.5-1.3-3.5-2.2c-1.2-1-1.5-1.4-1.6-1.7
				c-0.1-0.5,0.2-1.1,0.7-1.2c0.5-0.1,0.9,0.1,1.1,0.5c0.1,0.1,0.3,0.3,1,0.9c0.9,0.8,2,1.4,3.1,1.9c1,0.5,1.8,0.9,2.5,1.4
				c1.7,1.2,4,3.3,5.4,6.4c0.1,0.1,2.3,4.2,1.7,8.1C53,57.5,52.6,57.9,52.1,57.9z M39.4,38.4C39.4,38.4,39.4,38.4,39.4,38.4
				C39.4,38.4,39.4,38.4,39.4,38.4z M30.6,38.4C30.6,38.4,30.6,38.4,30.6,38.4C30.6,38.4,30.6,38.4,30.6,38.4z M30.7,38.2L30.7,38.2
				L30.7,38.2z"/>
		</g>
		<g>
			<path d="M43.5,28.4c-0.2,0-0.4-0.1-0.6-0.2c-0.2-0.2-0.4-0.5-0.4-0.8c0-1-1-2.3-1.9-3.3c0.1,0.5,0.2,0.9,0.3,1.4
				c0.1,0.4-0.1,0.8-0.5,1c-0.3,0.2-0.8,0.2-1.1,0c-3.8-2.7-8.2-3.5-10.1-3.8c-0.4,1.4-1.5,3.8-3.8,4.2c-0.4,0.1-0.8-0.1-1-0.5
				c-0.7-1.2-1.5-4.8-1.7-5.5c-0.6-2.3-0.5-4.2,0.4-5.6c0.7-1.1,1.9-1.8,3.4-2.1c1.3-0.2,2.2-0.5,3.1-0.9c3.1-1.5,7.4-3.2,10-2.7
				c3.5,0.7,9.1,3.5,7.7,13.6c-0.4,1.7-2.7,4.9-3.5,5.1C43.6,28.3,43.6,28.4,43.5,28.4z M38.7,20.3c0.2,0,0.4,0,0.6,0.1
				c0.8,0.4,3.5,2.5,4.7,4.9c0.6-0.8,1.2-1.7,1.3-2.4c1.1-8-2.7-10.5-6.1-11.3c-1.6-0.3-4.7,0.6-8.7,2.5c-1,0.5-2.2,0.8-3.7,1.1
				c-0.7,0.1-1.5,0.4-2.1,1.2c-0.6,0.9-0.6,2.3-0.1,4.1c0.3,1.3,0.7,3.1,1.1,4.1c1.1-0.8,1.6-2.5,1.8-3.2c0.1-0.5,0.5-0.9,1-0.8
				c0.2,0,5.1,0.4,9.8,2.9c-0.3-1-0.6-1.8-0.6-1.8c-0.2-0.4,0-0.9,0.3-1.1C38.2,20.4,38.4,20.3,38.7,20.3z"/>
		</g>
		<g>
			<path d="M35.2,49.5c-0.2,0-0.4-0.1-0.6-0.2l-8.3-6.5c-0.4-0.3-0.5-1-0.2-1.4c0.3-0.4,1-0.5,1.4-0.2l7.5,5.9l5.5-6.7
				c0.3-0.4,1-0.5,1.4-0.1c0.4,0.3,0.5,1,0.1,1.4L36,49.1C35.8,49.3,35.5,49.5,35.2,49.5z"/>
		</g>
	</g>
	<g>
		<g>
			<g>
				<path d="M8.2,16.8c-0.6,0-1-0.4-1-1V7.3c0-0.6,0.4-1,1-1h8.6c0.6,0,1,0.4,1,1s-0.4,1-1,1H9.2v7.6C9.2,16.4,8.7,16.8,8.2,16.8z"
					/>
			</g>
			<g>
				<path d="M16.7,63.7H8.2c-0.6,0-1-0.4-1-1v-8.6c0-0.6,0.4-1,1-1s1,0.4,1,1v7.6h7.6c0.6,0,1,0.4,1,1S17.3,63.7,16.7,63.7z"/>
			</g>
		</g>
		<g>
			<g>
				<path d="M61.8,16.8c-0.6,0-1-0.4-1-1V8.3h-7.6c-0.6,0-1-0.4-1-1s0.4-1,1-1h8.6c0.6,0,1,0.4,1,1v8.6
					C62.8,16.4,62.4,16.8,61.8,16.8z"/>
			</g>
			<g>
				<path d="M61.8,63.7h-8.6c-0.6,0-1-0.4-1-1s0.4-1,1-1h7.6v-7.6c0-0.6,0.4-1,1-1s1,0.4,1,1v8.6C62.8,63.3,62.4,63.7,61.8,63.7z"/>
			</g>
		</g>
	</g>
</g>
</svg>
