<svg width="24" height="43" viewBox="0 0 24 43" fill="none" xmlns="http://www.w3.org/2000/svg">
<path fill-rule="evenodd" clip-rule="evenodd" d="M12 43C12.5523 43 13 42.5523 13 42V1C13 0.447716 12.5523 0 12 0C11.4477 0 11 0.447716 11 1V42C11 42.5523 11.4477 43 12 43Z" fill="white"/>
<path fill-rule="evenodd" clip-rule="evenodd" d="M4.29289 8.70711C4.68342 9.09763 5.31658 9.09763 5.70711 8.70711L12 2.41421L18.2929 8.70711C18.6834 9.09763 19.3166 9.09763 19.7071 8.70711C20.0976 8.31658 20.0976 7.68342 19.7071 7.29289L12.7071 0.292893C12.3166 -0.0976315 11.6834 -0.0976315 11.2929 0.292893L4.29289 7.29289C3.90237 7.68342 3.90237 8.31658 4.29289 8.70711Z" fill="white"/>
</svg>
