<svg width="24" height="43" viewBox="0 0 24 43" fill="none" xmlns="http://www.w3.org/2000/svg">
<path fill-rule="evenodd" clip-rule="evenodd" d="M12 27C12.5523 27 13 27.4477 13 28V42C13 42.5523 12.5523 43 12 43C11.4477 43 11 42.5523 11 42V28C11 27.4477 11.4477 27 12 27Z" fill="white"/>
<path fill-rule="evenodd" clip-rule="evenodd" d="M4.29289 34.2929C4.68342 33.9024 5.31658 33.9024 5.70711 34.2929L12 40.5858L18.2929 34.2929C18.6834 33.9024 19.3166 33.9024 19.7071 34.2929C20.0976 34.6834 20.0976 35.3166 19.7071 35.7071L12.7071 42.7071C12.3166 43.0976 11.6834 43.0976 11.2929 42.7071L4.29289 35.7071C3.90237 35.3166 3.90237 34.6834 4.29289 34.2929Z" fill="white"/>
<path d="M11 8C11 7.44772 11.4477 7 12 7C12.5523 7 13 7.44772 13 8V12C13 12.5523 12.5523 13 12 13C11.4477 13 11 12.5523 11 12V8Z" fill="white" fill-opacity="0.6"/>
<path d="M11 17C11 16.4477 11.4477 16 12 16C12.5523 16 13 16.4477 13 17V23C13 23.5523 12.5523 24 12 24C11.4477 24 11 23.5523 11 23V17Z" fill="white" fill-opacity="0.8"/>
<path d="M11 1C11 0.447715 11.4477 0 12 0C12.5523 0 13 0.447715 13 1V3C13 3.55228 12.5523 4 12 4C11.4477 4 11 3.55228 11 3V1Z" fill="white" fill-opacity="0.4"/>
</svg>
