<svg width="47" height="37" viewBox="0 0 47 37" fill="none" xmlns="http://www.w3.org/2000/svg">
<g clip-path="url(#clip0)">
<path d="M19.3843 37C15.6008 36.9297 11.8836 36.0121 8.51618 34.317C6.20271 33.3036 4.19951 31.7137 2.7055 29.7052C1.2115 27.6967 0.278654 25.3395 -0.000391422 22.8676C-0.0272529 22.6812 -0.00966223 22.4911 0.0509958 22.3125C0.111654 22.1338 0.213723 21.9715 0.349169 21.8381C2.20106 20.9089 4.28508 20.5192 6.35526 20.715C6.35526 18.0944 6.92726 11.3558 9.2153 9.85835C10.264 9.20321 12.6791 9.85835 14.6494 10.7943C16.4925 7.30017 20.6237 0 23.3884 0C26.6933 0 30.5067 8.70405 31.7778 11.6678C33.3668 10.8255 36.5128 9.39039 37.8793 10.1391C40.2309 11.4806 40.7075 18.0944 40.8029 21.3078C44.7116 21.3078 46.8089 21.8069 46.9996 23.086C47.1151 24.8835 46.6998 26.6756 45.8036 28.2472C44.9073 29.8188 43.5682 31.1031 41.9469 31.946C36.481 35.8145 27.7102 37.9047 24.2464 36.1577H24.024H23.8015L23.2613 36.4696C22.0322 36.9536 20.7014 37.1356 19.3843 37ZM6.67304 21.8381C3.17743 21.8381 1.33429 22.4309 1.20718 22.774C1.53072 25.0069 2.42246 27.1236 3.79996 28.9285C5.17746 30.7334 6.99625 32.1682 9.08818 33.1003C14.2998 35.8457 20.3059 36.4073 22.5304 35.253L6.67304 21.8381ZM25.0726 35.253C28.2505 36.3449 35.9726 34.6602 41.1842 30.9789C42.5852 30.2152 43.7483 29.0917 44.5488 27.7288C45.3492 26.366 45.757 24.815 45.7285 23.242C45.7285 22.8988 43.8853 22.3997 40.4533 22.4933L25.0726 35.253ZM37.7839 11.6678L25.4222 33.3499L39.5317 21.8381C39.671 18.3602 39.0535 14.893 37.7204 11.6678H37.7839ZM7.65816 21.027L21.9584 33.1003L9.53308 11.3246C8.19447 14.4094 7.53393 17.7368 7.59461 21.0894L7.65816 21.027ZM24.1828 17.9073L24.4053 32.9132L36.7035 11.075C34.9597 11.4342 33.2929 12.0888 31.7778 13.0093L31.3647 13.2589L24.1828 17.9073ZM10.4864 10.7943L23.1977 32.9132L22.9117 17.8761L14.6176 12.0422C13.3131 11.4227 11.92 11.0019 10.4864 10.7943ZM23.8968 1.43508L24.1193 16.6906L30.6656 12.2605C29.0131 8.1425 25.9942 2.24621 23.8968 1.31029V1.43508ZM15.8887 11.3558L22.9117 16.4098L22.6893 1.40388C19.8195 4.28334 17.5142 7.65688 15.8887 11.3558Z" fill="white"/>
</g>
<defs>
<clipPath id="clip0">
<rect width="47" height="37" fill="white"/>
</clipPath>
</defs>
</svg>
