<svg xmlns="http://www.w3.org/2000/svg" viewBox="0 0 66 66"><title>Ресурс 1</title><g id="Слой_2" data-name="Слой 2"><g id="Слой_1-2" data-name="Слой 1"><path d="M60.67,66H5.33A5.33,5.33,0,0,1,0,60.67V5.33A5.33,5.33,0,0,1,5.33,0H60.67A5.33,5.33,0,0,1,66,5.33V60.67A5.33,5.33,0,0,1,60.67,66ZM5.33,2A3.33,3.33,0,0,0,2,5.33V60.67A3.33,3.33,0,0,0,5.33,64H60.67A3.33,3.33,0,0,0,64,60.67V5.33A3.33,3.33,0,0,0,60.67,2Z"/><path d="M32.93,39.09a2.71,2.71,0,0,1-.79-.12,11.85,11.85,0,0,1-7.53-6.67C20.51,29,21.32,25,22.34,23.35a1,1,0,1,1,1.7,1c-.2.34-1.9,3.45,2,6.5a1,1,0,0,1,.34.49,9.69,9.69,0,0,0,6.34,5.67.64.64,0,0,0,.41,0,9.59,9.59,0,0,0,6.29-5.65,1,1,0,0,1,.35-.5c3.58-2.79,2.46-5.71,2-6.54a1,1,0,0,1,1.78-.92c.42.83,2.27,5.07-2.36,8.86A11.71,11.71,0,0,1,33.75,39,2.56,2.56,0,0,1,32.93,39.09Z"/><path d="M50.07,55.86H15.93A1,1,0,0,1,15,55c-.64-3.9,1.61-8,1.71-8.2A16,16,0,0,1,22,40.46,15.69,15.69,0,0,1,24.51,39a14.75,14.75,0,0,0,3.12-1.94,8,8,0,0,0,1-.89,1,1,0,0,1,1.87.69c-.1.38-.36.74-1.61,1.75a16.19,16.19,0,0,1-3.54,2.2,14.16,14.16,0,0,0-6.91,6.88,13.89,13.89,0,0,0-1.6,6.15H49.16a13.69,13.69,0,0,0-1.57-6.08,14.15,14.15,0,0,0-6.94-7,16.19,16.19,0,0,1-3.54-2.2c-1.25-1-1.51-1.37-1.61-1.75a1,1,0,0,1,1.87-.69,8,8,0,0,0,1,.89A15,15,0,0,0,41.49,39,15.69,15.69,0,0,1,44,40.46a16.19,16.19,0,0,1,5.38,6.43c.06.1,2.31,4.23,1.67,8.13A1,1,0,0,1,50.07,55.86ZM37.44,36.39Zm-8.88,0Z"/><path d="M41.49,26.35a1,1,0,0,1-1-1c0-1-.95-2.3-1.94-3.33.12.46.21.92.28,1.36a1,1,0,0,1-1.57,1,23.79,23.79,0,0,0-10.06-3.77c-.42,1.36-1.49,3.79-3.81,4.24a1,1,0,0,1-1-.45,25.39,25.39,0,0,1-1.66-5.51c-.62-2.32-.49-4.23.41-5.61a4.91,4.91,0,0,1,3.42-2.08,10.59,10.59,0,0,0,3.09-.9c3.1-1.52,7.36-3.21,10-2.66,3.49.74,9.12,3.49,7.66,13.57-.38,1.74-2.72,4.94-3.51,5.12Zm-4.83-8.07a1.32,1.32,0,0,1,.57.14,13.43,13.43,0,0,1,4.69,4.87,7.54,7.54,0,0,0,1.34-2.44c1.15-8-2.69-10.52-6.12-11.25-1.57-.33-4.73.58-8.66,2.5a12.87,12.87,0,0,1-3.66,1.08,2.9,2.9,0,0,0-2.05,1.19c-.58.89-.63,2.26-.15,4.06a38.84,38.84,0,0,0,1.09,4.14,5.73,5.73,0,0,0,1.75-3.23,1,1,0,0,1,1.05-.82,26.59,26.59,0,0,1,9.8,2.93c-.3-1-.59-1.8-.6-1.81A1,1,0,0,1,36,18.49,1,1,0,0,1,36.66,18.28Z"/><path d="M33.21,47.47a1,1,0,0,1-.62-.21l-8.28-6.55a1,1,0,0,1,1.24-1.57l7.51,5.94,5.49-6.73a1,1,0,0,1,1.4-.14,1,1,0,0,1,.14,1.41L34,47.11A1,1,0,0,1,33.21,47.47Z"/><path d="M6.16,14.84a1,1,0,0,1-1-1V5.27a1,1,0,0,1,1-1h8.56a1,1,0,1,1,0,2H7.16v7.57A1,1,0,0,1,6.16,14.84Z"/><path d="M14.72,61.73H6.16a1,1,0,0,1-1-1V52.16a1,1,0,0,1,2,0v7.57h7.56a1,1,0,1,1,0,2Z"/><path d="M59.84,14.84a1,1,0,0,1-1-1V6.27H51.28a1,1,0,0,1,0-2h8.56a1,1,0,0,1,1,1v8.57A1,1,0,0,1,59.84,14.84Z"/><path d="M59.84,61.73H51.28a1,1,0,0,1,0-2h7.56V52.16a1,1,0,0,1,2,0v8.57A1,1,0,0,1,59.84,61.73Z"/></g></g></svg>