<svg width="14" height="14" viewBox="0 0 14 14" fill="none" xmlns="http://www.w3.org/2000/svg">
<path d="M12.4869 9.68369C12.4333 9.62906 12.3607 9.59838 12.2849 9.59838C12.2091 9.59838 12.1365 9.62906 12.0829 9.68369L10.9441 10.8539C10.9042 10.8947 10.8771 10.9466 10.8662 11.0031C10.8552 11.0595 10.8609 11.1181 10.8826 11.1713C10.9042 11.2245 10.9408 11.2699 10.9878 11.3019C11.0347 11.3339 11.0899 11.3509 11.1464 11.351H11.4664C11.4899 11.3509 11.5132 11.3568 11.534 11.3681C11.5548 11.3794 11.5726 11.3957 11.5858 11.4156C11.599 11.4357 11.607 11.4588 11.6092 11.4828C11.6114 11.5068 11.6077 11.531 11.5984 11.5532C11.394 11.9524 11.0816 12.2835 10.6982 12.5071C10.3149 12.7308 9.87667 12.8376 9.4356 12.8148C9.28406 12.8148 9.13872 12.8762 9.03156 12.9855C8.9244 13.0948 8.8642 13.2431 8.8642 13.3976C8.8642 13.5522 8.9244 13.7004 9.03156 13.8097C9.13872 13.919 9.28406 13.9804 9.4356 13.9804C11.1327 13.9745 12.54 12.8836 12.8069 11.4646C12.8135 11.4317 12.831 11.4021 12.8565 11.3809C12.882 11.3596 12.9139 11.348 12.9469 11.348H13.4291C13.4864 11.3486 13.5425 11.3317 13.5902 11.2993C13.6379 11.267 13.675 11.2208 13.6966 11.1667C13.7182 11.1126 13.7234 11.0531 13.7115 10.996C13.6995 10.9389 13.671 10.8867 13.6297 10.8463L12.4869 9.68369ZM1.23313 4.29493C1.28667 4.3494 1.35921 4.37999 1.43484 4.38001C1.47249 4.38015 1.5098 4.37259 1.54454 4.35778C1.57928 4.34296 1.61076 4.3212 1.63711 4.29376L2.77649 3.12824C2.81694 3.08756 2.84458 3.03549 2.85588 2.9787C2.86717 2.92191 2.86161 2.86297 2.83989 2.80942C2.81818 2.75588 2.7813 2.71015 2.73398 2.67808C2.68665 2.64601 2.63103 2.62907 2.57421 2.6294H2.25423C2.23058 2.62946 2.20729 2.62352 2.18644 2.61213C2.1656 2.60074 2.14786 2.58425 2.1348 2.56414C2.12162 2.54421 2.11356 2.52123 2.11136 2.4973C2.10916 2.47337 2.1129 2.44926 2.12223 2.42719C2.32655 2.02812 2.63877 1.69716 3.0219 1.47354C3.40502 1.24993 3.84297 1.14303 4.28384 1.16552C4.43539 1.16552 4.58073 1.10412 4.68789 0.99483C4.79504 0.885542 4.85525 0.737315 4.85525 0.582758C4.85525 0.428201 4.79504 0.279974 4.68789 0.170686C4.58073 0.0613975 4.43539 0 4.28384 0C2.58678 0.00582758 1.17999 1.09558 0.912575 2.51577C0.906108 2.54863 0.888687 2.57819 0.863272 2.59944C0.837857 2.62068 0.806015 2.6323 0.773153 2.63232H0.290318C0.232974 2.63137 0.176677 2.64805 0.128754 2.68018C0.0808304 2.71232 0.0434985 2.75841 0.0216152 2.81248C-0.00026819 2.86655 -0.00568986 2.92608 0.00605553 2.98333C0.0178009 3.04058 0.0461696 3.09291 0.0874707 3.13349L1.23313 4.29493ZM5.85863 8.74137C5.85833 8.62555 5.81308 8.51456 5.73277 8.43266C5.65247 8.35076 5.54364 8.30461 5.43008 8.3043H4.00157C3.96369 8.3043 3.92735 8.31965 3.90056 8.34697C3.87377 8.3743 3.85872 8.41135 3.85872 8.44999V9.03275C3.85872 9.07139 3.87377 9.10845 3.90056 9.13577C3.92735 9.16309 3.96369 9.17844 4.00157 9.17844H5.43008C5.54364 9.17813 5.65247 9.13198 5.73277 9.05009C5.81308 8.96819 5.85833 8.85719 5.85863 8.74137ZM5.42893 10.0526H4.00043C3.96254 10.0526 3.92621 10.0679 3.89942 10.0952C3.87263 10.1226 3.85758 10.1596 3.85758 10.1983V10.781C3.85758 10.8197 3.87263 10.8567 3.89942 10.884C3.92621 10.9114 3.96254 10.9267 4.00043 10.9267H5.42893C5.54259 10.9267 5.6516 10.8807 5.73196 10.7987C5.81233 10.7167 5.85748 10.6056 5.85748 10.4896C5.85748 10.3737 5.81233 10.2626 5.73196 10.1806C5.6516 10.0986 5.54259 10.0526 5.42893 10.0526Z" fill="#623EF8"/>
<path d="M4.74158 5.25863C3.89399 5.25863 3.06543 5.51496 2.36068 5.99522C1.65593 6.47548 1.10664 7.15809 0.782283 7.95672C0.457923 8.75536 0.373056 9.63416 0.538413 10.482C0.703771 11.3298 1.11193 12.1086 1.71127 12.7199C2.31061 13.3311 3.07421 13.7474 3.90552 13.916C4.73683 14.0847 5.5985 13.9981 6.38157 13.6673C7.16465 13.3365 7.83395 12.7763 8.30485 12.0575C8.77575 11.3388 9.02709 10.4938 9.02709 9.62931C9.02588 8.47051 8.57399 7.35953 7.77056 6.54013C6.96713 5.72074 5.8778 5.25986 4.74158 5.25863ZM3.57306 12.2407V11.9493C3.57306 11.9106 3.55801 11.8736 3.53122 11.8463C3.50443 11.8189 3.4681 11.8036 3.43021 11.8036C3.31655 11.8036 3.20755 11.7575 3.12718 11.6756C3.04681 11.5936 3.00166 11.4824 3.00166 11.3665V7.86997C3.00166 7.75405 3.04681 7.64288 3.12718 7.56091C3.20755 7.47895 3.31655 7.4329 3.43021 7.4329C3.4681 7.4329 3.50443 7.41755 3.53122 7.39023C3.55801 7.36291 3.57306 7.32585 3.57306 7.28721V6.99583C3.57306 6.87991 3.61821 6.76874 3.69858 6.68678C3.77895 6.60481 3.88796 6.55876 4.00161 6.55876C4.11527 6.55876 4.22428 6.60481 4.30465 6.68678C4.38502 6.76874 4.43017 6.87991 4.43017 6.99583V7.28721C4.43017 7.32585 4.44522 7.36291 4.47201 7.39023C4.4988 7.41755 4.53513 7.4329 4.57302 7.4329H4.85872C4.8966 7.4329 4.93294 7.41755 4.95973 7.39023C4.98652 7.36291 5.00157 7.32585 5.00157 7.28721V6.99583C5.00157 6.87991 5.04672 6.76874 5.12709 6.68678C5.20746 6.60481 5.31646 6.55876 5.43012 6.55876C5.54378 6.55876 5.65278 6.60481 5.73315 6.68678C5.81352 6.76874 5.85867 6.87991 5.85867 6.99583V7.41483C5.85876 7.44315 5.8669 7.47084 5.88212 7.49452C5.89733 7.51821 5.91896 7.53689 5.94438 7.54828C6.17301 7.64956 6.36774 7.81662 6.50475 8.029C6.64175 8.24138 6.71508 8.48988 6.71577 8.7441C6.7153 9.0285 6.62292 9.3048 6.45293 9.53024C6.43447 9.5555 6.4245 9.58616 6.4245 9.61766C6.4245 9.64916 6.43447 9.67982 6.45293 9.70507C6.6228 9.93035 6.71518 10.2064 6.71577 10.4906C6.71508 10.7449 6.64175 10.9934 6.50475 11.2057C6.36774 11.4181 6.17301 11.5852 5.94438 11.6864C5.91896 11.6978 5.89733 11.7165 5.88212 11.7402C5.8669 11.7639 5.85876 11.7916 5.85867 11.8199V12.2389C5.85867 12.3548 5.81352 12.466 5.73315 12.548C5.65278 12.6299 5.54378 12.676 5.43012 12.676C5.31646 12.676 5.20746 12.6299 5.12709 12.548C5.04672 12.466 5.00157 12.3548 5.00157 12.2389V11.9475C5.00157 11.9089 4.98652 11.8718 4.95973 11.8445C4.93294 11.8172 4.8966 11.8018 4.85872 11.8018H4.57302C4.53513 11.8018 4.4988 11.8172 4.47201 11.8445C4.44522 11.8718 4.43017 11.9089 4.43017 11.9475V12.2389C4.43017 12.3548 4.38502 12.466 4.30465 12.548C4.22428 12.6299 4.11527 12.676 4.00161 12.676C3.88796 12.676 3.77895 12.6299 3.69858 12.548C3.61821 12.466 3.57306 12.3548 3.57306 12.2389V12.2407ZM10.8573 6.41307C11.4789 6.41307 12.0865 6.22509 12.6033 5.8729C13.1201 5.52071 13.5229 5.02014 13.7608 4.43447C13.9986 3.8488 14.0609 3.20435 13.9396 2.5826C13.8184 1.96086 13.519 1.38976 13.0795 0.941505C12.64 0.493254 12.08 0.187992 11.4704 0.0643196C10.8608 -0.0593526 10.2289 0.00412046 9.65463 0.246712C9.08037 0.489304 8.58955 0.900118 8.24422 1.42721C7.8989 1.95429 7.71458 2.57398 7.71458 3.2079C7.71564 4.05763 8.04709 4.87225 8.63623 5.47311C9.22537 6.07396 10.0241 6.41199 10.8573 6.41307ZM11.5727 1.31394C11.6863 1.31394 11.7953 1.35999 11.8757 1.44195C11.9561 1.52392 12.0012 1.63509 12.0012 1.75101C12.0012 1.86692 11.9561 1.9781 11.8757 2.06006C11.7953 2.14203 11.6863 2.18808 11.5727 2.18808H10.6013C10.5523 2.18792 10.5049 2.2052 10.467 2.23693C10.4292 2.26867 10.4035 2.31286 10.3942 2.3619C10.3849 2.41093 10.3927 2.46173 10.4162 2.50554C10.4397 2.54934 10.4775 2.5834 10.523 2.60183L11.5053 3.00277C11.7133 3.08671 11.8901 3.23535 12.0106 3.4276C12.1311 3.61984 12.1891 3.84591 12.1764 4.0737C12.1638 4.3015 12.0811 4.51944 11.9401 4.69658C11.7991 4.87371 11.607 5.00105 11.391 5.06049C11.3608 5.06892 11.3341 5.08723 11.3152 5.1126C11.2962 5.13798 11.2859 5.16901 11.2858 5.20093V5.27203C11.2858 5.38795 11.2407 5.49912 11.1603 5.58109C11.08 5.66305 10.9709 5.7091 10.8573 5.7091C10.7436 5.7091 10.6346 5.66305 10.5543 5.58109C10.4739 5.49912 10.4287 5.38795 10.4287 5.27203V5.24756C10.4287 5.20892 10.4137 5.17186 10.3869 5.14454C10.3601 5.11722 10.3238 5.10187 10.2859 5.10187H10.1442C10.0305 5.10187 9.92152 5.05582 9.84115 4.97385C9.76078 4.89188 9.71563 4.78072 9.71563 4.6648C9.71563 4.54888 9.76078 4.43771 9.84115 4.35574C9.92152 4.27378 10.0305 4.22773 10.1442 4.22773H11.1121C11.1611 4.22788 11.2086 4.2106 11.2464 4.17887C11.2842 4.14714 11.31 4.10294 11.3193 4.05391C11.3285 4.00487 11.3207 3.95407 11.2972 3.91027C11.2737 3.86647 11.2359 3.83241 11.1904 3.81397L10.207 3.41362C9.99939 3.32925 9.823 3.18043 9.70284 2.98821C9.58268 2.79598 9.52483 2.5701 9.53747 2.3425C9.5501 2.1149 9.63259 1.89711 9.77326 1.71996C9.91393 1.5428 10.1057 1.41523 10.3213 1.35531C10.3522 1.34763 10.3797 1.32963 10.3993 1.30418C10.419 1.27872 10.4298 1.24728 10.4299 1.21487V1.14377C10.4299 1.02786 10.475 0.916685 10.5554 0.834719C10.6358 0.752753 10.7448 0.706705 10.8584 0.706705C10.9721 0.706705 11.0811 0.752753 11.1615 0.834719C11.2418 0.916685 11.287 1.02786 11.287 1.14377V1.16825C11.287 1.18738 11.2907 1.20633 11.2979 1.224C11.305 1.24168 11.3156 1.25774 11.3288 1.27127C11.3421 1.2848 11.3578 1.29553 11.3752 1.30285C11.3925 1.31017 11.4111 1.31394 11.4298 1.31394H11.5727Z" fill="#623EF8"/>
</svg>
