<svg width="12" height="12" viewBox="0 0 12 12" fill="none" xmlns="http://www.w3.org/2000/svg">
<path d="M11.4635 3.08073C11.4274 3.17208 11.3664 3.25014 11.2881 3.30506C11.2098 3.35997 11.1178 3.38927 11.0237 3.38924H9.58327C9.56762 3.38918 9.55212 3.39236 9.53765 3.39862C9.52319 3.40488 9.51004 3.41409 9.49898 3.42571C9.48792 3.43733 9.47915 3.45113 9.4732 3.46633C9.46724 3.48153 9.4642 3.49781 9.46427 3.51425V11.25C9.46427 11.4489 9.38904 11.6397 9.25514 11.7803C9.12124 11.921 8.93962 12 8.75026 12C8.56089 12 8.37928 11.921 8.24538 11.7803C8.11147 11.6397 8.03625 11.4489 8.03625 11.25V3.51425C8.03625 3.48109 8.02371 3.4493 8.0014 3.42585C7.97908 3.40241 7.94881 3.38924 7.91725 3.38924H6.4759C6.38177 3.38922 6.28976 3.35988 6.2115 3.30494C6.13324 3.25 6.07225 3.17191 6.03623 3.08056C6.00021 2.98921 5.99078 2.88869 6.00914 2.79171C6.0275 2.69473 6.07282 2.60564 6.13937 2.53572L8.41325 0.146648C8.45745 0.100158 8.50995 0.0632776 8.56774 0.0381147C8.62552 0.0129518 8.68747 0 8.75002 0C8.81257 0 8.87452 0.0129518 8.9323 0.0381147C8.99009 0.0632776 9.04259 0.100158 9.08679 0.146648L11.3611 2.53572C11.4276 2.60575 11.4728 2.69491 11.491 2.79192C11.5092 2.88893 11.4996 2.98944 11.4635 3.08073Z" fill="#495055"/>
<path d="M5.96349 8.91927C5.92743 8.82792 5.86641 8.74986 5.78812 8.69494C5.70983 8.64003 5.6178 8.61073 5.52366 8.61076H4.08327C4.06762 8.61083 4.05212 8.60764 4.03765 8.60138C4.02319 8.59512 4.01004 8.58591 3.99898 8.57429C3.98792 8.56267 3.97915 8.54887 3.9732 8.53367C3.96724 8.51847 3.9642 8.50219 3.96427 8.48576V0.750032C3.96427 0.551113 3.88904 0.360343 3.75514 0.219686C3.62124 0.0790298 3.43962 9.89465e-06 3.25026 9.89465e-06C3.06089 9.89465e-06 2.87928 0.0790298 2.74538 0.219686C2.61148 0.360343 2.53625 0.551113 2.53625 0.750032V8.48576C2.53625 8.51891 2.52371 8.5507 2.5014 8.57415C2.47908 8.59759 2.44881 8.61076 2.41725 8.61076H0.975904C0.881774 8.61078 0.789763 8.64012 0.711503 8.69506C0.633243 8.75 0.572248 8.82809 0.536228 8.91944C0.500209 9.01079 0.490783 9.11131 0.509141 9.20829C0.527499 9.30527 0.572818 9.39436 0.639368 9.46428L2.91325 11.8534C2.95745 11.8998 3.00995 11.9367 3.06774 11.9619C3.12552 11.987 3.18747 12 3.25002 12C3.31257 12 3.37452 11.987 3.4323 11.9619C3.49009 11.9367 3.54259 11.8998 3.58679 11.8534L5.86115 9.46428C5.9276 9.39425 5.97279 9.30509 5.991 9.20808C6.00922 9.11107 5.99964 9.01056 5.96349 8.91927Z" fill="#495055"/>
</svg>
