<svg width="22" height="22" viewBox="0 0 22 22" fill="none" xmlns="http://www.w3.org/2000/svg">
<path d="M21.3125 22C21.1292 22 20.9559 21.9285 20.8267 21.7983L11 11.973L1.17333 21.7983C1.04317 21.9285 0.870833 22 0.6875 22C0.504167 22 0.330917 21.9285 0.201667 21.7983C-0.066 21.5307 -0.066 21.0944 0.201667 20.8258L10.0283 10.9995L0.201667 1.1742C0.0715 1.04496 0 0.871714 0 0.688388C0 0.505062 0.0715 0.33182 0.201667 0.202575C0.330917 0.0724136 0.504167 0.000916628 0.6875 0.000916628C0.870833 0.000916628 1.04408 0.0724136 1.17333 0.202575L11 10.0279L20.8267 0.201658C20.9568 0.071497 21.1292 0 21.3125 0C21.4958 0 21.6691 0.071497 21.7983 0.201658C21.9285 0.33182 22 0.505062 22 0.688388C22 0.871714 21.9285 1.04496 21.7983 1.1742L11.9717 11.0005L21.7983 20.8267C22.066 21.0944 22.066 21.5307 21.7983 21.7993C21.6691 21.9285 21.4958 22 21.3125 22Z" fill="#959CA5"/>
</svg>
