<svg width="24" height="24" viewBox="0 0 24 24" fill="none" xmlns="http://www.w3.org/2000/svg">
<path d="M18.0356 13.9434C16.7909 12.6515 16.7909 10.7104 18.0356 9.45865C19.2802 8.16678 21.3036 8.16678 22.5416 9.45865C23.7863 10.7104 23.7863 12.6515 22.495 13.9434C21.257 15.1884 19.3268 15.1884 18.0356 13.9434Z" fill="#6D89FF"/>
<path d="M3.32642 20.3102C5.54403 22.5348 8.33737 23.6471 11.7064 23.6471C13.7535 23.6471 15.6299 23.1659 17.3358 22.2033C17.9793 21.8367 18.568 21.4241 19.102 20.9654L16.6314 18.3264C16.3032 18.6079 15.941 18.8627 15.5446 19.091C14.3932 19.7327 13.1138 20.0536 11.7064 20.0536C9.31824 20.0536 7.37783 19.2942 5.88521 17.7755C4.4139 16.2568 3.67825 14.3316 3.67825 12.0001C3.67825 9.66854 4.4139 7.7434 5.88521 6.22469C7.37783 4.70597 9.31824 3.94661 11.7064 3.94661C13.1138 3.94661 14.3825 4.27816 15.5126 4.94126C15.9203 5.16845 16.2932 5.42514 16.6314 5.71132L18.9796 2.93609C18.4682 2.51424 17.9096 2.13451 17.3038 1.79688C15.5979 0.834311 13.7321 0.353027 11.7064 0.353027C8.33737 0.353027 5.54403 1.47602 3.32642 3.72201C1.10881 5.94661 0 8.70597 0 12.0001C0 15.2942 1.10881 18.0643 3.32642 20.3102Z" fill="#495055"/>
</svg>
