<svg width="48" height="48" viewBox="0 0 48 48" fill="none" xmlns="http://www.w3.org/2000/svg">
<g clip-path="url(#clip0)">
<path d="M4.5 27C2.018 27 0 24.982 0 22.5V4.5C0 2.018 2.018 0 4.5 0H40.5C42.982 0 45 2.018 45 4.5V16.5C45 17.328 44.328 18 43.5 18C42.672 18 42 17.328 42 16.5V4.5C42 3.672 41.328 3 40.5 3H4.5C3.672 3 3 3.672 3 4.5V22.5C3 23.328 3.672 24 4.5 24H25.5C26.328 24 27 24.672 27 25.5C27 26.328 26.328 27 25.5 27H4.5Z" fill="#51D375"/>
<path d="M10.5 15.75C9.26001 15.75 8.25001 14.74 8.25001 13.5C8.24801 12.904 8.48001 12.338 8.90401 11.912C9.32801 11.486 9.89201 11.25 10.49 11.25C11.74 11.25 12.748 12.26 12.748 13.5C12.748 14.74 11.74 15.75 10.5 15.75ZM22.5 15.75C21.26 15.75 20.25 14.74 20.25 13.5C20.248 12.904 20.48 12.338 20.904 11.912C21.328 11.486 21.892 11.25 22.49 11.25C23.74 11.25 24.748 12.26 24.748 13.5C24.748 14.74 23.74 15.75 22.5 15.75ZM34.5 15.75C33.26 15.75 32.25 14.74 32.25 13.5C32.248 12.264 33.252 11.254 34.492 11.25C35.742 11.25 36.75 12.26 36.75 13.5C36.75 14.74 35.74 15.75 34.5 15.75ZM31.5 48C29.018 48 27 45.982 27 43.5V34.5C27 32.58 28.23 30.884 30 30.258V28.5C30 24.364 33.364 21 37.5 21C41.636 21 45 24.364 45 28.5V30.258C46.77 30.886 48 32.582 48 34.5V43.5C48 45.982 45.982 48 43.5 48H31.5ZM31.5 33C30.672 33 30 33.672 30 34.5V43.5C30 44.328 30.672 45 31.5 45H43.5C44.328 45 45 44.328 45 43.5V34.5C45 33.672 44.328 33 43.5 33H31.5ZM42 30V28.5C42 26.018 39.982 24 37.5 24C35.018 24 33 26.018 33 28.5L33 30H42Z" fill="#51D375"/>
<path d="M37.5 41.3076C38.7426 41.3076 39.75 40.3003 39.75 39.0576C39.75 37.815 38.7426 36.8076 37.5 36.8076C36.2574 36.8076 35.25 37.815 35.25 39.0576C35.25 40.3003 36.2574 41.3076 37.5 41.3076Z" fill="#51D375"/>
</g>
<defs>
<clipPath id="clip0">
<rect width="48" height="48" fill="white"/>
</clipPath>
</defs>
</svg>
