<svg width="48" height="48" viewBox="0 0 48 48" fill="none" xmlns="http://www.w3.org/2000/svg">
<g clip-path="url(#clip0)">
<path d="M34.5019 22.5C33.6739 22.5 33.0019 21.828 33.0019 21H31.5019C30.6739 21 30.0019 20.328 30.0019 19.5C30.0019 18.672 30.6739 18 31.5019 18H35.5639C36.0479 18 36.4799 17.708 36.6599 17.258C36.7779 16.966 36.7739 16.644 36.6499 16.352C36.5259 16.06 36.2959 15.834 36.0039 15.718L31.8779 14.068C30.2839 13.426 29.2539 11.904 29.2539 10.188C29.2539 9.07 29.6879 8.02 30.4779 7.23C31.1659 6.542 32.0499 6.122 33.0019 6.024V6C33.0019 5.172 33.6739 4.5 34.5019 4.5C35.3299 4.5 36.0019 5.172 36.0019 6H37.5019C38.3299 6 39.0019 6.672 39.0019 7.5C39.0019 8.328 38.3299 9 37.5019 9H33.4359C33.1199 9 32.8239 9.124 32.5999 9.348C32.3759 9.572 32.2539 9.868 32.2539 10.184C32.2539 10.67 32.5459 11.1 32.9959 11.282L37.1219 12.932C39.2639 13.794 40.3059 16.236 39.4439 18.376C38.8579 19.832 37.5359 20.816 36.0019 20.976V21C36.0019 21.828 35.3279 22.5 34.5019 22.5Z" fill="#51D375"/>
<path d="M34.5022 27C27.0582 27 21.0022 20.944 21.0022 13.5C21.0022 6.056 27.0582 0 34.5022 0C41.9462 0 48.0022 6.056 48.0022 13.5C48.0022 20.944 41.9462 27 34.5022 27ZM34.5022 3C28.7122 3 24.0022 7.71 24.0022 13.5C24.0022 19.29 28.7122 24 34.5022 24C40.2922 24 45.0022 19.29 45.0022 13.5C45.0022 7.71 40.2902 3 34.5022 3ZM13.5022 48C6.0582 48 0.00219727 41.944 0.00219727 34.5C0.00219727 27.056 6.0582 21 13.5022 21C20.9462 21 27.0022 27.056 27.0022 34.5C27.0022 41.944 20.9462 48 13.5022 48ZM13.5022 24C7.7122 24 3.0022 28.71 3.0022 34.5C3.0022 40.29 7.7122 45 13.5022 45C19.2922 45 24.0022 40.29 24.0022 34.5C24.0022 28.71 19.2922 24 13.5022 24Z" fill="#51D375"/>
<path d="M16.5019 41.9998C12.9039 41.9998 9.85589 39.4638 9.15589 35.9998H9.00189C8.17389 35.9998 7.50189 35.3278 7.50189 34.4998C7.50189 33.6718 8.17389 32.9998 9.00189 32.9998H9.15589C9.85789 29.5358 12.9039 26.9998 16.5019 26.9998C17.3299 26.9998 18.0019 27.6718 18.0019 28.4998C18.0019 29.3278 17.3279 29.9998 16.5019 29.9998C14.5819 29.9998 12.8919 31.2418 12.2659 32.9998H16.5019C17.3299 32.9998 18.0019 33.6718 18.0019 34.4998C18.0019 35.3278 17.3279 35.9998 16.5019 35.9998H12.2659C12.8919 37.7578 14.5819 38.9998 16.5019 38.9998C17.3299 38.9998 18.0019 39.6718 18.0019 40.4998C18.0019 41.3278 17.3279 41.9998 16.5019 41.9998ZM6.00189 17.9998C5.47789 17.9998 4.98389 17.7198 4.71589 17.2718L0.21589 9.7718C-0.21011 9.0618 0.01989 8.1398 0.72989 7.7138C0.96189 7.5738 1.22989 7.4998 1.49989 7.4998C2.02389 7.4998 2.51789 7.7798 2.78789 8.2278L6.03989 13.6478C6.38589 7.7538 10.2579 2.4358 15.8659 0.391805C16.0299 0.329805 16.2039 0.299805 16.3779 0.299805C17.0059 0.299805 17.5739 0.695805 17.7879 1.2858C18.0699 2.0618 17.6699 2.9258 16.8919 3.2078C12.7079 4.7358 9.71589 8.5198 9.11789 12.8798L12.7299 10.7138C12.9619 10.5738 13.2299 10.4998 13.4999 10.4998C14.0239 10.4998 14.5159 10.7798 14.7859 11.2278C15.2119 11.9378 14.9819 12.8598 14.2739 13.2858L6.77389 17.7858C6.53989 17.9258 6.27389 17.9998 6.00189 17.9998ZM31.6239 47.6998C30.9959 47.6998 30.4299 47.3038 30.2139 46.7138C30.0759 46.3378 30.0939 45.9298 30.2639 45.5678C30.4339 45.2058 30.7339 44.9298 31.1099 44.7918C35.2959 43.2658 38.2859 39.4798 38.8859 35.1198L35.2739 37.2858C35.0419 37.4258 34.7739 37.4998 34.5039 37.4998C33.9799 37.4998 33.4859 37.2218 33.2159 36.7718C33.0099 36.4278 32.9499 36.0258 33.0459 35.6358C33.1439 35.2458 33.3859 34.9198 33.7299 34.7138L41.2299 30.2138C41.4619 30.0738 41.7279 29.9998 41.9999 29.9998C42.5239 29.9998 43.0179 30.2798 43.2879 30.7298L47.7879 38.2298C47.9939 38.5718 48.0539 38.9758 47.9579 39.3658C47.8599 39.7558 47.6179 40.0818 47.2739 40.2878C47.0439 40.4278 46.7759 40.5018 46.5039 40.5018C45.9799 40.5018 45.4859 40.2218 45.2179 39.7738L41.9659 34.3538C41.6219 40.2478 37.7499 45.5658 32.1399 47.6118C31.9719 47.6698 31.7979 47.6998 31.6239 47.6998Z" fill="#51D375"/>
</g>
<defs>
<clipPath id="clip0">
<rect width="48" height="48" fill="white"/>
</clipPath>
</defs>
</svg>
