<svg width="20" height="22" viewBox="0 0 20 22" fill="none" xmlns="http://www.w3.org/2000/svg">
<g clip-path="url(#clip0)">
<path d="M19.3334 21.6667C19.3334 21.6667 16.1907 20.43 13.6487 19.44H2.95808C1.69341 19.44 0.666748 18.3507 0.666748 17.0087V2.76271C0.666748 1.42204 1.69341 0.333374 2.95808 0.333374H17.0414C18.3067 0.333374 19.3327 1.42137 19.3327 2.76337V15.0327H19.3334V21.6667ZM16.5741 13.6787C16.5242 13.6146 16.4615 13.5616 16.39 13.523C16.3185 13.4844 16.2398 13.4611 16.1588 13.4545C16.0778 13.4479 15.9964 13.4582 15.9196 13.4848C15.8428 13.5113 15.7724 13.5535 15.7127 13.6087C15.6927 13.626 13.7027 15.396 9.99941 15.396C6.34208 15.396 4.32141 13.6387 4.28541 13.6067C4.22573 13.5518 4.15532 13.5099 4.07861 13.4836C4.00191 13.4573 3.92059 13.4472 3.83978 13.4539C3.75897 13.4606 3.68042 13.4839 3.6091 13.5225C3.53778 13.5611 3.47524 13.6141 3.42541 13.678C3.3187 13.8112 3.26652 13.9799 3.27941 14.15C3.29068 14.3193 3.36658 14.4778 3.49141 14.5927C3.58608 14.678 5.84941 16.6927 9.99941 16.6927C14.1501 16.6927 16.4134 14.678 16.5081 14.5927C16.6327 14.4777 16.7083 14.3192 16.7194 14.15C16.7323 13.9802 16.6804 13.8118 16.5741 13.6787Z" fill="white"/>
</g>
<defs>
<clipPath id="clip0">
<rect width="18.6667" height="21.3333" fill="white" transform="translate(0.666748 0.333374)"/>
</clipPath>
</defs>
</svg>
