<svg width="142" height="24" viewBox="0 0 142 24" fill="none" xmlns="http://www.w3.org/2000/svg">
<path d="M19.1226 14.2185C17.8644 12.919 17.8644 10.9665 19.1226 9.70749C20.3808 8.40805 22.4261 8.40805 23.6776 9.70749C24.9358 10.9665 24.9358 12.919 23.6305 14.2185C22.379 15.4708 20.4279 15.4708 19.1226 14.2185Z" fill="#6D89FF"/>
<path d="M93.0789 23.5596V0H96.5707V23.5596H93.0789Z" fill="#6D89FF"/>
<path d="M111.844 7.42288H115.336V23.5596H111.844V21.4941C110.788 23.1508 109.118 23.9791 106.833 23.9791C104.979 23.9791 103.481 23.3875 102.339 22.2041C101.196 21.0207 100.625 19.3963 100.625 17.3308V7.42288H104.117V16.9758C104.117 18.1807 104.44 19.1059 105.087 19.7513C105.734 20.3968 106.617 20.7195 107.738 20.7195C108.967 20.7195 109.958 20.343 110.713 19.59C111.467 18.8154 111.844 17.6428 111.844 16.0722V7.42288Z" fill="#6D89FF"/>
<path d="M119.743 23.5596V0H123.234V23.5596H119.743Z" fill="#6D89FF"/>
<path d="M138.508 7.42288H142V23.5596H138.508V21.4941C137.452 23.1508 135.781 23.9791 133.497 23.9791C131.643 23.9791 130.145 23.3875 129.002 22.2041C127.86 21.0207 127.289 19.3963 127.289 17.3308V7.42288H130.781V16.9758C130.781 18.1807 131.104 19.1059 131.751 19.7513C132.397 20.3968 133.281 20.7195 134.402 20.7195C135.63 20.7195 136.622 20.343 137.376 19.59C138.131 18.8154 138.508 17.6428 138.508 16.0722V7.42288Z" fill="#6D89FF"/>
<path d="M34.7522 23.9788C32.3812 23.9788 30.3658 23.1612 28.7061 21.5261C27.0464 19.8909 26.2166 17.8792 26.2166 15.4909C26.2166 13.1027 27.0464 11.091 28.7061 9.4558C30.3658 7.82062 32.3812 7.00302 34.7522 7.00302C37.1448 7.00302 39.1601 7.82062 40.7983 9.4558C42.458 11.091 43.2878 13.1027 43.2878 15.4909C43.2878 17.8792 42.458 19.8909 40.7983 21.5261C39.1601 23.1612 37.1448 23.9788 34.7522 23.9788ZM31.1633 19.1378C32.1333 20.106 33.3296 20.5901 34.7522 20.5901C36.1748 20.5901 37.3711 20.106 38.341 19.1378C39.311 18.1696 39.796 16.954 39.796 15.4909C39.796 14.0279 39.311 12.8122 38.341 11.844C37.3711 10.8758 36.1748 10.3917 34.7522 10.3917C33.3296 10.3917 32.1333 10.8758 31.1633 11.844C30.1934 12.8122 29.7084 14.0279 29.7084 15.4909C29.7084 16.954 30.1934 18.1696 31.1633 19.1378Z" fill="#495055"/>
<path d="M50.0664 4.3566C49.6353 4.78691 49.118 5.00207 48.5145 5.00207C47.911 5.00207 47.3829 4.78691 46.9302 4.3566C46.4991 3.90477 46.2836 3.37764 46.2836 2.7752C46.2836 2.17277 46.4991 1.65639 46.9302 1.22608C47.3613 0.774254 47.8894 0.54834 48.5145 0.54834C49.1396 0.54834 49.6677 0.774254 50.0987 1.22608C50.5298 1.65639 50.7454 2.17277 50.7454 2.7752C50.7454 3.37764 50.5191 3.90477 50.0664 4.3566ZM46.7686 23.5593V7.42258H50.2604V23.5593H46.7686Z" fill="#495055"/>
<path d="M63.1414 7.00302C64.9951 7.00302 66.4931 7.5947 67.6355 8.77806C68.7779 9.96142 69.3491 11.5858 69.3491 13.6513V23.5593H65.8573V14.0064C65.8573 12.8015 65.534 11.8763 64.8873 11.2308C64.2407 10.5854 63.3569 10.2626 62.2361 10.2626C61.0075 10.2626 60.016 10.6499 59.2616 11.4245C58.5072 12.1775 58.1299 13.3394 58.1299 14.91V23.5593H54.6381V7.42258H58.1299V9.48807C59.1861 7.83137 60.8566 7.00302 63.1414 7.00302Z" fill="#495055"/>
<path d="M81.0626 23.9788C78.6916 23.9788 76.6763 23.1612 75.0166 21.5261C73.3569 19.8909 72.527 17.8792 72.527 15.4909C72.527 13.1027 73.3569 11.091 75.0166 9.4558C76.6763 7.82062 78.6916 7.00302 81.0626 7.00302C83.4552 7.00302 85.4706 7.82062 87.1087 9.4558C88.7684 11.091 89.5983 13.1027 89.5983 15.4909C89.5983 17.8792 88.7684 19.8909 87.1087 21.5261C85.4706 23.1612 83.4552 23.9788 81.0626 23.9788ZM77.4738 19.1378C78.4438 20.106 79.64 20.5901 81.0626 20.5901C82.4852 20.5901 83.6815 20.106 84.6515 19.1378C85.6214 18.1696 86.1064 16.954 86.1064 15.4909C86.1064 14.0279 85.6214 12.8122 84.6515 11.844C83.6815 10.8758 82.4852 10.3917 81.0626 10.3917C79.64 10.3917 78.4438 10.8758 77.4738 11.844C76.5038 12.8122 76.0189 14.0279 76.0189 15.4909C76.0189 16.954 76.5038 18.1696 77.4738 19.1378Z" fill="#495055"/>
<path d="M3.7175 20.6229C5.95918 22.8605 8.78284 23.9793 12.1885 23.9793C14.2577 23.9793 16.1545 23.4952 17.8789 22.527C18.5294 22.1583 19.1245 21.7432 19.6643 21.2819L17.1669 18.6274C16.8352 18.9105 16.469 19.1669 16.0683 19.3965C14.9044 20.042 13.6111 20.3647 12.1885 20.3647C9.77435 20.3647 7.81288 19.6009 6.30406 18.0733C4.81679 16.5457 4.07315 14.6093 4.07315 12.2641C4.07315 9.91887 4.81679 7.98247 6.30406 6.45486C7.81288 4.92725 9.77435 4.16345 12.1885 4.16345C13.6111 4.16345 14.8936 4.49694 16.036 5.16392C16.4481 5.39245 16.825 5.65063 17.1669 5.93849L19.5406 3.14701C19.0236 2.7227 18.459 2.34074 17.8466 2.00113C16.1222 1.03293 14.2362 0.548828 12.1885 0.548828C8.78284 0.548828 5.95918 1.6784 3.7175 3.93754C1.47582 6.17516 0.35498 8.95067 0.35498 12.2641C0.35498 15.5775 1.47582 18.3637 3.7175 20.6229Z" fill="#495055"/>
</svg>
