<svg width="32" height="32" viewBox="0 0 32 32" fill="none" xmlns="http://www.w3.org/2000/svg">
<circle cx="16" cy="16" r="16" fill="#406CFF"/>
<path d="M9.5 21C8.67267 21 8 20.3273 8 19.5V10.5C8 9.67267 8.67267 9 9.5 9H22.5C23.3273 9 24 9.67267 24 10.5V19.5C24 20.3273 23.3273 21 22.5 21H9.5ZM9 19.5C9 19.776 9.224 20 9.5 20H22.5C22.776 20 23 19.776 23 19.5V13H9V19.5ZM23 12V10.5C23 10.224 22.776 10 22.5 10H9.5C9.224 10 9 10.224 9 10.5V12H23Z" fill="white"/>
<path d="M11.5 16C11.224 16 11 15.776 11 15.5C11 15.224 11.224 15 11.5 15H17C17.276 15 17.5 15.224 17.5 15.5C17.5 15.776 17.276 16 17 16H11.5ZM11.5 18C11.224 18 11 17.776 11 17.5C11 17.224 11.224 17 11.5 17H15C15.276 17 15.5 17.224 15.5 17.5C15.5 17.776 15.276 18 15 18H11.5Z" fill="white"/>
</svg>
